solid ascii
  facet normal -0.000000e+000 -1.000000e+000 0.000000e+000
    outer loop
      vertex   -1.700000e+002 1.320000e+002 2.000000e+000
      vertex   -1.700000e+002 1.320000e+002 1.000000e+001
      vertex   -2.025000e+002 1.320000e+002 2.000000e+000
    endloop
  endfacet
  facet normal 0.000000e+000 -1.000000e+000 0.000000e+000
    outer loop
      vertex   -2.025000e+002 1.320000e+002 2.000000e+000
      vertex   -1.700000e+002 1.320000e+002 1.000000e+001
      vertex   -2.025000e+002 1.320000e+002 1.000000e+001
    endloop
  endfacet
  facet normal 0.000000e+000 -1.000000e+000 0.000000e+000
    outer loop
      vertex   -2.350000e+002 1.320000e+002 2.000000e+000
      vertex   -2.025000e+002 1.320000e+002 1.000000e+001
      vertex   -2.350000e+002 1.320000e+002 1.000000e+001
    endloop
  endfacet
  facet normal 0.000000e+000 -1.000000e+000 0.000000e+000
    outer loop
      vertex   -2.350000e+002 1.320000e+002 2.000000e+000
      vertex   -2.025000e+002 1.320000e+002 2.000000e+000
      vertex   -2.025000e+002 1.320000e+002 1.000000e+001
    endloop
  endfacet
  facet normal -1.000000e+000 -0.000000e+000 -0.000000e+000
    outer loop
      vertex   -1.700000e+002 1.320000e+002 1.000000e+001
      vertex   -1.700000e+002 1.320000e+002 2.000000e+000
      vertex   -1.700000e+002 8.000000e+001 1.000000e+001
    endloop
  endfacet
  facet normal -1.000000e+000 -0.000000e+000 -0.000000e+000
    outer loop
      vertex   -1.700000e+002 8.000000e+001 1.000000e+001
      vertex   -1.700000e+002 1.320000e+002 2.000000e+000
      vertex   -1.700000e+002 8.000000e+001 2.000000e+000
    endloop
  endfacet
  facet normal 0.000000e+000 0.000000e+000 1.000000e+000
    outer loop
      vertex   -1.700000e+002 1.320000e+002 2.000000e+000
      vertex   -2.025000e+002 1.320000e+002 2.000000e+000
      vertex   -1.700000e+002 8.000000e+001 2.000000e+000
    endloop
  endfacet
  facet normal 0.000000e+000 0.000000e+000 1.000000e+000
    outer loop
      vertex   -1.700000e+002 8.000000e+001 2.000000e+000
      vertex   -2.025000e+002 1.320000e+002 2.000000e+000
      vertex   -2.025000e+002 8.000000e+001 2.000000e+000
    endloop
  endfacet
  facet normal 0.000000e+000 -0.000000e+000 1.000000e+000
    outer loop
      vertex   -2.025000e+002 8.000000e+001 2.000000e+000
      vertex   -2.025000e+002 1.320000e+002 2.000000e+000
      vertex   -2.350000e+002 1.320000e+002 2.000000e+000
    endloop
  endfacet
  facet normal 0.000000e+000 -0.000000e+000 1.000000e+000
    outer loop
      vertex   -2.350000e+002 8.000000e+001 2.000000e+000
      vertex   -2.025000e+002 8.000000e+001 2.000000e+000
      vertex   -2.350000e+002 1.320000e+002 2.000000e+000
    endloop
  endfacet
  facet normal -0.000000e+000 1.000000e+000 0.000000e+000
    outer loop
      vertex   -2.350000e+002 8.000000e+001 2.000000e+000
      vertex   -2.350000e+002 8.000000e+001 1.000000e+001
      vertex   -2.025000e+002 8.000000e+001 2.000000e+000
    endloop
  endfacet
  facet normal 4.372571e-016 1.000000e+000 1.776357e-015
    outer loop
      vertex   -2.025000e+002 8.000000e+001 2.000000e+000
      vertex   -2.350000e+002 8.000000e+001 1.000000e+001
      vertex   -2.025000e+002 8.000000e+001 1.000000e+001
    endloop
  endfacet
  facet normal -4.372571e-016 1.000000e+000 0.000000e+000
    outer loop
      vertex   -1.700000e+002 8.000000e+001 2.000000e+000
      vertex   -2.025000e+002 8.000000e+001 1.000000e+001
      vertex   -1.700000e+002 8.000000e+001 1.000000e+001
    endloop
  endfacet
  facet normal 0.000000e+000 1.000000e+000 1.776357e-015
    outer loop
      vertex   -1.700000e+002 8.000000e+001 2.000000e+000
      vertex   -2.025000e+002 8.000000e+001 2.000000e+000
      vertex   -2.025000e+002 8.000000e+001 1.000000e+001
    endloop
  endfacet
  facet normal 0.000000e+000 -0.000000e+000 1.000000e+000
    outer loop
      vertex   -2.350000e+002 1.320000e+002 1.000000e+001
      vertex   -2.025000e+002 1.320000e+002 1.000000e+001
      vertex   -2.350000e+002 1.335000e+002 1.000000e+001
    endloop
  endfacet
  facet normal -0.000000e+000 0.000000e+000 1.000000e+000
    outer loop
      vertex   -2.350000e+002 1.335000e+002 1.000000e+001
      vertex   -2.025000e+002 1.320000e+002 1.000000e+001
      vertex   -2.000000e+002 1.335000e+002 1.000000e+001
    endloop
  endfacet
  facet normal -0.000000e+000 0.000000e+000 1.000000e+000
    outer loop
      vertex   -2.000000e+002 1.335000e+002 1.000000e+001
      vertex   -2.025000e+002 1.320000e+002 1.000000e+001
      vertex   -1.700000e+002 1.320000e+002 1.000000e+001
    endloop
  endfacet
  facet normal 0.000000e+000 0.000000e+000 1.000000e+000
    outer loop
      vertex   -1.650000e+002 1.335000e+002 1.000000e+001
      vertex   -1.700000e+002 1.320000e+002 1.000000e+001
      vertex   -1.650000e+002 7.850000e+001 1.000000e+001
    endloop
  endfacet
  facet normal 0.000000e+000 0.000000e+000 1.000000e+000
    outer loop
      vertex   -1.650000e+002 1.335000e+002 1.000000e+001
      vertex   -2.000000e+002 1.335000e+002 1.000000e+001
      vertex   -1.700000e+002 1.320000e+002 1.000000e+001
    endloop
  endfacet
  facet normal 0.000000e+000 0.000000e+000 1.000000e+000
    outer loop
      vertex   -1.700000e+002 1.320000e+002 1.000000e+001
      vertex   -1.700000e+002 8.000000e+001 1.000000e+001
      vertex   -1.650000e+002 7.850000e+001 1.000000e+001
    endloop
  endfacet
  facet normal 0.000000e+000 0.000000e+000 1.000000e+000
    outer loop
      vertex   -1.650000e+002 7.850000e+001 1.000000e+001
      vertex   -1.700000e+002 8.000000e+001 1.000000e+001
      vertex   -2.000000e+002 7.850000e+001 1.000000e+001
    endloop
  endfacet
  facet normal 0.000000e+000 -0.000000e+000 1.000000e+000
    outer loop
      vertex   -2.000000e+002 7.850000e+001 1.000000e+001
      vertex   -1.700000e+002 8.000000e+001 1.000000e+001
      vertex   -2.025000e+002 8.000000e+001 1.000000e+001
    endloop
  endfacet
  facet normal 0.000000e+000 -0.000000e+000 1.000000e+000
    outer loop
      vertex   -2.350000e+002 7.850000e+001 1.000000e+001
      vertex   -2.025000e+002 8.000000e+001 1.000000e+001
      vertex   -2.350000e+002 8.000000e+001 1.000000e+001
    endloop
  endfacet
  facet normal 0.000000e+000 -0.000000e+000 1.000000e+000
    outer loop
      vertex   -2.350000e+002 7.850000e+001 1.000000e+001
      vertex   -2.000000e+002 7.850000e+001 1.000000e+001
      vertex   -2.025000e+002 8.000000e+001 1.000000e+001
    endloop
  endfacet
  facet normal 0.000000e+000 0.000000e+000 -1.000000e+000
    outer loop
      vertex   -1.650000e+002 7.850000e+001 0.000000e+000
      vertex   -2.000000e+002 7.850000e+001 0.000000e+000
      vertex   -1.650000e+002 1.335000e+002 0.000000e+000
    endloop
  endfacet
  facet normal -0.000000e+000 0.000000e+000 -1.000000e+000
    outer loop
      vertex   -1.650000e+002 1.335000e+002 0.000000e+000
      vertex   -2.000000e+002 7.850000e+001 0.000000e+000
      vertex   -2.000000e+002 1.335000e+002 0.000000e+000
    endloop
  endfacet
  facet normal -0.000000e+000 -0.000000e+000 -1.000000e+000
    outer loop
      vertex   -2.000000e+002 1.335000e+002 0.000000e+000
      vertex   -2.000000e+002 7.850000e+001 0.000000e+000
      vertex   -2.350000e+002 7.850000e+001 0.000000e+000
    endloop
  endfacet
  facet normal 0.000000e+000 -0.000000e+000 -1.000000e+000
    outer loop
      vertex   -2.350000e+002 1.335000e+002 0.000000e+000
      vertex   -2.000000e+002 1.335000e+002 0.000000e+000
      vertex   -2.350000e+002 7.850000e+001 0.000000e+000
    endloop
  endfacet
  facet normal 0.000000e+000 -1.000000e+000 0.000000e+000
    outer loop
      vertex   -2.350000e+002 7.850000e+001 1.000000e+001
      vertex   -2.350000e+002 7.850000e+001 0.000000e+000
      vertex   -2.000000e+002 7.850000e+001 1.000000e+001
    endloop
  endfacet
  facet normal 0.000000e+000 -1.000000e+000 -0.000000e+000
    outer loop
      vertex   -2.000000e+002 7.850000e+001 1.000000e+001
      vertex   -2.350000e+002 7.850000e+001 0.000000e+000
      vertex   -2.000000e+002 7.850000e+001 0.000000e+000
    endloop
  endfacet
  facet normal 0.000000e+000 -1.000000e+000 -0.000000e+000
    outer loop
      vertex   -1.650000e+002 7.850000e+001 1.000000e+001
      vertex   -2.000000e+002 7.850000e+001 0.000000e+000
      vertex   -1.650000e+002 7.850000e+001 0.000000e+000
    endloop
  endfacet
  facet normal -0.000000e+000 -1.000000e+000 -0.000000e+000
    outer loop
      vertex   -1.650000e+002 7.850000e+001 1.000000e+001
      vertex   -2.000000e+002 7.850000e+001 1.000000e+001
      vertex   -2.000000e+002 7.850000e+001 0.000000e+000
    endloop
  endfacet
  facet normal -1.000000e+000 0.000000e+000 -0.000000e+000
    outer loop
      vertex   -2.350000e+002 1.320000e+002 1.000000e+001
      vertex   -2.350000e+002 1.335000e+002 1.000000e+001
      vertex   -2.350000e+002 1.320000e+002 2.000000e+000
    endloop
  endfacet
  facet normal -1.000000e+000 0.000000e+000 0.000000e+000
    outer loop
      vertex   -2.350000e+002 1.320000e+002 2.000000e+000
      vertex   -2.350000e+002 1.335000e+002 1.000000e+001
      vertex   -2.350000e+002 1.335000e+002 0.000000e+000
    endloop
  endfacet
  facet normal -1.000000e+000 0.000000e+000 0.000000e+000
    outer loop
      vertex   -2.350000e+002 7.850000e+001 0.000000e+000
      vertex   -2.350000e+002 1.320000e+002 2.000000e+000
      vertex   -2.350000e+002 1.335000e+002 0.000000e+000
    endloop
  endfacet
  facet normal -1.000000e+000 0.000000e+000 0.000000e+000
    outer loop
      vertex   -2.350000e+002 7.850000e+001 0.000000e+000
      vertex   -2.350000e+002 8.000000e+001 2.000000e+000
      vertex   -2.350000e+002 1.320000e+002 2.000000e+000
    endloop
  endfacet
  facet normal -1.000000e+000 0.000000e+000 0.000000e+000
    outer loop
      vertex   -2.350000e+002 7.850000e+001 0.000000e+000
      vertex   -2.350000e+002 7.850000e+001 1.000000e+001
      vertex   -2.350000e+002 8.000000e+001 2.000000e+000
    endloop
  endfacet
  facet normal -1.000000e+000 0.000000e+000 0.000000e+000
    outer loop
      vertex   -2.350000e+002 8.000000e+001 2.000000e+000
      vertex   -2.350000e+002 7.850000e+001 1.000000e+001
      vertex   -2.350000e+002 8.000000e+001 1.000000e+001
    endloop
  endfacet
  facet normal 0.000000e+000 1.000000e+000 0.000000e+000
    outer loop
      vertex   -1.650000e+002 1.335000e+002 1.000000e+001
      vertex   -1.650000e+002 1.335000e+002 0.000000e+000
      vertex   -2.000000e+002 1.335000e+002 1.000000e+001
    endloop
  endfacet
  facet normal 0.000000e+000 1.000000e+000 0.000000e+000
    outer loop
      vertex   -2.000000e+002 1.335000e+002 1.000000e+001
      vertex   -1.650000e+002 1.335000e+002 0.000000e+000
      vertex   -2.000000e+002 1.335000e+002 0.000000e+000
    endloop
  endfacet
  facet normal 0.000000e+000 1.000000e+000 0.000000e+000
    outer loop
      vertex   -2.350000e+002 1.335000e+002 1.000000e+001
      vertex   -2.000000e+002 1.335000e+002 0.000000e+000
      vertex   -2.350000e+002 1.335000e+002 0.000000e+000
    endloop
  endfacet
  facet normal -0.000000e+000 1.000000e+000 0.000000e+000
    outer loop
      vertex   -2.350000e+002 1.335000e+002 1.000000e+001
      vertex   -2.000000e+002 1.335000e+002 1.000000e+001
      vertex   -2.000000e+002 1.335000e+002 0.000000e+000
    endloop
  endfacet
  facet normal 1.000000e+000 -0.000000e+000 0.000000e+000
    outer loop
      vertex   -1.650000e+002 7.850000e+001 1.000000e+001
      vertex   -1.650000e+002 7.850000e+001 0.000000e+000
      vertex   -1.650000e+002 1.335000e+002 1.000000e+001
    endloop
  endfacet
  facet normal 1.000000e+000 -0.000000e+000 0.000000e+000
    outer loop
      vertex   -1.650000e+002 1.335000e+002 1.000000e+001
      vertex   -1.650000e+002 7.850000e+001 0.000000e+000
      vertex   -1.650000e+002 1.335000e+002 0.000000e+000
    endloop
  endfacet
endsolid
