solid ascii
  facet normal 9.998252e-001 1.869887e-002 0.000000e+000
    outer loop
      vertex   -1.650000e+002 1.295000e+002 1.000000e+001
      vertex   -1.650000e+002 1.295000e+002 0.000000e+000
      vertex   -1.650028e+002 1.296496e+002 5.000000e+000
    endloop
  endfacet
  facet normal 9.972036e-001 7.473008e-002 -5.594361e-004
    outer loop
      vertex   -1.650112e+002 1.297989e+002 1.000000e+001
      vertex   -1.650028e+002 1.296496e+002 5.000000e+000
      vertex   -1.650252e+002 1.299479e+002 5.000000e+000
    endloop
  endfacet
  facet normal 9.888307e-001 1.490422e-001 -5.594361e-004
    outer loop
      vertex   -1.650447e+002 1.300962e+002 1.000000e+001
      vertex   -1.650252e+002 1.299479e+002 5.000000e+000
      vertex   -1.650697e+002 1.302436e+002 5.000000e+000
    endloop
  endfacet
  facet normal 9.749278e-001 2.225209e-001 -5.594361e-004
    outer loop
      vertex   -1.651003e+002 1.303901e+002 1.000000e+001
      vertex   -1.650697e+002 1.302436e+002 5.000000e+000
      vertex   -1.651363e+002 1.305353e+002 5.000000e+000
    endloop
  endfacet
  facet normal 9.555727e-001 2.947551e-001 -5.594361e-004
    outer loop
      vertex   -1.651777e+002 1.306790e+002 1.000000e+001
      vertex   -1.651363e+002 1.305353e+002 5.000000e+000
      vertex   -1.652245e+002 1.308211e+002 5.000000e+000
    endloop
  endfacet
  facet normal 9.308736e-001 3.653410e-001 -5.594361e-004
    outer loop
      vertex   -1.652765e+002 1.309614e+002 1.000000e+001
      vertex   -1.652245e+002 1.308211e+002 5.000000e+000
      vertex   -1.653338e+002 1.310996e+002 5.000000e+000
    endloop
  endfacet
  facet normal 9.009687e-001 4.338837e-001 -5.594361e-004
    outer loop
      vertex   -1.653961e+002 1.312355e+002 1.000000e+001
      vertex   -1.653338e+002 1.310996e+002 5.000000e+000
      vertex   -1.654635e+002 1.313691e+002 5.000000e+000
    endloop
  endfacet
  facet normal 8.660253e-001 4.999999e-001 -5.594361e-004
    outer loop
      vertex   -1.655359e+002 1.315000e+002 1.000000e+001
      vertex   -1.654635e+002 1.313691e+002 5.000000e+000
      vertex   -1.656131e+002 1.316281e+002 5.000000e+000
    endloop
  endfacet
  facet normal 8.262386e-001 5.633200e-001 -5.594361e-004
    outer loop
      vertex   -1.656950e+002 1.317533e+002 1.000000e+001
      vertex   -1.656131e+002 1.316281e+002 5.000000e+000
      vertex   -1.657816e+002 1.318753e+002 5.000000e+000
    endloop
  endfacet
  facet normal 7.818314e-001 6.234897e-001 -5.594361e-004
    outer loop
      vertex   -1.658727e+002 1.319940e+002 1.000000e+001
      vertex   -1.657816e+002 1.318753e+002 5.000000e+000
      vertex   -1.659681e+002 1.321091e+002 5.000000e+000
    endloop
  endfacet
  facet normal 7.330518e-001 6.801726e-001 -5.594361e-004
    outer loop
      vertex   -1.660678e+002 1.322207e+002 1.000000e+001
      vertex   -1.659681e+002 1.321091e+002 5.000000e+000
      vertex   -1.661716e+002 1.323284e+002 5.000000e+000
    endloop
  endfacet
  facet normal 6.801726e-001 7.330518e-001 -5.594361e-004
    outer loop
      vertex   -1.662793e+002 1.324322e+002 1.000000e+001
      vertex   -1.661716e+002 1.323284e+002 5.000000e+000
      vertex   -1.663909e+002 1.325319e+002 5.000000e+000
    endloop
  endfacet
  facet normal 6.234897e-001 7.818314e-001 -5.594361e-004
    outer loop
      vertex   -1.665060e+002 1.326273e+002 1.000000e+001
      vertex   -1.663909e+002 1.325319e+002 5.000000e+000
      vertex   -1.666247e+002 1.327184e+002 5.000000e+000
    endloop
  endfacet
  facet normal 5.633200e-001 8.262386e-001 -5.594361e-004
    outer loop
      vertex   -1.667467e+002 1.328050e+002 1.000000e+001
      vertex   -1.666247e+002 1.327184e+002 5.000000e+000
      vertex   -1.668719e+002 1.328869e+002 5.000000e+000
    endloop
  endfacet
  facet normal 4.999999e-001 8.660253e-001 -5.594361e-004
    outer loop
      vertex   -1.670000e+002 1.329641e+002 1.000000e+001
      vertex   -1.668719e+002 1.328869e+002 5.000000e+000
      vertex   -1.671309e+002 1.330365e+002 5.000000e+000
    endloop
  endfacet
  facet normal 4.338837e-001 9.009687e-001 -5.594361e-004
    outer loop
      vertex   -1.672645e+002 1.331039e+002 1.000000e+001
      vertex   -1.671309e+002 1.330365e+002 5.000000e+000
      vertex   -1.674004e+002 1.331662e+002 5.000000e+000
    endloop
  endfacet
  facet normal 3.653410e-001 9.308736e-001 -5.594361e-004
    outer loop
      vertex   -1.675386e+002 1.332235e+002 1.000000e+001
      vertex   -1.674004e+002 1.331662e+002 5.000000e+000
      vertex   -1.676789e+002 1.332755e+002 5.000000e+000
    endloop
  endfacet
  facet normal 2.947551e-001 9.555727e-001 -5.594361e-004
    outer loop
      vertex   -1.678210e+002 1.333223e+002 1.000000e+001
      vertex   -1.676789e+002 1.332755e+002 5.000000e+000
      vertex   -1.679647e+002 1.333637e+002 5.000000e+000
    endloop
  endfacet
  facet normal 2.225209e-001 9.749278e-001 -5.594361e-004
    outer loop
      vertex   -1.681099e+002 1.333997e+002 1.000000e+001
      vertex   -1.679647e+002 1.333637e+002 5.000000e+000
      vertex   -1.682564e+002 1.334303e+002 5.000000e+000
    endloop
  endfacet
  facet normal 1.490422e-001 9.888307e-001 -5.594361e-004
    outer loop
      vertex   -1.684038e+002 1.334553e+002 1.000000e+001
      vertex   -1.682564e+002 1.334303e+002 5.000000e+000
      vertex   -1.685521e+002 1.334748e+002 5.000000e+000
    endloop
  endfacet
  facet normal 7.473008e-002 9.972036e-001 -5.594361e-004
    outer loop
      vertex   -1.687011e+002 1.334888e+002 1.000000e+001
      vertex   -1.685521e+002 1.334748e+002 5.000000e+000
      vertex   -1.688504e+002 1.334972e+002 5.000000e+000
    endloop
  endfacet
  facet normal 1.869887e-002 9.998252e-001 0.000000e+000
    outer loop
      vertex   -1.690000e+002 1.335000e+002 1.000000e+001
      vertex   -1.688504e+002 1.334972e+002 5.000000e+000
      vertex   -1.690000e+002 1.335000e+002 0.000000e+000
    endloop
  endfacet
  facet normal 3.739119e-002 9.993005e-001 5.594361e-004
    outer loop
      vertex   -1.690000e+002 1.335000e+002 1.000000e+001
      vertex   -1.687011e+002 1.334888e+002 1.000000e+001
      vertex   -1.688504e+002 1.334972e+002 5.000000e+000
    endloop
  endfacet
  facet normal 9.937121e-001 1.119645e-001 -5.594361e-004
    outer loop
      vertex   -1.650447e+002 1.300962e+002 0.000000e+000
      vertex   -1.650252e+002 1.299479e+002 5.000000e+000
      vertex   -1.650112e+002 1.297989e+002 0.000000e+000
    endloop
  endfacet
  facet normal 9.888307e-001 1.490422e-001 5.594361e-004
    outer loop
      vertex   -1.650447e+002 1.300962e+002 0.000000e+000
      vertex   -1.650697e+002 1.302436e+002 5.000000e+000
      vertex   -1.650252e+002 1.299479e+002 5.000000e+000
    endloop
  endfacet
  facet normal 9.825663e-001 1.859116e-001 -5.594361e-004
    outer loop
      vertex   -1.650447e+002 1.300962e+002 0.000000e+000
      vertex   -1.651003e+002 1.303901e+002 0.000000e+000
      vertex   -1.650697e+002 1.302436e+002 5.000000e+000
    endloop
  endfacet
  facet normal 9.749278e-001 2.225209e-001 5.594361e-004
    outer loop
      vertex   -1.650697e+002 1.302436e+002 5.000000e+000
      vertex   -1.651003e+002 1.303901e+002 0.000000e+000
      vertex   -1.651363e+002 1.305353e+002 5.000000e+000
    endloop
  endfacet
  facet normal 9.659257e-001 2.588190e-001 -5.594361e-004
    outer loop
      vertex   -1.651363e+002 1.305353e+002 5.000000e+000
      vertex   -1.651003e+002 1.303901e+002 0.000000e+000
      vertex   -1.651777e+002 1.306790e+002 0.000000e+000
    endloop
  endfacet
  facet normal 9.438832e-001 3.302790e-001 -5.594361e-004
    outer loop
      vertex   -1.652245e+002 1.308211e+002 5.000000e+000
      vertex   -1.651777e+002 1.306790e+002 0.000000e+000
      vertex   -1.652765e+002 1.309614e+002 0.000000e+000
    endloop
  endfacet
  facet normal 9.165621e-001 3.998920e-001 -5.594361e-004
    outer loop
      vertex   -1.653338e+002 1.310996e+002 5.000000e+000
      vertex   -1.652765e+002 1.309614e+002 0.000000e+000
      vertex   -1.653961e+002 1.312355e+002 0.000000e+000
    endloop
  endfacet
  facet normal 8.841153e-001 4.672686e-001 -5.594361e-004
    outer loop
      vertex   -1.654635e+002 1.313691e+002 5.000000e+000
      vertex   -1.653961e+002 1.312355e+002 0.000000e+000
      vertex   -1.655359e+002 1.315000e+002 0.000000e+000
    endloop
  endfacet
  facet normal 8.467241e-001 5.320320e-001 -5.594361e-004
    outer loop
      vertex   -1.656131e+002 1.316281e+002 5.000000e+000
      vertex   -1.655359e+002 1.315000e+002 0.000000e+000
      vertex   -1.656950e+002 1.317533e+002 0.000000e+000
    endloop
  endfacet
  facet normal 8.045977e-001 5.938201e-001 -5.594361e-004
    outer loop
      vertex   -1.657816e+002 1.318753e+002 5.000000e+000
      vertex   -1.656950e+002 1.317533e+002 0.000000e+000
      vertex   -1.658727e+002 1.319940e+002 0.000000e+000
    endloop
  endfacet
  facet normal 7.579716e-001 6.522873e-001 -5.594361e-004
    outer loop
      vertex   -1.659681e+002 1.321091e+002 5.000000e+000
      vertex   -1.658727e+002 1.319940e+002 0.000000e+000
      vertex   -1.660678e+002 1.322207e+002 0.000000e+000
    endloop
  endfacet
  facet normal 7.071067e-001 7.071067e-001 -5.594361e-004
    outer loop
      vertex   -1.661716e+002 1.323284e+002 5.000000e+000
      vertex   -1.660678e+002 1.322207e+002 0.000000e+000
      vertex   -1.662793e+002 1.324322e+002 0.000000e+000
    endloop
  endfacet
  facet normal 6.522873e-001 7.579716e-001 -5.594361e-004
    outer loop
      vertex   -1.663909e+002 1.325319e+002 5.000000e+000
      vertex   -1.662793e+002 1.324322e+002 0.000000e+000
      vertex   -1.665060e+002 1.326273e+002 0.000000e+000
    endloop
  endfacet
  facet normal 5.938201e-001 8.045977e-001 -5.594361e-004
    outer loop
      vertex   -1.666247e+002 1.327184e+002 5.000000e+000
      vertex   -1.665060e+002 1.326273e+002 0.000000e+000
      vertex   -1.667467e+002 1.328050e+002 0.000000e+000
    endloop
  endfacet
  facet normal 5.320320e-001 8.467241e-001 -5.594361e-004
    outer loop
      vertex   -1.668719e+002 1.328869e+002 5.000000e+000
      vertex   -1.667467e+002 1.328050e+002 0.000000e+000
      vertex   -1.670000e+002 1.329641e+002 0.000000e+000
    endloop
  endfacet
  facet normal 4.672686e-001 8.841153e-001 -5.594361e-004
    outer loop
      vertex   -1.671309e+002 1.330365e+002 5.000000e+000
      vertex   -1.670000e+002 1.329641e+002 0.000000e+000
      vertex   -1.672645e+002 1.331039e+002 0.000000e+000
    endloop
  endfacet
  facet normal 3.998920e-001 9.165621e-001 -5.594361e-004
    outer loop
      vertex   -1.674004e+002 1.331662e+002 5.000000e+000
      vertex   -1.672645e+002 1.331039e+002 0.000000e+000
      vertex   -1.675386e+002 1.332235e+002 0.000000e+000
    endloop
  endfacet
  facet normal 3.302790e-001 9.438832e-001 -5.594361e-004
    outer loop
      vertex   -1.676789e+002 1.332755e+002 5.000000e+000
      vertex   -1.675386e+002 1.332235e+002 0.000000e+000
      vertex   -1.678210e+002 1.333223e+002 0.000000e+000
    endloop
  endfacet
  facet normal 2.588190e-001 9.659257e-001 -5.594361e-004
    outer loop
      vertex   -1.679647e+002 1.333637e+002 5.000000e+000
      vertex   -1.678210e+002 1.333223e+002 0.000000e+000
      vertex   -1.681099e+002 1.333997e+002 0.000000e+000
    endloop
  endfacet
  facet normal 1.859116e-001 9.825663e-001 -5.594361e-004
    outer loop
      vertex   -1.682564e+002 1.334303e+002 5.000000e+000
      vertex   -1.681099e+002 1.333997e+002 0.000000e+000
      vertex   -1.684038e+002 1.334553e+002 0.000000e+000
    endloop
  endfacet
  facet normal 1.119645e-001 9.937121e-001 -5.594361e-004
    outer loop
      vertex   -1.685521e+002 1.334748e+002 5.000000e+000
      vertex   -1.684038e+002 1.334553e+002 0.000000e+000
      vertex   -1.687011e+002 1.334888e+002 0.000000e+000
    endloop
  endfacet
  facet normal 3.739119e-002 9.993005e-001 -5.594361e-004
    outer loop
      vertex   -1.688504e+002 1.334972e+002 5.000000e+000
      vertex   -1.687011e+002 1.334888e+002 0.000000e+000
      vertex   -1.690000e+002 1.335000e+002 0.000000e+000
    endloop
  endfacet
  facet normal 7.473008e-002 9.972036e-001 5.594361e-004
    outer loop
      vertex   -1.688504e+002 1.334972e+002 5.000000e+000
      vertex   -1.685521e+002 1.334748e+002 5.000000e+000
      vertex   -1.687011e+002 1.334888e+002 0.000000e+000
    endloop
  endfacet
  facet normal 9.555727e-001 2.947551e-001 5.594361e-004
    outer loop
      vertex   -1.651363e+002 1.305353e+002 5.000000e+000
      vertex   -1.651777e+002 1.306790e+002 0.000000e+000
      vertex   -1.652245e+002 1.308211e+002 5.000000e+000
    endloop
  endfacet
  facet normal 9.308736e-001 3.653410e-001 5.594361e-004
    outer loop
      vertex   -1.652245e+002 1.308211e+002 5.000000e+000
      vertex   -1.652765e+002 1.309614e+002 0.000000e+000
      vertex   -1.653338e+002 1.310996e+002 5.000000e+000
    endloop
  endfacet
  facet normal 9.009687e-001 4.338837e-001 5.594361e-004
    outer loop
      vertex   -1.653338e+002 1.310996e+002 5.000000e+000
      vertex   -1.653961e+002 1.312355e+002 0.000000e+000
      vertex   -1.654635e+002 1.313691e+002 5.000000e+000
    endloop
  endfacet
  facet normal 8.660253e-001 4.999999e-001 5.594361e-004
    outer loop
      vertex   -1.654635e+002 1.313691e+002 5.000000e+000
      vertex   -1.655359e+002 1.315000e+002 0.000000e+000
      vertex   -1.656131e+002 1.316281e+002 5.000000e+000
    endloop
  endfacet
  facet normal 8.262386e-001 5.633200e-001 5.594361e-004
    outer loop
      vertex   -1.656131e+002 1.316281e+002 5.000000e+000
      vertex   -1.656950e+002 1.317533e+002 0.000000e+000
      vertex   -1.657816e+002 1.318753e+002 5.000000e+000
    endloop
  endfacet
  facet normal 7.818314e-001 6.234897e-001 5.594361e-004
    outer loop
      vertex   -1.657816e+002 1.318753e+002 5.000000e+000
      vertex   -1.658727e+002 1.319940e+002 0.000000e+000
      vertex   -1.659681e+002 1.321091e+002 5.000000e+000
    endloop
  endfacet
  facet normal 7.330518e-001 6.801726e-001 5.594361e-004
    outer loop
      vertex   -1.659681e+002 1.321091e+002 5.000000e+000
      vertex   -1.660678e+002 1.322207e+002 0.000000e+000
      vertex   -1.661716e+002 1.323284e+002 5.000000e+000
    endloop
  endfacet
  facet normal 6.801726e-001 7.330518e-001 5.594361e-004
    outer loop
      vertex   -1.661716e+002 1.323284e+002 5.000000e+000
      vertex   -1.662793e+002 1.324322e+002 0.000000e+000
      vertex   -1.663909e+002 1.325319e+002 5.000000e+000
    endloop
  endfacet
  facet normal 6.234897e-001 7.818314e-001 5.594361e-004
    outer loop
      vertex   -1.663909e+002 1.325319e+002 5.000000e+000
      vertex   -1.665060e+002 1.326273e+002 0.000000e+000
      vertex   -1.666247e+002 1.327184e+002 5.000000e+000
    endloop
  endfacet
  facet normal 5.633200e-001 8.262386e-001 5.594361e-004
    outer loop
      vertex   -1.666247e+002 1.327184e+002 5.000000e+000
      vertex   -1.667467e+002 1.328050e+002 0.000000e+000
      vertex   -1.668719e+002 1.328869e+002 5.000000e+000
    endloop
  endfacet
  facet normal 4.999999e-001 8.660253e-001 5.594361e-004
    outer loop
      vertex   -1.668719e+002 1.328869e+002 5.000000e+000
      vertex   -1.670000e+002 1.329641e+002 0.000000e+000
      vertex   -1.671309e+002 1.330365e+002 5.000000e+000
    endloop
  endfacet
  facet normal 4.338837e-001 9.009687e-001 5.594361e-004
    outer loop
      vertex   -1.671309e+002 1.330365e+002 5.000000e+000
      vertex   -1.672645e+002 1.331039e+002 0.000000e+000
      vertex   -1.674004e+002 1.331662e+002 5.000000e+000
    endloop
  endfacet
  facet normal 3.653410e-001 9.308736e-001 5.594361e-004
    outer loop
      vertex   -1.674004e+002 1.331662e+002 5.000000e+000
      vertex   -1.675386e+002 1.332235e+002 0.000000e+000
      vertex   -1.676789e+002 1.332755e+002 5.000000e+000
    endloop
  endfacet
  facet normal 2.947551e-001 9.555727e-001 5.594361e-004
    outer loop
      vertex   -1.676789e+002 1.332755e+002 5.000000e+000
      vertex   -1.678210e+002 1.333223e+002 0.000000e+000
      vertex   -1.679647e+002 1.333637e+002 5.000000e+000
    endloop
  endfacet
  facet normal 2.225209e-001 9.749278e-001 5.594361e-004
    outer loop
      vertex   -1.679647e+002 1.333637e+002 5.000000e+000
      vertex   -1.681099e+002 1.333997e+002 0.000000e+000
      vertex   -1.682564e+002 1.334303e+002 5.000000e+000
    endloop
  endfacet
  facet normal 1.490422e-001 9.888307e-001 5.594361e-004
    outer loop
      vertex   -1.682564e+002 1.334303e+002 5.000000e+000
      vertex   -1.684038e+002 1.334553e+002 0.000000e+000
      vertex   -1.685521e+002 1.334748e+002 5.000000e+000
    endloop
  endfacet
  facet normal 1.119645e-001 9.937121e-001 5.594361e-004
    outer loop
      vertex   -1.687011e+002 1.334888e+002 1.000000e+001
      vertex   -1.684038e+002 1.334553e+002 1.000000e+001
      vertex   -1.685521e+002 1.334748e+002 5.000000e+000
    endloop
  endfacet
  facet normal 1.859116e-001 9.825663e-001 5.594361e-004
    outer loop
      vertex   -1.684038e+002 1.334553e+002 1.000000e+001
      vertex   -1.681099e+002 1.333997e+002 1.000000e+001
      vertex   -1.682564e+002 1.334303e+002 5.000000e+000
    endloop
  endfacet
  facet normal 2.588190e-001 9.659257e-001 5.594361e-004
    outer loop
      vertex   -1.681099e+002 1.333997e+002 1.000000e+001
      vertex   -1.678210e+002 1.333223e+002 1.000000e+001
      vertex   -1.679647e+002 1.333637e+002 5.000000e+000
    endloop
  endfacet
  facet normal 3.302790e-001 9.438832e-001 5.594361e-004
    outer loop
      vertex   -1.678210e+002 1.333223e+002 1.000000e+001
      vertex   -1.675386e+002 1.332235e+002 1.000000e+001
      vertex   -1.676789e+002 1.332755e+002 5.000000e+000
    endloop
  endfacet
  facet normal 3.998920e-001 9.165621e-001 5.594361e-004
    outer loop
      vertex   -1.675386e+002 1.332235e+002 1.000000e+001
      vertex   -1.672645e+002 1.331039e+002 1.000000e+001
      vertex   -1.674004e+002 1.331662e+002 5.000000e+000
    endloop
  endfacet
  facet normal 4.672686e-001 8.841153e-001 5.594361e-004
    outer loop
      vertex   -1.672645e+002 1.331039e+002 1.000000e+001
      vertex   -1.670000e+002 1.329641e+002 1.000000e+001
      vertex   -1.671309e+002 1.330365e+002 5.000000e+000
    endloop
  endfacet
  facet normal 5.320320e-001 8.467241e-001 5.594361e-004
    outer loop
      vertex   -1.670000e+002 1.329641e+002 1.000000e+001
      vertex   -1.667467e+002 1.328050e+002 1.000000e+001
      vertex   -1.668719e+002 1.328869e+002 5.000000e+000
    endloop
  endfacet
  facet normal 5.938201e-001 8.045977e-001 5.594361e-004
    outer loop
      vertex   -1.667467e+002 1.328050e+002 1.000000e+001
      vertex   -1.665060e+002 1.326273e+002 1.000000e+001
      vertex   -1.666247e+002 1.327184e+002 5.000000e+000
    endloop
  endfacet
  facet normal 6.522873e-001 7.579716e-001 5.594361e-004
    outer loop
      vertex   -1.665060e+002 1.326273e+002 1.000000e+001
      vertex   -1.662793e+002 1.324322e+002 1.000000e+001
      vertex   -1.663909e+002 1.325319e+002 5.000000e+000
    endloop
  endfacet
  facet normal 7.071067e-001 7.071067e-001 5.594361e-004
    outer loop
      vertex   -1.662793e+002 1.324322e+002 1.000000e+001
      vertex   -1.660678e+002 1.322207e+002 1.000000e+001
      vertex   -1.661716e+002 1.323284e+002 5.000000e+000
    endloop
  endfacet
  facet normal 7.579716e-001 6.522873e-001 5.594361e-004
    outer loop
      vertex   -1.660678e+002 1.322207e+002 1.000000e+001
      vertex   -1.658727e+002 1.319940e+002 1.000000e+001
      vertex   -1.659681e+002 1.321091e+002 5.000000e+000
    endloop
  endfacet
  facet normal 8.045977e-001 5.938201e-001 5.594361e-004
    outer loop
      vertex   -1.658727e+002 1.319940e+002 1.000000e+001
      vertex   -1.656950e+002 1.317533e+002 1.000000e+001
      vertex   -1.657816e+002 1.318753e+002 5.000000e+000
    endloop
  endfacet
  facet normal 8.467241e-001 5.320320e-001 5.594361e-004
    outer loop
      vertex   -1.656950e+002 1.317533e+002 1.000000e+001
      vertex   -1.655359e+002 1.315000e+002 1.000000e+001
      vertex   -1.656131e+002 1.316281e+002 5.000000e+000
    endloop
  endfacet
  facet normal 8.841153e-001 4.672686e-001 5.594361e-004
    outer loop
      vertex   -1.655359e+002 1.315000e+002 1.000000e+001
      vertex   -1.653961e+002 1.312355e+002 1.000000e+001
      vertex   -1.654635e+002 1.313691e+002 5.000000e+000
    endloop
  endfacet
  facet normal 9.165621e-001 3.998920e-001 5.594361e-004
    outer loop
      vertex   -1.653961e+002 1.312355e+002 1.000000e+001
      vertex   -1.652765e+002 1.309614e+002 1.000000e+001
      vertex   -1.653338e+002 1.310996e+002 5.000000e+000
    endloop
  endfacet
  facet normal 9.438832e-001 3.302790e-001 5.594361e-004
    outer loop
      vertex   -1.652765e+002 1.309614e+002 1.000000e+001
      vertex   -1.651777e+002 1.306790e+002 1.000000e+001
      vertex   -1.652245e+002 1.308211e+002 5.000000e+000
    endloop
  endfacet
  facet normal 9.659257e-001 2.588190e-001 5.594361e-004
    outer loop
      vertex   -1.651777e+002 1.306790e+002 1.000000e+001
      vertex   -1.651003e+002 1.303901e+002 1.000000e+001
      vertex   -1.651363e+002 1.305353e+002 5.000000e+000
    endloop
  endfacet
  facet normal 9.825663e-001 1.859116e-001 5.594361e-004
    outer loop
      vertex   -1.651003e+002 1.303901e+002 1.000000e+001
      vertex   -1.650447e+002 1.300962e+002 1.000000e+001
      vertex   -1.650697e+002 1.302436e+002 5.000000e+000
    endloop
  endfacet
  facet normal 9.937121e-001 1.119645e-001 5.594361e-004
    outer loop
      vertex   -1.650447e+002 1.300962e+002 1.000000e+001
      vertex   -1.650112e+002 1.297989e+002 1.000000e+001
      vertex   -1.650252e+002 1.299479e+002 5.000000e+000
    endloop
  endfacet
  facet normal 9.993005e-001 3.739119e-002 5.594361e-004
    outer loop
      vertex   -1.650112e+002 1.297989e+002 1.000000e+001
      vertex   -1.650000e+002 1.295000e+002 1.000000e+001
      vertex   -1.650028e+002 1.296496e+002 5.000000e+000
    endloop
  endfacet
  facet normal 9.972036e-001 7.473008e-002 5.594361e-004
    outer loop
      vertex   -1.650112e+002 1.297989e+002 0.000000e+000
      vertex   -1.650252e+002 1.299479e+002 5.000000e+000
      vertex   -1.650028e+002 1.296496e+002 5.000000e+000
    endloop
  endfacet
  facet normal 9.993005e-001 3.739119e-002 -5.594361e-004
    outer loop
      vertex   -1.650000e+002 1.295000e+002 0.000000e+000
      vertex   -1.650112e+002 1.297989e+002 0.000000e+000
      vertex   -1.650028e+002 1.296496e+002 5.000000e+000
    endloop
  endfacet
  facet normal -0.000000e+000 -0.000000e+000 -1.000000e+000
    outer loop
      vertex   -1.687011e+002 1.334888e+002 0.000000e+000
      vertex   -1.650112e+002 1.297989e+002 0.000000e+000
      vertex   -1.690000e+002 1.335000e+002 0.000000e+000
    endloop
  endfacet
  facet normal 0.000000e+000 0.000000e+000 -1.000000e+000
    outer loop
      vertex   -1.687011e+002 1.334888e+002 0.000000e+000
      vertex   -1.684038e+002 1.334553e+002 0.000000e+000
      vertex   -1.650112e+002 1.297989e+002 0.000000e+000
    endloop
  endfacet
  facet normal 0.000000e+000 0.000000e+000 -1.000000e+000
    outer loop
      vertex   -1.650112e+002 1.297989e+002 0.000000e+000
      vertex   -1.684038e+002 1.334553e+002 0.000000e+000
      vertex   -1.681099e+002 1.333997e+002 0.000000e+000
    endloop
  endfacet
  facet normal -0.000000e+000 -0.000000e+000 -1.000000e+000
    outer loop
      vertex   -1.678210e+002 1.333223e+002 0.000000e+000
      vertex   -1.650112e+002 1.297989e+002 0.000000e+000
      vertex   -1.681099e+002 1.333997e+002 0.000000e+000
    endloop
  endfacet
  facet normal 0.000000e+000 0.000000e+000 -1.000000e+000
    outer loop
      vertex   -1.678210e+002 1.333223e+002 0.000000e+000
      vertex   -1.675386e+002 1.332235e+002 0.000000e+000
      vertex   -1.650112e+002 1.297989e+002 0.000000e+000
    endloop
  endfacet
  facet normal 0.000000e+000 0.000000e+000 -1.000000e+000
    outer loop
      vertex   -1.650112e+002 1.297989e+002 0.000000e+000
      vertex   -1.675386e+002 1.332235e+002 0.000000e+000
      vertex   -1.672645e+002 1.331039e+002 0.000000e+000
    endloop
  endfacet
  facet normal -0.000000e+000 -0.000000e+000 -1.000000e+000
    outer loop
      vertex   -1.670000e+002 1.329641e+002 0.000000e+000
      vertex   -1.650112e+002 1.297989e+002 0.000000e+000
      vertex   -1.672645e+002 1.331039e+002 0.000000e+000
    endloop
  endfacet
  facet normal 0.000000e+000 0.000000e+000 -1.000000e+000
    outer loop
      vertex   -1.670000e+002 1.329641e+002 0.000000e+000
      vertex   -1.667467e+002 1.328050e+002 0.000000e+000
      vertex   -1.650112e+002 1.297989e+002 0.000000e+000
    endloop
  endfacet
  facet normal 0.000000e+000 0.000000e+000 -1.000000e+000
    outer loop
      vertex   -1.650112e+002 1.297989e+002 0.000000e+000
      vertex   -1.667467e+002 1.328050e+002 0.000000e+000
      vertex   -1.665060e+002 1.326273e+002 0.000000e+000
    endloop
  endfacet
  facet normal -0.000000e+000 -0.000000e+000 -1.000000e+000
    outer loop
      vertex   -1.662793e+002 1.324322e+002 0.000000e+000
      vertex   -1.650112e+002 1.297989e+002 0.000000e+000
      vertex   -1.665060e+002 1.326273e+002 0.000000e+000
    endloop
  endfacet
  facet normal 0.000000e+000 0.000000e+000 -1.000000e+000
    outer loop
      vertex   -1.662793e+002 1.324322e+002 0.000000e+000
      vertex   -1.660678e+002 1.322207e+002 0.000000e+000
      vertex   -1.650112e+002 1.297989e+002 0.000000e+000
    endloop
  endfacet
  facet normal 0.000000e+000 0.000000e+000 -1.000000e+000
    outer loop
      vertex   -1.650112e+002 1.297989e+002 0.000000e+000
      vertex   -1.660678e+002 1.322207e+002 0.000000e+000
      vertex   -1.658727e+002 1.319940e+002 0.000000e+000
    endloop
  endfacet
  facet normal -0.000000e+000 -0.000000e+000 -1.000000e+000
    outer loop
      vertex   -1.656950e+002 1.317533e+002 0.000000e+000
      vertex   -1.650112e+002 1.297989e+002 0.000000e+000
      vertex   -1.658727e+002 1.319940e+002 0.000000e+000
    endloop
  endfacet
  facet normal 0.000000e+000 0.000000e+000 -1.000000e+000
    outer loop
      vertex   -1.656950e+002 1.317533e+002 0.000000e+000
      vertex   -1.655359e+002 1.315000e+002 0.000000e+000
      vertex   -1.650112e+002 1.297989e+002 0.000000e+000
    endloop
  endfacet
  facet normal 0.000000e+000 0.000000e+000 -1.000000e+000
    outer loop
      vertex   -1.650112e+002 1.297989e+002 0.000000e+000
      vertex   -1.655359e+002 1.315000e+002 0.000000e+000
      vertex   -1.653961e+002 1.312355e+002 0.000000e+000
    endloop
  endfacet
  facet normal -0.000000e+000 -0.000000e+000 -1.000000e+000
    outer loop
      vertex   -1.652765e+002 1.309614e+002 0.000000e+000
      vertex   -1.650112e+002 1.297989e+002 0.000000e+000
      vertex   -1.653961e+002 1.312355e+002 0.000000e+000
    endloop
  endfacet
  facet normal 0.000000e+000 0.000000e+000 -1.000000e+000
    outer loop
      vertex   -1.652765e+002 1.309614e+002 0.000000e+000
      vertex   -1.651777e+002 1.306790e+002 0.000000e+000
      vertex   -1.650112e+002 1.297989e+002 0.000000e+000
    endloop
  endfacet
  facet normal 0.000000e+000 0.000000e+000 -1.000000e+000
    outer loop
      vertex   -1.650112e+002 1.297989e+002 0.000000e+000
      vertex   -1.651777e+002 1.306790e+002 0.000000e+000
      vertex   -1.651003e+002 1.303901e+002 0.000000e+000
    endloop
  endfacet
  facet normal -0.000000e+000 -0.000000e+000 -1.000000e+000
    outer loop
      vertex   -1.650447e+002 1.300962e+002 0.000000e+000
      vertex   -1.650112e+002 1.297989e+002 0.000000e+000
      vertex   -1.651003e+002 1.303901e+002 0.000000e+000
    endloop
  endfacet
  facet normal 0.000000e+000 -0.000000e+000 -1.000000e+000
    outer loop
      vertex   -1.690000e+002 1.335000e+002 0.000000e+000
      vertex   -1.650112e+002 1.297989e+002 0.000000e+000
      vertex   -2.020000e+002 7.850000e+001 0.000000e+000
    endloop
  endfacet
  facet normal -0.000000e+000 -0.000000e+000 -1.000000e+000
    outer loop
      vertex   -2.020000e+002 1.335000e+002 0.000000e+000
      vertex   -2.020000e+002 7.850000e+001 0.000000e+000
      vertex   -2.350000e+002 7.850000e+001 0.000000e+000
    endloop
  endfacet
  facet normal 0.000000e+000 -0.000000e+000 -1.000000e+000
    outer loop
      vertex   -2.350000e+002 1.335000e+002 0.000000e+000
      vertex   -2.020000e+002 1.335000e+002 0.000000e+000
      vertex   -2.350000e+002 7.850000e+001 0.000000e+000
    endloop
  endfacet
  facet normal 0.000000e+000 -0.000000e+000 -1.000000e+000
    outer loop
      vertex   -1.650112e+002 1.297989e+002 0.000000e+000
      vertex   -1.650000e+002 1.295000e+002 0.000000e+000
      vertex   -2.020000e+002 7.850000e+001 0.000000e+000
    endloop
  endfacet
  facet normal 0.000000e+000 0.000000e+000 -1.000000e+000
    outer loop
      vertex   -2.020000e+002 7.850000e+001 0.000000e+000
      vertex   -1.650000e+002 1.295000e+002 0.000000e+000
      vertex   -1.650000e+002 8.250000e+001 0.000000e+000
    endloop
  endfacet
  facet normal -0.000000e+000 0.000000e+000 -1.000000e+000
    outer loop
      vertex   -1.650112e+002 8.220108e+001 0.000000e+000
      vertex   -2.020000e+002 7.850000e+001 0.000000e+000
      vertex   -1.650000e+002 8.250000e+001 0.000000e+000
    endloop
  endfacet
  facet normal 0.000000e+000 0.000000e+000 -1.000000e+000
    outer loop
      vertex   -1.650112e+002 8.220108e+001 0.000000e+000
      vertex   -1.650447e+002 8.190383e+001 0.000000e+000
      vertex   -2.020000e+002 7.850000e+001 0.000000e+000
    endloop
  endfacet
  facet normal 0.000000e+000 -0.000000e+000 -1.000000e+000
    outer loop
      vertex   -2.020000e+002 7.850000e+001 0.000000e+000
      vertex   -1.650447e+002 8.190383e+001 0.000000e+000
      vertex   -1.651003e+002 8.160992e+001 0.000000e+000
    endloop
  endfacet
  facet normal -0.000000e+000 0.000000e+000 -1.000000e+000
    outer loop
      vertex   -1.651777e+002 8.132098e+001 0.000000e+000
      vertex   -2.020000e+002 7.850000e+001 0.000000e+000
      vertex   -1.651003e+002 8.160992e+001 0.000000e+000
    endloop
  endfacet
  facet normal 0.000000e+000 0.000000e+000 -1.000000e+000
    outer loop
      vertex   -1.651777e+002 8.132098e+001 0.000000e+000
      vertex   -1.652765e+002 8.103864e+001 0.000000e+000
      vertex   -2.020000e+002 7.850000e+001 0.000000e+000
    endloop
  endfacet
  facet normal 0.000000e+000 -0.000000e+000 -1.000000e+000
    outer loop
      vertex   -2.020000e+002 7.850000e+001 0.000000e+000
      vertex   -1.652765e+002 8.103864e+001 0.000000e+000
      vertex   -1.653961e+002 8.076447e+001 0.000000e+000
    endloop
  endfacet
  facet normal -0.000000e+000 0.000000e+000 -1.000000e+000
    outer loop
      vertex   -1.655359e+002 8.050000e+001 0.000000e+000
      vertex   -2.020000e+002 7.850000e+001 0.000000e+000
      vertex   -1.653961e+002 8.076447e+001 0.000000e+000
    endloop
  endfacet
  facet normal 0.000000e+000 0.000000e+000 -1.000000e+000
    outer loop
      vertex   -1.655359e+002 8.050000e+001 0.000000e+000
      vertex   -1.656950e+002 8.024672e+001 0.000000e+000
      vertex   -2.020000e+002 7.850000e+001 0.000000e+000
    endloop
  endfacet
  facet normal 0.000000e+000 -0.000000e+000 -1.000000e+000
    outer loop
      vertex   -2.020000e+002 7.850000e+001 0.000000e+000
      vertex   -1.656950e+002 8.024672e+001 0.000000e+000
      vertex   -1.658727e+002 8.000604e+001 0.000000e+000
    endloop
  endfacet
  facet normal -0.000000e+000 0.000000e+000 -1.000000e+000
    outer loop
      vertex   -1.660678e+002 7.977931e+001 0.000000e+000
      vertex   -2.020000e+002 7.850000e+001 0.000000e+000
      vertex   -1.658727e+002 8.000604e+001 0.000000e+000
    endloop
  endfacet
  facet normal 0.000000e+000 0.000000e+000 -1.000000e+000
    outer loop
      vertex   -1.660678e+002 7.977931e+001 0.000000e+000
      vertex   -1.662793e+002 7.956779e+001 0.000000e+000
      vertex   -2.020000e+002 7.850000e+001 0.000000e+000
    endloop
  endfacet
  facet normal 0.000000e+000 -0.000000e+000 -1.000000e+000
    outer loop
      vertex   -2.020000e+002 7.850000e+001 0.000000e+000
      vertex   -1.662793e+002 7.956779e+001 0.000000e+000
      vertex   -1.665060e+002 7.937267e+001 0.000000e+000
    endloop
  endfacet
  facet normal -0.000000e+000 0.000000e+000 -1.000000e+000
    outer loop
      vertex   -1.667467e+002 7.919504e+001 0.000000e+000
      vertex   -2.020000e+002 7.850000e+001 0.000000e+000
      vertex   -1.665060e+002 7.937267e+001 0.000000e+000
    endloop
  endfacet
  facet normal 0.000000e+000 0.000000e+000 -1.000000e+000
    outer loop
      vertex   -1.667467e+002 7.919504e+001 0.000000e+000
      vertex   -1.670000e+002 7.903590e+001 0.000000e+000
      vertex   -2.020000e+002 7.850000e+001 0.000000e+000
    endloop
  endfacet
  facet normal 0.000000e+000 -0.000000e+000 -1.000000e+000
    outer loop
      vertex   -2.020000e+002 7.850000e+001 0.000000e+000
      vertex   -1.670000e+002 7.903590e+001 0.000000e+000
      vertex   -1.672645e+002 7.889612e+001 0.000000e+000
    endloop
  endfacet
  facet normal -0.000000e+000 0.000000e+000 -1.000000e+000
    outer loop
      vertex   -1.675386e+002 7.877651e+001 0.000000e+000
      vertex   -2.020000e+002 7.850000e+001 0.000000e+000
      vertex   -1.672645e+002 7.889612e+001 0.000000e+000
    endloop
  endfacet
  facet normal 0.000000e+000 0.000000e+000 -1.000000e+000
    outer loop
      vertex   -1.675386e+002 7.877651e+001 0.000000e+000
      vertex   -1.678210e+002 7.867771e+001 0.000000e+000
      vertex   -2.020000e+002 7.850000e+001 0.000000e+000
    endloop
  endfacet
  facet normal 0.000000e+000 -0.000000e+000 -1.000000e+000
    outer loop
      vertex   -2.020000e+002 7.850000e+001 0.000000e+000
      vertex   -1.678210e+002 7.867771e+001 0.000000e+000
      vertex   -1.681099e+002 7.860029e+001 0.000000e+000
    endloop
  endfacet
  facet normal -0.000000e+000 0.000000e+000 -1.000000e+000
    outer loop
      vertex   -1.684038e+002 7.854468e+001 0.000000e+000
      vertex   -2.020000e+002 7.850000e+001 0.000000e+000
      vertex   -1.681099e+002 7.860029e+001 0.000000e+000
    endloop
  endfacet
  facet normal 0.000000e+000 0.000000e+000 -1.000000e+000
    outer loop
      vertex   -1.684038e+002 7.854468e+001 0.000000e+000
      vertex   -1.687011e+002 7.851118e+001 0.000000e+000
      vertex   -2.020000e+002 7.850000e+001 0.000000e+000
    endloop
  endfacet
  facet normal 0.000000e+000 -0.000000e+000 -1.000000e+000
    outer loop
      vertex   -2.020000e+002 7.850000e+001 0.000000e+000
      vertex   -1.687011e+002 7.851118e+001 0.000000e+000
      vertex   -1.690000e+002 7.850000e+001 0.000000e+000
    endloop
  endfacet
  facet normal -0.000000e+000 0.000000e+000 -1.000000e+000
    outer loop
      vertex   -1.690000e+002 1.335000e+002 0.000000e+000
      vertex   -2.020000e+002 7.850000e+001 0.000000e+000
      vertex   -2.020000e+002 1.335000e+002 0.000000e+000
    endloop
  endfacet
  facet normal 1.000000e+000 0.000000e+000 -0.000000e+000
    outer loop
      vertex   -1.650000e+002 1.295000e+002 0.000000e+000
      vertex   -1.650000e+002 1.295000e+002 1.000000e+001
      vertex   -1.650000e+002 8.250000e+001 0.000000e+000
    endloop
  endfacet
  facet normal 1.000000e+000 0.000000e+000 -0.000000e+000
    outer loop
      vertex   -1.650000e+002 8.250000e+001 0.000000e+000
      vertex   -1.650000e+002 1.295000e+002 1.000000e+001
      vertex   -1.650000e+002 8.250000e+001 1.000000e+001
    endloop
  endfacet
  facet normal 1.869887e-002 -9.998252e-001 0.000000e+000
    outer loop
      vertex   -1.690000e+002 7.850000e+001 1.000000e+001
      vertex   -1.690000e+002 7.850000e+001 0.000000e+000
      vertex   -1.688504e+002 7.850280e+001 5.000000e+000
    endloop
  endfacet
  facet normal 7.473008e-002 -9.972036e-001 -5.594361e-004
    outer loop
      vertex   -1.687011e+002 7.851118e+001 1.000000e+001
      vertex   -1.688504e+002 7.850280e+001 5.000000e+000
      vertex   -1.685521e+002 7.852515e+001 5.000000e+000
    endloop
  endfacet
  facet normal 1.490422e-001 -9.888307e-001 -5.594361e-004
    outer loop
      vertex   -1.684038e+002 7.854468e+001 1.000000e+001
      vertex   -1.685521e+002 7.852515e+001 5.000000e+000
      vertex   -1.682564e+002 7.856973e+001 5.000000e+000
    endloop
  endfacet
  facet normal 2.225209e-001 -9.749278e-001 -5.594361e-004
    outer loop
      vertex   -1.681099e+002 7.860029e+001 1.000000e+001
      vertex   -1.682564e+002 7.856973e+001 5.000000e+000
      vertex   -1.679647e+002 7.863630e+001 5.000000e+000
    endloop
  endfacet
  facet normal 2.947551e-001 -9.555727e-001 -5.594361e-004
    outer loop
      vertex   -1.678210e+002 7.867771e+001 1.000000e+001
      vertex   -1.679647e+002 7.863630e+001 5.000000e+000
      vertex   -1.676789e+002 7.872447e+001 5.000000e+000
    endloop
  endfacet
  facet normal 3.653410e-001 -9.308736e-001 -5.594361e-004
    outer loop
      vertex   -1.675386e+002 7.877651e+001 1.000000e+001
      vertex   -1.676789e+002 7.872447e+001 5.000000e+000
      vertex   -1.674004e+002 7.883375e+001 5.000000e+000
    endloop
  endfacet
  facet normal 4.338837e-001 -9.009687e-001 -5.594361e-004
    outer loop
      vertex   -1.672645e+002 7.889612e+001 1.000000e+001
      vertex   -1.674004e+002 7.883375e+001 5.000000e+000
      vertex   -1.671309e+002 7.896354e+001 5.000000e+000
    endloop
  endfacet
  facet normal 4.999999e-001 -8.660253e-001 -5.594361e-004
    outer loop
      vertex   -1.670000e+002 7.903590e+001 1.000000e+001
      vertex   -1.671309e+002 7.896354e+001 5.000000e+000
      vertex   -1.668719e+002 7.911310e+001 5.000000e+000
    endloop
  endfacet
  facet normal 5.633200e-001 -8.262386e-001 -5.594361e-004
    outer loop
      vertex   -1.667467e+002 7.919504e+001 1.000000e+001
      vertex   -1.668719e+002 7.911310e+001 5.000000e+000
      vertex   -1.666247e+002 7.928161e+001 5.000000e+000
    endloop
  endfacet
  facet normal 6.234897e-001 -7.818314e-001 -5.594361e-004
    outer loop
      vertex   -1.665060e+002 7.937267e+001 1.000000e+001
      vertex   -1.666247e+002 7.928161e+001 5.000000e+000
      vertex   -1.663909e+002 7.946811e+001 5.000000e+000
    endloop
  endfacet
  facet normal 6.801726e-001 -7.330518e-001 -5.594361e-004
    outer loop
      vertex   -1.662793e+002 7.956779e+001 1.000000e+001
      vertex   -1.663909e+002 7.946811e+001 5.000000e+000
      vertex   -1.661716e+002 7.967157e+001 5.000000e+000
    endloop
  endfacet
  facet normal 7.330518e-001 -6.801726e-001 -5.594361e-004
    outer loop
      vertex   -1.660678e+002 7.977931e+001 1.000000e+001
      vertex   -1.661716e+002 7.967157e+001 5.000000e+000
      vertex   -1.659681e+002 7.989085e+001 5.000000e+000
    endloop
  endfacet
  facet normal 7.818314e-001 -6.234897e-001 -5.594361e-004
    outer loop
      vertex   -1.658727e+002 8.000604e+001 1.000000e+001
      vertex   -1.659681e+002 7.989085e+001 5.000000e+000
      vertex   -1.657816e+002 8.012472e+001 5.000000e+000
    endloop
  endfacet
  facet normal 8.262386e-001 -5.633200e-001 -5.594361e-004
    outer loop
      vertex   -1.656950e+002 8.024672e+001 1.000000e+001
      vertex   -1.657816e+002 8.012472e+001 5.000000e+000
      vertex   -1.656131e+002 8.037187e+001 5.000000e+000
    endloop
  endfacet
  facet normal 8.660253e-001 -4.999999e-001 -5.594361e-004
    outer loop
      vertex   -1.655359e+002 8.050000e+001 1.000000e+001
      vertex   -1.656131e+002 8.037187e+001 5.000000e+000
      vertex   -1.654635e+002 8.063093e+001 5.000000e+000
    endloop
  endfacet
  facet normal 9.009687e-001 -4.338837e-001 -5.594361e-004
    outer loop
      vertex   -1.653961e+002 8.076447e+001 1.000000e+001
      vertex   -1.654635e+002 8.063093e+001 5.000000e+000
      vertex   -1.653338e+002 8.090043e+001 5.000000e+000
    endloop
  endfacet
  facet normal 9.308736e-001 -3.653410e-001 -5.594361e-004
    outer loop
      vertex   -1.652765e+002 8.103864e+001 1.000000e+001
      vertex   -1.653338e+002 8.090043e+001 5.000000e+000
      vertex   -1.652245e+002 8.117888e+001 5.000000e+000
    endloop
  endfacet
  facet normal 9.555727e-001 -2.947551e-001 -5.594361e-004
    outer loop
      vertex   -1.651777e+002 8.132098e+001 1.000000e+001
      vertex   -1.652245e+002 8.117888e+001 5.000000e+000
      vertex   -1.651363e+002 8.146472e+001 5.000000e+000
    endloop
  endfacet
  facet normal 9.749278e-001 -2.225209e-001 -5.594361e-004
    outer loop
      vertex   -1.651003e+002 8.160992e+001 1.000000e+001
      vertex   -1.651363e+002 8.146472e+001 5.000000e+000
      vertex   -1.650697e+002 8.175635e+001 5.000000e+000
    endloop
  endfacet
  facet normal 9.888307e-001 -1.490422e-001 -5.594361e-004
    outer loop
      vertex   -1.650447e+002 8.190383e+001 1.000000e+001
      vertex   -1.650697e+002 8.175635e+001 5.000000e+000
      vertex   -1.650252e+002 8.205214e+001 5.000000e+000
    endloop
  endfacet
  facet normal 9.972036e-001 -7.473008e-002 -5.594361e-004
    outer loop
      vertex   -1.650112e+002 8.220108e+001 1.000000e+001
      vertex   -1.650252e+002 8.205214e+001 5.000000e+000
      vertex   -1.650028e+002 8.235044e+001 5.000000e+000
    endloop
  endfacet
  facet normal 9.998252e-001 -1.869887e-002 0.000000e+000
    outer loop
      vertex   -1.650000e+002 8.250000e+001 1.000000e+001
      vertex   -1.650028e+002 8.235044e+001 5.000000e+000
      vertex   -1.650000e+002 8.250000e+001 0.000000e+000
    endloop
  endfacet
  facet normal 9.993005e-001 -3.739119e-002 5.594361e-004
    outer loop
      vertex   -1.650000e+002 8.250000e+001 1.000000e+001
      vertex   -1.650112e+002 8.220108e+001 1.000000e+001
      vertex   -1.650028e+002 8.235044e+001 5.000000e+000
    endloop
  endfacet
  facet normal 1.119645e-001 -9.937121e-001 -5.594361e-004
    outer loop
      vertex   -1.684038e+002 7.854468e+001 0.000000e+000
      vertex   -1.685521e+002 7.852515e+001 5.000000e+000
      vertex   -1.687011e+002 7.851118e+001 0.000000e+000
    endloop
  endfacet
  facet normal 1.490422e-001 -9.888307e-001 5.594361e-004
    outer loop
      vertex   -1.684038e+002 7.854468e+001 0.000000e+000
      vertex   -1.682564e+002 7.856973e+001 5.000000e+000
      vertex   -1.685521e+002 7.852515e+001 5.000000e+000
    endloop
  endfacet
  facet normal 1.859116e-001 -9.825663e-001 -5.594361e-004
    outer loop
      vertex   -1.684038e+002 7.854468e+001 0.000000e+000
      vertex   -1.681099e+002 7.860029e+001 0.000000e+000
      vertex   -1.682564e+002 7.856973e+001 5.000000e+000
    endloop
  endfacet
  facet normal 2.225209e-001 -9.749278e-001 5.594361e-004
    outer loop
      vertex   -1.682564e+002 7.856973e+001 5.000000e+000
      vertex   -1.681099e+002 7.860029e+001 0.000000e+000
      vertex   -1.679647e+002 7.863630e+001 5.000000e+000
    endloop
  endfacet
  facet normal 2.588190e-001 -9.659257e-001 -5.594361e-004
    outer loop
      vertex   -1.679647e+002 7.863630e+001 5.000000e+000
      vertex   -1.681099e+002 7.860029e+001 0.000000e+000
      vertex   -1.678210e+002 7.867771e+001 0.000000e+000
    endloop
  endfacet
  facet normal 3.302790e-001 -9.438832e-001 -5.594361e-004
    outer loop
      vertex   -1.676789e+002 7.872447e+001 5.000000e+000
      vertex   -1.678210e+002 7.867771e+001 0.000000e+000
      vertex   -1.675386e+002 7.877651e+001 0.000000e+000
    endloop
  endfacet
  facet normal 3.998920e-001 -9.165621e-001 -5.594361e-004
    outer loop
      vertex   -1.674004e+002 7.883375e+001 5.000000e+000
      vertex   -1.675386e+002 7.877651e+001 0.000000e+000
      vertex   -1.672645e+002 7.889612e+001 0.000000e+000
    endloop
  endfacet
  facet normal 4.672686e-001 -8.841153e-001 -5.594361e-004
    outer loop
      vertex   -1.671309e+002 7.896354e+001 5.000000e+000
      vertex   -1.672645e+002 7.889612e+001 0.000000e+000
      vertex   -1.670000e+002 7.903590e+001 0.000000e+000
    endloop
  endfacet
  facet normal 5.320320e-001 -8.467241e-001 -5.594361e-004
    outer loop
      vertex   -1.668719e+002 7.911310e+001 5.000000e+000
      vertex   -1.670000e+002 7.903590e+001 0.000000e+000
      vertex   -1.667467e+002 7.919504e+001 0.000000e+000
    endloop
  endfacet
  facet normal 5.938201e-001 -8.045977e-001 -5.594361e-004
    outer loop
      vertex   -1.666247e+002 7.928161e+001 5.000000e+000
      vertex   -1.667467e+002 7.919504e+001 0.000000e+000
      vertex   -1.665060e+002 7.937267e+001 0.000000e+000
    endloop
  endfacet
  facet normal 6.522873e-001 -7.579716e-001 -5.594361e-004
    outer loop
      vertex   -1.663909e+002 7.946811e+001 5.000000e+000
      vertex   -1.665060e+002 7.937267e+001 0.000000e+000
      vertex   -1.662793e+002 7.956779e+001 0.000000e+000
    endloop
  endfacet
  facet normal 7.071067e-001 -7.071067e-001 -5.594361e-004
    outer loop
      vertex   -1.661716e+002 7.967157e+001 5.000000e+000
      vertex   -1.662793e+002 7.956779e+001 0.000000e+000
      vertex   -1.660678e+002 7.977931e+001 0.000000e+000
    endloop
  endfacet
  facet normal 7.579716e-001 -6.522873e-001 -5.594361e-004
    outer loop
      vertex   -1.659681e+002 7.989085e+001 5.000000e+000
      vertex   -1.660678e+002 7.977931e+001 0.000000e+000
      vertex   -1.658727e+002 8.000604e+001 0.000000e+000
    endloop
  endfacet
  facet normal 8.045977e-001 -5.938201e-001 -5.594361e-004
    outer loop
      vertex   -1.657816e+002 8.012472e+001 5.000000e+000
      vertex   -1.658727e+002 8.000604e+001 0.000000e+000
      vertex   -1.656950e+002 8.024672e+001 0.000000e+000
    endloop
  endfacet
  facet normal 8.467241e-001 -5.320320e-001 -5.594361e-004
    outer loop
      vertex   -1.656131e+002 8.037187e+001 5.000000e+000
      vertex   -1.656950e+002 8.024672e+001 0.000000e+000
      vertex   -1.655359e+002 8.050000e+001 0.000000e+000
    endloop
  endfacet
  facet normal 8.841153e-001 -4.672686e-001 -5.594361e-004
    outer loop
      vertex   -1.654635e+002 8.063093e+001 5.000000e+000
      vertex   -1.655359e+002 8.050000e+001 0.000000e+000
      vertex   -1.653961e+002 8.076447e+001 0.000000e+000
    endloop
  endfacet
  facet normal 9.165621e-001 -3.998920e-001 -5.594361e-004
    outer loop
      vertex   -1.653338e+002 8.090043e+001 5.000000e+000
      vertex   -1.653961e+002 8.076447e+001 0.000000e+000
      vertex   -1.652765e+002 8.103864e+001 0.000000e+000
    endloop
  endfacet
  facet normal 9.438832e-001 -3.302790e-001 -5.594361e-004
    outer loop
      vertex   -1.652245e+002 8.117888e+001 5.000000e+000
      vertex   -1.652765e+002 8.103864e+001 0.000000e+000
      vertex   -1.651777e+002 8.132098e+001 0.000000e+000
    endloop
  endfacet
  facet normal 9.659257e-001 -2.588190e-001 -5.594361e-004
    outer loop
      vertex   -1.651363e+002 8.146472e+001 5.000000e+000
      vertex   -1.651777e+002 8.132098e+001 0.000000e+000
      vertex   -1.651003e+002 8.160992e+001 0.000000e+000
    endloop
  endfacet
  facet normal 9.825663e-001 -1.859116e-001 -5.594361e-004
    outer loop
      vertex   -1.650697e+002 8.175635e+001 5.000000e+000
      vertex   -1.651003e+002 8.160992e+001 0.000000e+000
      vertex   -1.650447e+002 8.190383e+001 0.000000e+000
    endloop
  endfacet
  facet normal 9.937121e-001 -1.119645e-001 -5.594361e-004
    outer loop
      vertex   -1.650252e+002 8.205214e+001 5.000000e+000
      vertex   -1.650447e+002 8.190383e+001 0.000000e+000
      vertex   -1.650112e+002 8.220108e+001 0.000000e+000
    endloop
  endfacet
  facet normal 9.993005e-001 -3.739119e-002 -5.594361e-004
    outer loop
      vertex   -1.650028e+002 8.235044e+001 5.000000e+000
      vertex   -1.650112e+002 8.220108e+001 0.000000e+000
      vertex   -1.650000e+002 8.250000e+001 0.000000e+000
    endloop
  endfacet
  facet normal 9.972036e-001 -7.473008e-002 5.594361e-004
    outer loop
      vertex   -1.650028e+002 8.235044e+001 5.000000e+000
      vertex   -1.650252e+002 8.205214e+001 5.000000e+000
      vertex   -1.650112e+002 8.220108e+001 0.000000e+000
    endloop
  endfacet
  facet normal 2.947551e-001 -9.555727e-001 5.594361e-004
    outer loop
      vertex   -1.679647e+002 7.863630e+001 5.000000e+000
      vertex   -1.678210e+002 7.867771e+001 0.000000e+000
      vertex   -1.676789e+002 7.872447e+001 5.000000e+000
    endloop
  endfacet
  facet normal 3.653410e-001 -9.308736e-001 5.594361e-004
    outer loop
      vertex   -1.676789e+002 7.872447e+001 5.000000e+000
      vertex   -1.675386e+002 7.877651e+001 0.000000e+000
      vertex   -1.674004e+002 7.883375e+001 5.000000e+000
    endloop
  endfacet
  facet normal 4.338837e-001 -9.009687e-001 5.594361e-004
    outer loop
      vertex   -1.674004e+002 7.883375e+001 5.000000e+000
      vertex   -1.672645e+002 7.889612e+001 0.000000e+000
      vertex   -1.671309e+002 7.896354e+001 5.000000e+000
    endloop
  endfacet
  facet normal 4.999999e-001 -8.660253e-001 5.594361e-004
    outer loop
      vertex   -1.671309e+002 7.896354e+001 5.000000e+000
      vertex   -1.670000e+002 7.903590e+001 0.000000e+000
      vertex   -1.668719e+002 7.911310e+001 5.000000e+000
    endloop
  endfacet
  facet normal 5.633200e-001 -8.262386e-001 5.594361e-004
    outer loop
      vertex   -1.668719e+002 7.911310e+001 5.000000e+000
      vertex   -1.667467e+002 7.919504e+001 0.000000e+000
      vertex   -1.666247e+002 7.928161e+001 5.000000e+000
    endloop
  endfacet
  facet normal 6.234897e-001 -7.818314e-001 5.594361e-004
    outer loop
      vertex   -1.666247e+002 7.928161e+001 5.000000e+000
      vertex   -1.665060e+002 7.937267e+001 0.000000e+000
      vertex   -1.663909e+002 7.946811e+001 5.000000e+000
    endloop
  endfacet
  facet normal 6.801726e-001 -7.330518e-001 5.594361e-004
    outer loop
      vertex   -1.663909e+002 7.946811e+001 5.000000e+000
      vertex   -1.662793e+002 7.956779e+001 0.000000e+000
      vertex   -1.661716e+002 7.967157e+001 5.000000e+000
    endloop
  endfacet
  facet normal 7.330518e-001 -6.801726e-001 5.594361e-004
    outer loop
      vertex   -1.661716e+002 7.967157e+001 5.000000e+000
      vertex   -1.660678e+002 7.977931e+001 0.000000e+000
      vertex   -1.659681e+002 7.989085e+001 5.000000e+000
    endloop
  endfacet
  facet normal 7.818314e-001 -6.234897e-001 5.594361e-004
    outer loop
      vertex   -1.659681e+002 7.989085e+001 5.000000e+000
      vertex   -1.658727e+002 8.000604e+001 0.000000e+000
      vertex   -1.657816e+002 8.012472e+001 5.000000e+000
    endloop
  endfacet
  facet normal 8.262386e-001 -5.633200e-001 5.594361e-004
    outer loop
      vertex   -1.657816e+002 8.012472e+001 5.000000e+000
      vertex   -1.656950e+002 8.024672e+001 0.000000e+000
      vertex   -1.656131e+002 8.037187e+001 5.000000e+000
    endloop
  endfacet
  facet normal 8.660253e-001 -4.999999e-001 5.594361e-004
    outer loop
      vertex   -1.656131e+002 8.037187e+001 5.000000e+000
      vertex   -1.655359e+002 8.050000e+001 0.000000e+000
      vertex   -1.654635e+002 8.063093e+001 5.000000e+000
    endloop
  endfacet
  facet normal 9.009687e-001 -4.338837e-001 5.594361e-004
    outer loop
      vertex   -1.654635e+002 8.063093e+001 5.000000e+000
      vertex   -1.653961e+002 8.076447e+001 0.000000e+000
      vertex   -1.653338e+002 8.090043e+001 5.000000e+000
    endloop
  endfacet
  facet normal 9.308736e-001 -3.653410e-001 5.594361e-004
    outer loop
      vertex   -1.653338e+002 8.090043e+001 5.000000e+000
      vertex   -1.652765e+002 8.103864e+001 0.000000e+000
      vertex   -1.652245e+002 8.117888e+001 5.000000e+000
    endloop
  endfacet
  facet normal 9.555727e-001 -2.947551e-001 5.594361e-004
    outer loop
      vertex   -1.652245e+002 8.117888e+001 5.000000e+000
      vertex   -1.651777e+002 8.132098e+001 0.000000e+000
      vertex   -1.651363e+002 8.146472e+001 5.000000e+000
    endloop
  endfacet
  facet normal 9.749278e-001 -2.225209e-001 5.594361e-004
    outer loop
      vertex   -1.651363e+002 8.146472e+001 5.000000e+000
      vertex   -1.651003e+002 8.160992e+001 0.000000e+000
      vertex   -1.650697e+002 8.175635e+001 5.000000e+000
    endloop
  endfacet
  facet normal 9.888307e-001 -1.490422e-001 5.594361e-004
    outer loop
      vertex   -1.650697e+002 8.175635e+001 5.000000e+000
      vertex   -1.650447e+002 8.190383e+001 0.000000e+000
      vertex   -1.650252e+002 8.205214e+001 5.000000e+000
    endloop
  endfacet
  facet normal 9.937121e-001 -1.119645e-001 5.594361e-004
    outer loop
      vertex   -1.650112e+002 8.220108e+001 1.000000e+001
      vertex   -1.650447e+002 8.190383e+001 1.000000e+001
      vertex   -1.650252e+002 8.205214e+001 5.000000e+000
    endloop
  endfacet
  facet normal 9.825663e-001 -1.859116e-001 5.594361e-004
    outer loop
      vertex   -1.650447e+002 8.190383e+001 1.000000e+001
      vertex   -1.651003e+002 8.160992e+001 1.000000e+001
      vertex   -1.650697e+002 8.175635e+001 5.000000e+000
    endloop
  endfacet
  facet normal 9.659257e-001 -2.588190e-001 5.594361e-004
    outer loop
      vertex   -1.651003e+002 8.160992e+001 1.000000e+001
      vertex   -1.651777e+002 8.132098e+001 1.000000e+001
      vertex   -1.651363e+002 8.146472e+001 5.000000e+000
    endloop
  endfacet
  facet normal 9.438832e-001 -3.302790e-001 5.594361e-004
    outer loop
      vertex   -1.651777e+002 8.132098e+001 1.000000e+001
      vertex   -1.652765e+002 8.103864e+001 1.000000e+001
      vertex   -1.652245e+002 8.117888e+001 5.000000e+000
    endloop
  endfacet
  facet normal 9.165621e-001 -3.998920e-001 5.594361e-004
    outer loop
      vertex   -1.652765e+002 8.103864e+001 1.000000e+001
      vertex   -1.653961e+002 8.076447e+001 1.000000e+001
      vertex   -1.653338e+002 8.090043e+001 5.000000e+000
    endloop
  endfacet
  facet normal 8.841153e-001 -4.672686e-001 5.594361e-004
    outer loop
      vertex   -1.653961e+002 8.076447e+001 1.000000e+001
      vertex   -1.655359e+002 8.050000e+001 1.000000e+001
      vertex   -1.654635e+002 8.063093e+001 5.000000e+000
    endloop
  endfacet
  facet normal 8.467241e-001 -5.320320e-001 5.594361e-004
    outer loop
      vertex   -1.655359e+002 8.050000e+001 1.000000e+001
      vertex   -1.656950e+002 8.024672e+001 1.000000e+001
      vertex   -1.656131e+002 8.037187e+001 5.000000e+000
    endloop
  endfacet
  facet normal 8.045977e-001 -5.938201e-001 5.594361e-004
    outer loop
      vertex   -1.656950e+002 8.024672e+001 1.000000e+001
      vertex   -1.658727e+002 8.000604e+001 1.000000e+001
      vertex   -1.657816e+002 8.012472e+001 5.000000e+000
    endloop
  endfacet
  facet normal 7.579716e-001 -6.522873e-001 5.594361e-004
    outer loop
      vertex   -1.658727e+002 8.000604e+001 1.000000e+001
      vertex   -1.660678e+002 7.977931e+001 1.000000e+001
      vertex   -1.659681e+002 7.989085e+001 5.000000e+000
    endloop
  endfacet
  facet normal 7.071067e-001 -7.071067e-001 5.594361e-004
    outer loop
      vertex   -1.660678e+002 7.977931e+001 1.000000e+001
      vertex   -1.662793e+002 7.956779e+001 1.000000e+001
      vertex   -1.661716e+002 7.967157e+001 5.000000e+000
    endloop
  endfacet
  facet normal 6.522873e-001 -7.579716e-001 5.594361e-004
    outer loop
      vertex   -1.662793e+002 7.956779e+001 1.000000e+001
      vertex   -1.665060e+002 7.937267e+001 1.000000e+001
      vertex   -1.663909e+002 7.946811e+001 5.000000e+000
    endloop
  endfacet
  facet normal 5.938201e-001 -8.045977e-001 5.594361e-004
    outer loop
      vertex   -1.665060e+002 7.937267e+001 1.000000e+001
      vertex   -1.667467e+002 7.919504e+001 1.000000e+001
      vertex   -1.666247e+002 7.928161e+001 5.000000e+000
    endloop
  endfacet
  facet normal 5.320320e-001 -8.467241e-001 5.594361e-004
    outer loop
      vertex   -1.667467e+002 7.919504e+001 1.000000e+001
      vertex   -1.670000e+002 7.903590e+001 1.000000e+001
      vertex   -1.668719e+002 7.911310e+001 5.000000e+000
    endloop
  endfacet
  facet normal 4.672686e-001 -8.841153e-001 5.594361e-004
    outer loop
      vertex   -1.670000e+002 7.903590e+001 1.000000e+001
      vertex   -1.672645e+002 7.889612e+001 1.000000e+001
      vertex   -1.671309e+002 7.896354e+001 5.000000e+000
    endloop
  endfacet
  facet normal 3.998920e-001 -9.165621e-001 5.594361e-004
    outer loop
      vertex   -1.672645e+002 7.889612e+001 1.000000e+001
      vertex   -1.675386e+002 7.877651e+001 1.000000e+001
      vertex   -1.674004e+002 7.883375e+001 5.000000e+000
    endloop
  endfacet
  facet normal 3.302790e-001 -9.438832e-001 5.594361e-004
    outer loop
      vertex   -1.675386e+002 7.877651e+001 1.000000e+001
      vertex   -1.678210e+002 7.867771e+001 1.000000e+001
      vertex   -1.676789e+002 7.872447e+001 5.000000e+000
    endloop
  endfacet
  facet normal 2.588190e-001 -9.659257e-001 5.594361e-004
    outer loop
      vertex   -1.678210e+002 7.867771e+001 1.000000e+001
      vertex   -1.681099e+002 7.860029e+001 1.000000e+001
      vertex   -1.679647e+002 7.863630e+001 5.000000e+000
    endloop
  endfacet
  facet normal 1.859116e-001 -9.825663e-001 5.594361e-004
    outer loop
      vertex   -1.681099e+002 7.860029e+001 1.000000e+001
      vertex   -1.684038e+002 7.854468e+001 1.000000e+001
      vertex   -1.682564e+002 7.856973e+001 5.000000e+000
    endloop
  endfacet
  facet normal 1.119645e-001 -9.937121e-001 5.594361e-004
    outer loop
      vertex   -1.684038e+002 7.854468e+001 1.000000e+001
      vertex   -1.687011e+002 7.851118e+001 1.000000e+001
      vertex   -1.685521e+002 7.852515e+001 5.000000e+000
    endloop
  endfacet
  facet normal 3.739119e-002 -9.993005e-001 5.594361e-004
    outer loop
      vertex   -1.687011e+002 7.851118e+001 1.000000e+001
      vertex   -1.690000e+002 7.850000e+001 1.000000e+001
      vertex   -1.688504e+002 7.850280e+001 5.000000e+000
    endloop
  endfacet
  facet normal 7.473008e-002 -9.972036e-001 5.594361e-004
    outer loop
      vertex   -1.687011e+002 7.851118e+001 0.000000e+000
      vertex   -1.685521e+002 7.852515e+001 5.000000e+000
      vertex   -1.688504e+002 7.850280e+001 5.000000e+000
    endloop
  endfacet
  facet normal 3.739119e-002 -9.993005e-001 -5.594361e-004
    outer loop
      vertex   -1.690000e+002 7.850000e+001 0.000000e+000
      vertex   -1.687011e+002 7.851118e+001 0.000000e+000
      vertex   -1.688504e+002 7.850280e+001 5.000000e+000
    endloop
  endfacet
  facet normal -0.000000e+000 -1.000000e+000 0.000000e+000
    outer loop
      vertex   -1.700000e+002 1.320000e+002 2.000000e+000
      vertex   -1.700000e+002 1.320000e+002 1.000000e+001
      vertex   -2.025000e+002 1.320000e+002 2.000000e+000
    endloop
  endfacet
  facet normal 0.000000e+000 -1.000000e+000 0.000000e+000
    outer loop
      vertex   -2.025000e+002 1.320000e+002 2.000000e+000
      vertex   -1.700000e+002 1.320000e+002 1.000000e+001
      vertex   -2.025000e+002 1.320000e+002 1.000000e+001
    endloop
  endfacet
  facet normal 0.000000e+000 -1.000000e+000 0.000000e+000
    outer loop
      vertex   -2.350000e+002 1.320000e+002 2.000000e+000
      vertex   -2.025000e+002 1.320000e+002 1.000000e+001
      vertex   -2.350000e+002 1.320000e+002 1.000000e+001
    endloop
  endfacet
  facet normal 0.000000e+000 -1.000000e+000 0.000000e+000
    outer loop
      vertex   -2.350000e+002 1.320000e+002 2.000000e+000
      vertex   -2.025000e+002 1.320000e+002 2.000000e+000
      vertex   -2.025000e+002 1.320000e+002 1.000000e+001
    endloop
  endfacet
  facet normal -1.000000e+000 -0.000000e+000 -0.000000e+000
    outer loop
      vertex   -1.700000e+002 1.320000e+002 1.000000e+001
      vertex   -1.700000e+002 1.320000e+002 2.000000e+000
      vertex   -1.700000e+002 8.000000e+001 1.000000e+001
    endloop
  endfacet
  facet normal -1.000000e+000 -0.000000e+000 -0.000000e+000
    outer loop
      vertex   -1.700000e+002 8.000000e+001 1.000000e+001
      vertex   -1.700000e+002 1.320000e+002 2.000000e+000
      vertex   -1.700000e+002 8.000000e+001 2.000000e+000
    endloop
  endfacet
  facet normal 0.000000e+000 0.000000e+000 1.000000e+000
    outer loop
      vertex   -1.700000e+002 1.320000e+002 2.000000e+000
      vertex   -2.025000e+002 1.320000e+002 2.000000e+000
      vertex   -1.700000e+002 8.000000e+001 2.000000e+000
    endloop
  endfacet
  facet normal 0.000000e+000 0.000000e+000 1.000000e+000
    outer loop
      vertex   -1.700000e+002 8.000000e+001 2.000000e+000
      vertex   -2.025000e+002 1.320000e+002 2.000000e+000
      vertex   -2.025000e+002 8.000000e+001 2.000000e+000
    endloop
  endfacet
  facet normal 0.000000e+000 -0.000000e+000 1.000000e+000
    outer loop
      vertex   -2.025000e+002 8.000000e+001 2.000000e+000
      vertex   -2.025000e+002 1.320000e+002 2.000000e+000
      vertex   -2.350000e+002 1.320000e+002 2.000000e+000
    endloop
  endfacet
  facet normal 0.000000e+000 -0.000000e+000 1.000000e+000
    outer loop
      vertex   -2.350000e+002 8.000000e+001 2.000000e+000
      vertex   -2.025000e+002 8.000000e+001 2.000000e+000
      vertex   -2.350000e+002 1.320000e+002 2.000000e+000
    endloop
  endfacet
  facet normal -0.000000e+000 1.000000e+000 0.000000e+000
    outer loop
      vertex   -2.350000e+002 8.000000e+001 2.000000e+000
      vertex   -2.350000e+002 8.000000e+001 1.000000e+001
      vertex   -2.025000e+002 8.000000e+001 2.000000e+000
    endloop
  endfacet
  facet normal 4.372571e-016 1.000000e+000 1.776357e-015
    outer loop
      vertex   -2.025000e+002 8.000000e+001 2.000000e+000
      vertex   -2.350000e+002 8.000000e+001 1.000000e+001
      vertex   -2.025000e+002 8.000000e+001 1.000000e+001
    endloop
  endfacet
  facet normal -4.372571e-016 1.000000e+000 0.000000e+000
    outer loop
      vertex   -1.700000e+002 8.000000e+001 2.000000e+000
      vertex   -2.025000e+002 8.000000e+001 1.000000e+001
      vertex   -1.700000e+002 8.000000e+001 1.000000e+001
    endloop
  endfacet
  facet normal 0.000000e+000 1.000000e+000 1.776357e-015
    outer loop
      vertex   -1.700000e+002 8.000000e+001 2.000000e+000
      vertex   -2.025000e+002 8.000000e+001 2.000000e+000
      vertex   -2.025000e+002 8.000000e+001 1.000000e+001
    endloop
  endfacet
  facet normal 0.000000e+000 0.000000e+000 1.000000e+000
    outer loop
      vertex   -1.650112e+002 1.297989e+002 1.000000e+001
      vertex   -1.650447e+002 1.300962e+002 1.000000e+001
      vertex   -1.650000e+002 1.295000e+002 1.000000e+001
    endloop
  endfacet
  facet normal 0.000000e+000 0.000000e+000 1.000000e+000
    outer loop
      vertex   -1.650000e+002 1.295000e+002 1.000000e+001
      vertex   -1.650447e+002 1.300962e+002 1.000000e+001
      vertex   -1.651003e+002 1.303901e+002 1.000000e+001
    endloop
  endfacet
  facet normal -0.000000e+000 -0.000000e+000 1.000000e+000
    outer loop
      vertex   -1.651777e+002 1.306790e+002 1.000000e+001
      vertex   -1.650000e+002 1.295000e+002 1.000000e+001
      vertex   -1.651003e+002 1.303901e+002 1.000000e+001
    endloop
  endfacet
  facet normal 0.000000e+000 0.000000e+000 1.000000e+000
    outer loop
      vertex   -1.651777e+002 1.306790e+002 1.000000e+001
      vertex   -1.652765e+002 1.309614e+002 1.000000e+001
      vertex   -1.650000e+002 1.295000e+002 1.000000e+001
    endloop
  endfacet
  facet normal 0.000000e+000 0.000000e+000 1.000000e+000
    outer loop
      vertex   -1.650000e+002 1.295000e+002 1.000000e+001
      vertex   -1.652765e+002 1.309614e+002 1.000000e+001
      vertex   -1.653961e+002 1.312355e+002 1.000000e+001
    endloop
  endfacet
  facet normal -0.000000e+000 -0.000000e+000 1.000000e+000
    outer loop
      vertex   -1.655359e+002 1.315000e+002 1.000000e+001
      vertex   -1.650000e+002 1.295000e+002 1.000000e+001
      vertex   -1.653961e+002 1.312355e+002 1.000000e+001
    endloop
  endfacet
  facet normal 0.000000e+000 0.000000e+000 1.000000e+000
    outer loop
      vertex   -1.655359e+002 1.315000e+002 1.000000e+001
      vertex   -1.656950e+002 1.317533e+002 1.000000e+001
      vertex   -1.650000e+002 1.295000e+002 1.000000e+001
    endloop
  endfacet
  facet normal 0.000000e+000 0.000000e+000 1.000000e+000
    outer loop
      vertex   -1.650000e+002 1.295000e+002 1.000000e+001
      vertex   -1.656950e+002 1.317533e+002 1.000000e+001
      vertex   -1.658727e+002 1.319940e+002 1.000000e+001
    endloop
  endfacet
  facet normal -0.000000e+000 -0.000000e+000 1.000000e+000
    outer loop
      vertex   -1.660678e+002 1.322207e+002 1.000000e+001
      vertex   -1.650000e+002 1.295000e+002 1.000000e+001
      vertex   -1.658727e+002 1.319940e+002 1.000000e+001
    endloop
  endfacet
  facet normal 0.000000e+000 0.000000e+000 1.000000e+000
    outer loop
      vertex   -1.660678e+002 1.322207e+002 1.000000e+001
      vertex   -1.662793e+002 1.324322e+002 1.000000e+001
      vertex   -1.650000e+002 1.295000e+002 1.000000e+001
    endloop
  endfacet
  facet normal 0.000000e+000 0.000000e+000 1.000000e+000
    outer loop
      vertex   -1.650000e+002 1.295000e+002 1.000000e+001
      vertex   -1.662793e+002 1.324322e+002 1.000000e+001
      vertex   -1.665060e+002 1.326273e+002 1.000000e+001
    endloop
  endfacet
  facet normal -0.000000e+000 -0.000000e+000 1.000000e+000
    outer loop
      vertex   -1.667467e+002 1.328050e+002 1.000000e+001
      vertex   -1.650000e+002 1.295000e+002 1.000000e+001
      vertex   -1.665060e+002 1.326273e+002 1.000000e+001
    endloop
  endfacet
  facet normal 0.000000e+000 0.000000e+000 1.000000e+000
    outer loop
      vertex   -1.667467e+002 1.328050e+002 1.000000e+001
      vertex   -1.700000e+002 1.320000e+002 1.000000e+001
      vertex   -1.650000e+002 1.295000e+002 1.000000e+001
    endloop
  endfacet
  facet normal 0.000000e+000 0.000000e+000 1.000000e+000
    outer loop
      vertex   -1.667467e+002 1.328050e+002 1.000000e+001
      vertex   -1.670000e+002 1.329641e+002 1.000000e+001
      vertex   -1.700000e+002 1.320000e+002 1.000000e+001
    endloop
  endfacet
  facet normal 0.000000e+000 -0.000000e+000 1.000000e+000
    outer loop
      vertex   -1.700000e+002 1.320000e+002 1.000000e+001
      vertex   -1.670000e+002 1.329641e+002 1.000000e+001
      vertex   -1.672645e+002 1.331039e+002 1.000000e+001
    endloop
  endfacet
  facet normal -0.000000e+000 0.000000e+000 1.000000e+000
    outer loop
      vertex   -1.675386e+002 1.332235e+002 1.000000e+001
      vertex   -1.700000e+002 1.320000e+002 1.000000e+001
      vertex   -1.672645e+002 1.331039e+002 1.000000e+001
    endloop
  endfacet
  facet normal 0.000000e+000 0.000000e+000 1.000000e+000
    outer loop
      vertex   -1.675386e+002 1.332235e+002 1.000000e+001
      vertex   -1.678210e+002 1.333223e+002 1.000000e+001
      vertex   -1.700000e+002 1.320000e+002 1.000000e+001
    endloop
  endfacet
  facet normal 0.000000e+000 -0.000000e+000 1.000000e+000
    outer loop
      vertex   -1.700000e+002 1.320000e+002 1.000000e+001
      vertex   -1.678210e+002 1.333223e+002 1.000000e+001
      vertex   -1.681099e+002 1.333997e+002 1.000000e+001
    endloop
  endfacet
  facet normal -0.000000e+000 0.000000e+000 1.000000e+000
    outer loop
      vertex   -1.684038e+002 1.334553e+002 1.000000e+001
      vertex   -1.700000e+002 1.320000e+002 1.000000e+001
      vertex   -1.681099e+002 1.333997e+002 1.000000e+001
    endloop
  endfacet
  facet normal 0.000000e+000 0.000000e+000 1.000000e+000
    outer loop
      vertex   -1.684038e+002 1.334553e+002 1.000000e+001
      vertex   -1.687011e+002 1.334888e+002 1.000000e+001
      vertex   -1.700000e+002 1.320000e+002 1.000000e+001
    endloop
  endfacet
  facet normal 0.000000e+000 -0.000000e+000 1.000000e+000
    outer loop
      vertex   -1.700000e+002 1.320000e+002 1.000000e+001
      vertex   -1.687011e+002 1.334888e+002 1.000000e+001
      vertex   -1.690000e+002 1.335000e+002 1.000000e+001
    endloop
  endfacet
  facet normal -0.000000e+000 0.000000e+000 1.000000e+000
    outer loop
      vertex   -2.020000e+002 1.335000e+002 1.000000e+001
      vertex   -1.700000e+002 1.320000e+002 1.000000e+001
      vertex   -1.690000e+002 1.335000e+002 1.000000e+001
    endloop
  endfacet
  facet normal -0.000000e+000 0.000000e+000 1.000000e+000
    outer loop
      vertex   -2.020000e+002 1.335000e+002 1.000000e+001
      vertex   -2.025000e+002 1.320000e+002 1.000000e+001
      vertex   -1.700000e+002 1.320000e+002 1.000000e+001
    endloop
  endfacet
  facet normal 0.000000e+000 0.000000e+000 1.000000e+000
    outer loop
      vertex   -2.020000e+002 1.335000e+002 1.000000e+001
      vertex   -2.350000e+002 1.335000e+002 1.000000e+001
      vertex   -2.025000e+002 1.320000e+002 1.000000e+001
    endloop
  endfacet
  facet normal 0.000000e+000 0.000000e+000 1.000000e+000
    outer loop
      vertex   -2.025000e+002 1.320000e+002 1.000000e+001
      vertex   -2.350000e+002 1.335000e+002 1.000000e+001
      vertex   -2.350000e+002 1.320000e+002 1.000000e+001
    endloop
  endfacet
  facet normal -0.000000e+000 0.000000e+000 1.000000e+000
    outer loop
      vertex   -1.700000e+002 1.320000e+002 1.000000e+001
      vertex   -1.700000e+002 8.000000e+001 1.000000e+001
      vertex   -1.650000e+002 1.295000e+002 1.000000e+001
    endloop
  endfacet
  facet normal -0.000000e+000 0.000000e+000 1.000000e+000
    outer loop
      vertex   -1.650000e+002 1.295000e+002 1.000000e+001
      vertex   -1.700000e+002 8.000000e+001 1.000000e+001
      vertex   -1.650000e+002 8.250000e+001 1.000000e+001
    endloop
  endfacet
  facet normal 0.000000e+000 0.000000e+000 1.000000e+000
    outer loop
      vertex   -1.650000e+002 8.250000e+001 1.000000e+001
      vertex   -1.700000e+002 8.000000e+001 1.000000e+001
      vertex   -1.667467e+002 7.919504e+001 1.000000e+001
    endloop
  endfacet
  facet normal 0.000000e+000 -0.000000e+000 1.000000e+000
    outer loop
      vertex   -1.665060e+002 7.937267e+001 1.000000e+001
      vertex   -1.650000e+002 8.250000e+001 1.000000e+001
      vertex   -1.667467e+002 7.919504e+001 1.000000e+001
    endloop
  endfacet
  facet normal 0.000000e+000 0.000000e+000 1.000000e+000
    outer loop
      vertex   -1.665060e+002 7.937267e+001 1.000000e+001
      vertex   -1.662793e+002 7.956779e+001 1.000000e+001
      vertex   -1.650000e+002 8.250000e+001 1.000000e+001
    endloop
  endfacet
  facet normal -0.000000e+000 0.000000e+000 1.000000e+000
    outer loop
      vertex   -1.650000e+002 8.250000e+001 1.000000e+001
      vertex   -1.662793e+002 7.956779e+001 1.000000e+001
      vertex   -1.660678e+002 7.977931e+001 1.000000e+001
    endloop
  endfacet
  facet normal 0.000000e+000 -0.000000e+000 1.000000e+000
    outer loop
      vertex   -1.658727e+002 8.000604e+001 1.000000e+001
      vertex   -1.650000e+002 8.250000e+001 1.000000e+001
      vertex   -1.660678e+002 7.977931e+001 1.000000e+001
    endloop
  endfacet
  facet normal 0.000000e+000 0.000000e+000 1.000000e+000
    outer loop
      vertex   -1.658727e+002 8.000604e+001 1.000000e+001
      vertex   -1.656950e+002 8.024672e+001 1.000000e+001
      vertex   -1.650000e+002 8.250000e+001 1.000000e+001
    endloop
  endfacet
  facet normal -0.000000e+000 0.000000e+000 1.000000e+000
    outer loop
      vertex   -1.650000e+002 8.250000e+001 1.000000e+001
      vertex   -1.656950e+002 8.024672e+001 1.000000e+001
      vertex   -1.655359e+002 8.050000e+001 1.000000e+001
    endloop
  endfacet
  facet normal 0.000000e+000 -0.000000e+000 1.000000e+000
    outer loop
      vertex   -1.653961e+002 8.076447e+001 1.000000e+001
      vertex   -1.650000e+002 8.250000e+001 1.000000e+001
      vertex   -1.655359e+002 8.050000e+001 1.000000e+001
    endloop
  endfacet
  facet normal 0.000000e+000 0.000000e+000 1.000000e+000
    outer loop
      vertex   -1.653961e+002 8.076447e+001 1.000000e+001
      vertex   -1.652765e+002 8.103864e+001 1.000000e+001
      vertex   -1.650000e+002 8.250000e+001 1.000000e+001
    endloop
  endfacet
  facet normal -0.000000e+000 0.000000e+000 1.000000e+000
    outer loop
      vertex   -1.650000e+002 8.250000e+001 1.000000e+001
      vertex   -1.652765e+002 8.103864e+001 1.000000e+001
      vertex   -1.651777e+002 8.132098e+001 1.000000e+001
    endloop
  endfacet
  facet normal 0.000000e+000 -0.000000e+000 1.000000e+000
    outer loop
      vertex   -1.651003e+002 8.160992e+001 1.000000e+001
      vertex   -1.650000e+002 8.250000e+001 1.000000e+001
      vertex   -1.651777e+002 8.132098e+001 1.000000e+001
    endloop
  endfacet
  facet normal 0.000000e+000 0.000000e+000 1.000000e+000
    outer loop
      vertex   -1.651003e+002 8.160992e+001 1.000000e+001
      vertex   -1.650447e+002 8.190383e+001 1.000000e+001
      vertex   -1.650000e+002 8.250000e+001 1.000000e+001
    endloop
  endfacet
  facet normal -0.000000e+000 0.000000e+000 1.000000e+000
    outer loop
      vertex   -1.650000e+002 8.250000e+001 1.000000e+001
      vertex   -1.650447e+002 8.190383e+001 1.000000e+001
      vertex   -1.650112e+002 8.220108e+001 1.000000e+001
    endloop
  endfacet
  facet normal -0.000000e+000 0.000000e+000 1.000000e+000
    outer loop
      vertex   -2.025000e+002 8.000000e+001 1.000000e+001
      vertex   -2.020000e+002 7.850000e+001 1.000000e+001
      vertex   -1.700000e+002 8.000000e+001 1.000000e+001
    endloop
  endfacet
  facet normal -0.000000e+000 0.000000e+000 1.000000e+000
    outer loop
      vertex   -2.025000e+002 8.000000e+001 1.000000e+001
      vertex   -2.350000e+002 7.850000e+001 1.000000e+001
      vertex   -2.020000e+002 7.850000e+001 1.000000e+001
    endloop
  endfacet
  facet normal 0.000000e+000 0.000000e+000 1.000000e+000
    outer loop
      vertex   -2.025000e+002 8.000000e+001 1.000000e+001
      vertex   -2.350000e+002 8.000000e+001 1.000000e+001
      vertex   -2.350000e+002 7.850000e+001 1.000000e+001
    endloop
  endfacet
  facet normal 0.000000e+000 -0.000000e+000 1.000000e+000
    outer loop
      vertex   -2.020000e+002 7.850000e+001 1.000000e+001
      vertex   -1.690000e+002 7.850000e+001 1.000000e+001
      vertex   -1.700000e+002 8.000000e+001 1.000000e+001
    endloop
  endfacet
  facet normal -0.000000e+000 0.000000e+000 1.000000e+000
    outer loop
      vertex   -1.700000e+002 8.000000e+001 1.000000e+001
      vertex   -1.690000e+002 7.850000e+001 1.000000e+001
      vertex   -1.687011e+002 7.851118e+001 1.000000e+001
    endloop
  endfacet
  facet normal 0.000000e+000 0.000000e+000 1.000000e+000
    outer loop
      vertex   -1.684038e+002 7.854468e+001 1.000000e+001
      vertex   -1.700000e+002 8.000000e+001 1.000000e+001
      vertex   -1.687011e+002 7.851118e+001 1.000000e+001
    endloop
  endfacet
  facet normal 0.000000e+000 -0.000000e+000 1.000000e+000
    outer loop
      vertex   -1.684038e+002 7.854468e+001 1.000000e+001
      vertex   -1.681099e+002 7.860029e+001 1.000000e+001
      vertex   -1.700000e+002 8.000000e+001 1.000000e+001
    endloop
  endfacet
  facet normal -0.000000e+000 0.000000e+000 1.000000e+000
    outer loop
      vertex   -1.700000e+002 8.000000e+001 1.000000e+001
      vertex   -1.681099e+002 7.860029e+001 1.000000e+001
      vertex   -1.678210e+002 7.867771e+001 1.000000e+001
    endloop
  endfacet
  facet normal 0.000000e+000 0.000000e+000 1.000000e+000
    outer loop
      vertex   -1.675386e+002 7.877651e+001 1.000000e+001
      vertex   -1.700000e+002 8.000000e+001 1.000000e+001
      vertex   -1.678210e+002 7.867771e+001 1.000000e+001
    endloop
  endfacet
  facet normal 0.000000e+000 -0.000000e+000 1.000000e+000
    outer loop
      vertex   -1.675386e+002 7.877651e+001 1.000000e+001
      vertex   -1.672645e+002 7.889612e+001 1.000000e+001
      vertex   -1.700000e+002 8.000000e+001 1.000000e+001
    endloop
  endfacet
  facet normal -0.000000e+000 0.000000e+000 1.000000e+000
    outer loop
      vertex   -1.700000e+002 8.000000e+001 1.000000e+001
      vertex   -1.672645e+002 7.889612e+001 1.000000e+001
      vertex   -1.670000e+002 7.903590e+001 1.000000e+001
    endloop
  endfacet
  facet normal 0.000000e+000 0.000000e+000 1.000000e+000
    outer loop
      vertex   -1.667467e+002 7.919504e+001 1.000000e+001
      vertex   -1.700000e+002 8.000000e+001 1.000000e+001
      vertex   -1.670000e+002 7.903590e+001 1.000000e+001
    endloop
  endfacet
  facet normal -0.000000e+000 -1.000000e+000 0.000000e+000
    outer loop
      vertex   -1.690000e+002 7.850000e+001 0.000000e+000
      vertex   -1.690000e+002 7.850000e+001 1.000000e+001
      vertex   -2.020000e+002 7.850000e+001 0.000000e+000
    endloop
  endfacet
  facet normal 0.000000e+000 -1.000000e+000 0.000000e+000
    outer loop
      vertex   -2.020000e+002 7.850000e+001 0.000000e+000
      vertex   -1.690000e+002 7.850000e+001 1.000000e+001
      vertex   -2.020000e+002 7.850000e+001 1.000000e+001
    endloop
  endfacet
  facet normal 0.000000e+000 -1.000000e+000 0.000000e+000
    outer loop
      vertex   -2.350000e+002 7.850000e+001 0.000000e+000
      vertex   -2.020000e+002 7.850000e+001 1.000000e+001
      vertex   -2.350000e+002 7.850000e+001 1.000000e+001
    endloop
  endfacet
  facet normal 0.000000e+000 -1.000000e+000 0.000000e+000
    outer loop
      vertex   -2.350000e+002 7.850000e+001 0.000000e+000
      vertex   -2.020000e+002 7.850000e+001 0.000000e+000
      vertex   -2.020000e+002 7.850000e+001 1.000000e+001
    endloop
  endfacet
  facet normal -1.000000e+000 0.000000e+000 -0.000000e+000
    outer loop
      vertex   -2.350000e+002 1.320000e+002 1.000000e+001
      vertex   -2.350000e+002 1.335000e+002 1.000000e+001
      vertex   -2.350000e+002 1.320000e+002 2.000000e+000
    endloop
  endfacet
  facet normal -1.000000e+000 0.000000e+000 0.000000e+000
    outer loop
      vertex   -2.350000e+002 1.320000e+002 2.000000e+000
      vertex   -2.350000e+002 1.335000e+002 1.000000e+001
      vertex   -2.350000e+002 1.335000e+002 0.000000e+000
    endloop
  endfacet
  facet normal -1.000000e+000 0.000000e+000 0.000000e+000
    outer loop
      vertex   -2.350000e+002 7.850000e+001 0.000000e+000
      vertex   -2.350000e+002 1.320000e+002 2.000000e+000
      vertex   -2.350000e+002 1.335000e+002 0.000000e+000
    endloop
  endfacet
  facet normal -1.000000e+000 0.000000e+000 0.000000e+000
    outer loop
      vertex   -2.350000e+002 7.850000e+001 0.000000e+000
      vertex   -2.350000e+002 8.000000e+001 2.000000e+000
      vertex   -2.350000e+002 1.320000e+002 2.000000e+000
    endloop
  endfacet
  facet normal -1.000000e+000 0.000000e+000 0.000000e+000
    outer loop
      vertex   -2.350000e+002 7.850000e+001 0.000000e+000
      vertex   -2.350000e+002 7.850000e+001 1.000000e+001
      vertex   -2.350000e+002 8.000000e+001 2.000000e+000
    endloop
  endfacet
  facet normal -1.000000e+000 0.000000e+000 0.000000e+000
    outer loop
      vertex   -2.350000e+002 8.000000e+001 2.000000e+000
      vertex   -2.350000e+002 7.850000e+001 1.000000e+001
      vertex   -2.350000e+002 8.000000e+001 1.000000e+001
    endloop
  endfacet
  facet normal 0.000000e+000 1.000000e+000 0.000000e+000
    outer loop
      vertex   -1.690000e+002 1.335000e+002 1.000000e+001
      vertex   -1.690000e+002 1.335000e+002 0.000000e+000
      vertex   -2.020000e+002 1.335000e+002 1.000000e+001
    endloop
  endfacet
  facet normal 0.000000e+000 1.000000e+000 0.000000e+000
    outer loop
      vertex   -2.020000e+002 1.335000e+002 1.000000e+001
      vertex   -1.690000e+002 1.335000e+002 0.000000e+000
      vertex   -2.020000e+002 1.335000e+002 0.000000e+000
    endloop
  endfacet
  facet normal 0.000000e+000 1.000000e+000 0.000000e+000
    outer loop
      vertex   -2.350000e+002 1.335000e+002 1.000000e+001
      vertex   -2.020000e+002 1.335000e+002 0.000000e+000
      vertex   -2.350000e+002 1.335000e+002 0.000000e+000
    endloop
  endfacet
  facet normal -0.000000e+000 1.000000e+000 0.000000e+000
    outer loop
      vertex   -2.350000e+002 1.335000e+002 1.000000e+001
      vertex   -2.020000e+002 1.335000e+002 1.000000e+001
      vertex   -2.020000e+002 1.335000e+002 0.000000e+000
    endloop
  endfacet
endsolid
