solid ascii
  facet normal 0.000000e+000 -0.000000e+000 -1.000000e+000
    outer loop
      vertex   -2.691259e+001 4.476815e+001 7.000000e+000
      vertex   -2.554400e+001 4.476815e+001 7.000000e+000
      vertex   -2.691259e+001 3.876815e+001 7.000000e+000
    endloop
  endfacet
  facet normal 0.000000e+000 0.000000e+000 -1.000000e+000
    outer loop
      vertex   -2.691259e+001 3.876815e+001 7.000000e+000
      vertex   -2.554400e+001 4.476815e+001 7.000000e+000
      vertex   -2.554400e+001 3.876815e+001 7.000000e+000
    endloop
  endfacet
  facet normal 1.016552e-016 0.000000e+000 1.000000e+000
    outer loop
      vertex   -2.254400e+001 4.476815e+001 2.000000e+000
      vertex   -2.691259e+001 4.476815e+001 2.000000e+000
      vertex   -2.254400e+001 3.876815e+001 2.000000e+000
    endloop
  endfacet
  facet normal 1.016552e-016 0.000000e+000 1.000000e+000
    outer loop
      vertex   -2.254400e+001 3.876815e+001 2.000000e+000
      vertex   -2.691259e+001 4.476815e+001 2.000000e+000
      vertex   -2.691259e+001 3.876815e+001 2.000000e+000
    endloop
  endfacet
  facet normal -1.000000e+000 0.000000e+000 0.000000e+000
    outer loop
      vertex   -2.254400e+001 3.876815e+001 2.000000e+000
      vertex   -2.254400e+001 3.876815e+001 5.000000e+000
      vertex   -2.254400e+001 4.476815e+001 2.000000e+000
    endloop
  endfacet
  facet normal -1.000000e+000 0.000000e+000 0.000000e+000
    outer loop
      vertex   -2.254400e+001 4.476815e+001 2.000000e+000
      vertex   -2.254400e+001 3.876815e+001 5.000000e+000
      vertex   -2.254400e+001 4.476815e+001 5.000000e+000
    endloop
  endfacet
  facet normal -2.960595e-016 0.000000e+000 1.000000e+000
    outer loop
      vertex   -2.254400e+001 3.876815e+001 5.000000e+000
      vertex   -1.954400e+001 3.876815e+001 5.000000e+000
      vertex   -2.254400e+001 4.476815e+001 5.000000e+000
    endloop
  endfacet
  facet normal -2.960595e-016 0.000000e+000 1.000000e+000
    outer loop
      vertex   -2.254400e+001 4.476815e+001 5.000000e+000
      vertex   -1.954400e+001 3.876815e+001 5.000000e+000
      vertex   -1.954400e+001 4.476815e+001 5.000000e+000
    endloop
  endfacet
  facet normal -0.000000e+000 1.000000e+000 7.105427e-015
    outer loop
      vertex   -2.554400e+001 3.876815e+001 8.000000e+000
      vertex   -1.954400e+001 3.876815e+001 8.000000e+000
      vertex   -2.554400e+001 3.876815e+001 7.000000e+000
    endloop
  endfacet
  facet normal 1.421085e-015 1.000000e+000 -1.421085e-015
    outer loop
      vertex   -2.554400e+001 3.876815e+001 7.000000e+000
      vertex   -1.954400e+001 3.876815e+001 8.000000e+000
      vertex   -2.254400e+001 3.876815e+001 5.000000e+000
    endloop
  endfacet
  facet normal 1.626483e-015 1.000000e+000 0.000000e+000
    outer loop
      vertex   -2.691259e+001 3.876815e+001 2.000000e+000
      vertex   -2.254400e+001 3.876815e+001 5.000000e+000
      vertex   -2.254400e+001 3.876815e+001 2.000000e+000
    endloop
  endfacet
  facet normal 2.002977e-015 1.000000e+000 -5.482485e-016
    outer loop
      vertex   -2.691259e+001 3.876815e+001 2.000000e+000
      vertex   -2.554400e+001 3.876815e+001 7.000000e+000
      vertex   -2.254400e+001 3.876815e+001 5.000000e+000
    endloop
  endfacet
  facet normal 0.000000e+000 1.000000e+000 0.000000e+000
    outer loop
      vertex   -2.691259e+001 3.876815e+001 2.000000e+000
      vertex   -2.691259e+001 3.876815e+001 7.000000e+000
      vertex   -2.554400e+001 3.876815e+001 7.000000e+000
    endloop
  endfacet
  facet normal 0.000000e+000 1.000000e+000 0.000000e+000
    outer loop
      vertex   -1.954400e+001 3.876815e+001 8.000000e+000
      vertex   -1.954400e+001 3.876815e+001 5.000000e+000
      vertex   -2.254400e+001 3.876815e+001 5.000000e+000
    endloop
  endfacet
  facet normal 1.000000e+000 0.000000e+000 0.000000e+000
    outer loop
      vertex   -2.554400e+001 4.476815e+001 7.000000e+000
      vertex   -2.554400e+001 4.476815e+001 8.000000e+000
      vertex   -2.554400e+001 3.876815e+001 7.000000e+000
    endloop
  endfacet
  facet normal 1.000000e+000 0.000000e+000 -0.000000e+000
    outer loop
      vertex   -2.554400e+001 3.876815e+001 7.000000e+000
      vertex   -2.554400e+001 4.476815e+001 8.000000e+000
      vertex   -2.554400e+001 3.876815e+001 8.000000e+000
    endloop
  endfacet
  facet normal -0.000000e+000 -1.000000e+000 0.000000e+000
    outer loop
      vertex   -1.954400e+001 4.476815e+001 5.000000e+000
      vertex   -1.954400e+001 4.476815e+001 8.000000e+000
      vertex   -2.254400e+001 4.476815e+001 5.000000e+000
    endloop
  endfacet
  facet normal -2.842171e-015 -1.000000e+000 2.842171e-015
    outer loop
      vertex   -2.254400e+001 4.476815e+001 5.000000e+000
      vertex   -1.954400e+001 4.476815e+001 8.000000e+000
      vertex   -2.554400e+001 4.476815e+001 7.000000e+000
    endloop
  endfacet
  facet normal 0.000000e+000 -1.000000e+000 0.000000e+000
    outer loop
      vertex   -2.691259e+001 4.476815e+001 2.000000e+000
      vertex   -2.554400e+001 4.476815e+001 7.000000e+000
      vertex   -2.691259e+001 4.476815e+001 7.000000e+000
    endloop
  endfacet
  facet normal -4.005954e-015 -1.000000e+000 1.096497e-015
    outer loop
      vertex   -2.691259e+001 4.476815e+001 2.000000e+000
      vertex   -2.254400e+001 4.476815e+001 5.000000e+000
      vertex   -2.554400e+001 4.476815e+001 7.000000e+000
    endloop
  endfacet
  facet normal -3.252966e-015 -1.000000e+000 0.000000e+000
    outer loop
      vertex   -2.691259e+001 4.476815e+001 2.000000e+000
      vertex   -2.254400e+001 4.476815e+001 2.000000e+000
      vertex   -2.254400e+001 4.476815e+001 5.000000e+000
    endloop
  endfacet
  facet normal -0.000000e+000 -1.000000e+000 -1.421085e-014
    outer loop
      vertex   -1.954400e+001 4.476815e+001 8.000000e+000
      vertex   -2.554400e+001 4.476815e+001 8.000000e+000
      vertex   -2.554400e+001 4.476815e+001 7.000000e+000
    endloop
  endfacet
  facet normal -1.000000e+000 0.000000e+000 0.000000e+000
    outer loop
      vertex   -1.954400e+001 3.876815e+001 5.000000e+000
      vertex   -1.954400e+001 3.876815e+001 8.000000e+000
      vertex   -1.954400e+001 4.476815e+001 5.000000e+000
    endloop
  endfacet
  facet normal -1.000000e+000 0.000000e+000 0.000000e+000
    outer loop
      vertex   -1.954400e+001 4.476815e+001 5.000000e+000
      vertex   -1.954400e+001 3.876815e+001 8.000000e+000
      vertex   -1.954400e+001 4.476815e+001 8.000000e+000
    endloop
  endfacet
  facet normal -0.000000e+000 0.000000e+000 1.000000e+000
    outer loop
      vertex   -2.554400e+001 3.876815e+001 8.000000e+000
      vertex   -2.691259e+001 3.718759e+001 8.000000e+000
      vertex   -1.954400e+001 3.876815e+001 8.000000e+000
    endloop
  endfacet
  facet normal 0.000000e+000 0.000000e+000 1.000000e+000
    outer loop
      vertex   -2.554400e+001 3.876815e+001 8.000000e+000
      vertex   -2.691259e+001 4.618759e+001 8.000000e+000
      vertex   -2.691259e+001 3.718759e+001 8.000000e+000
    endloop
  endfacet
  facet normal 0.000000e+000 -0.000000e+000 1.000000e+000
    outer loop
      vertex   -2.554400e+001 3.876815e+001 8.000000e+000
      vertex   -2.554400e+001 4.476815e+001 8.000000e+000
      vertex   -2.691259e+001 4.618759e+001 8.000000e+000
    endloop
  endfacet
  facet normal -0.000000e+000 0.000000e+000 1.000000e+000
    outer loop
      vertex   -2.691259e+001 4.618759e+001 8.000000e+000
      vertex   -2.554400e+001 4.476815e+001 8.000000e+000
      vertex   -1.954400e+001 4.476815e+001 8.000000e+000
    endloop
  endfacet
  facet normal 0.000000e+000 0.000000e+000 1.000000e+000
    outer loop
      vertex   -1.791259e+001 4.618759e+001 8.000000e+000
      vertex   -1.954400e+001 4.476815e+001 8.000000e+000
      vertex   -1.954400e+001 3.876815e+001 8.000000e+000
    endloop
  endfacet
  facet normal 0.000000e+000 0.000000e+000 1.000000e+000
    outer loop
      vertex   -1.791259e+001 3.718759e+001 8.000000e+000
      vertex   -1.954400e+001 3.876815e+001 8.000000e+000
      vertex   -2.691259e+001 3.718759e+001 8.000000e+000
    endloop
  endfacet
  facet normal 0.000000e+000 -0.000000e+000 1.000000e+000
    outer loop
      vertex   -1.791259e+001 3.718759e+001 8.000000e+000
      vertex   -1.791259e+001 4.618759e+001 8.000000e+000
      vertex   -1.954400e+001 3.876815e+001 8.000000e+000
    endloop
  endfacet
  facet normal -0.000000e+000 0.000000e+000 1.000000e+000
    outer loop
      vertex   -2.691259e+001 4.618759e+001 8.000000e+000
      vertex   -1.954400e+001 4.476815e+001 8.000000e+000
      vertex   -1.791259e+001 4.618759e+001 8.000000e+000
    endloop
  endfacet
  facet normal 0.000000e+000 0.000000e+000 -1.000000e+000
    outer loop
      vertex   -1.791259e+001 3.718759e+001 0.000000e+000
      vertex   -2.691259e+001 3.718759e+001 0.000000e+000
      vertex   -1.791259e+001 4.618759e+001 0.000000e+000
    endloop
  endfacet
  facet normal -0.000000e+000 0.000000e+000 -1.000000e+000
    outer loop
      vertex   -1.791259e+001 4.618759e+001 0.000000e+000
      vertex   -2.691259e+001 3.718759e+001 0.000000e+000
      vertex   -2.691259e+001 4.618759e+001 0.000000e+000
    endloop
  endfacet
  facet normal 0.000000e+000 -1.000000e+000 0.000000e+000
    outer loop
      vertex   -2.691259e+001 3.718759e+001 8.000000e+000
      vertex   -2.691259e+001 3.718759e+001 0.000000e+000
      vertex   -1.791259e+001 3.718759e+001 8.000000e+000
    endloop
  endfacet
  facet normal 0.000000e+000 -1.000000e+000 -0.000000e+000
    outer loop
      vertex   -1.791259e+001 3.718759e+001 8.000000e+000
      vertex   -2.691259e+001 3.718759e+001 0.000000e+000
      vertex   -1.791259e+001 3.718759e+001 0.000000e+000
    endloop
  endfacet
  facet normal -1.000000e+000 -0.000000e+000 -0.000000e+000
    outer loop
      vertex   -2.691259e+001 4.476815e+001 2.000000e+000
      vertex   -2.691259e+001 4.618759e+001 0.000000e+000
      vertex   -2.691259e+001 3.876815e+001 2.000000e+000
    endloop
  endfacet
  facet normal -1.000000e+000 0.000000e+000 0.000000e+000
    outer loop
      vertex   -2.691259e+001 4.476815e+001 2.000000e+000
      vertex   -2.691259e+001 4.618759e+001 8.000000e+000
      vertex   -2.691259e+001 4.618759e+001 0.000000e+000
    endloop
  endfacet
  facet normal -1.000000e+000 0.000000e+000 0.000000e+000
    outer loop
      vertex   -2.691259e+001 4.476815e+001 2.000000e+000
      vertex   -2.691259e+001 4.476815e+001 7.000000e+000
      vertex   -2.691259e+001 4.618759e+001 8.000000e+000
    endloop
  endfacet
  facet normal -1.000000e+000 -0.000000e+000 0.000000e+000
    outer loop
      vertex   -2.691259e+001 4.618759e+001 8.000000e+000
      vertex   -2.691259e+001 4.476815e+001 7.000000e+000
      vertex   -2.691259e+001 3.876815e+001 7.000000e+000
    endloop
  endfacet
  facet normal -1.000000e+000 0.000000e+000 0.000000e+000
    outer loop
      vertex   -2.691259e+001 3.718759e+001 8.000000e+000
      vertex   -2.691259e+001 3.876815e+001 7.000000e+000
      vertex   -2.691259e+001 3.876815e+001 2.000000e+000
    endloop
  endfacet
  facet normal -1.000000e+000 0.000000e+000 0.000000e+000
    outer loop
      vertex   -2.691259e+001 3.718759e+001 0.000000e+000
      vertex   -2.691259e+001 3.876815e+001 2.000000e+000
      vertex   -2.691259e+001 4.618759e+001 0.000000e+000
    endloop
  endfacet
  facet normal -1.000000e+000 0.000000e+000 0.000000e+000
    outer loop
      vertex   -2.691259e+001 3.718759e+001 0.000000e+000
      vertex   -2.691259e+001 3.718759e+001 8.000000e+000
      vertex   -2.691259e+001 3.876815e+001 2.000000e+000
    endloop
  endfacet
  facet normal -1.000000e+000 -0.000000e+000 0.000000e+000
    outer loop
      vertex   -2.691259e+001 4.618759e+001 8.000000e+000
      vertex   -2.691259e+001 3.876815e+001 7.000000e+000
      vertex   -2.691259e+001 3.718759e+001 8.000000e+000
    endloop
  endfacet
  facet normal 0.000000e+000 1.000000e+000 0.000000e+000
    outer loop
      vertex   -1.791259e+001 4.618759e+001 8.000000e+000
      vertex   -1.791259e+001 4.618759e+001 0.000000e+000
      vertex   -2.691259e+001 4.618759e+001 8.000000e+000
    endloop
  endfacet
  facet normal 0.000000e+000 1.000000e+000 0.000000e+000
    outer loop
      vertex   -2.691259e+001 4.618759e+001 8.000000e+000
      vertex   -1.791259e+001 4.618759e+001 0.000000e+000
      vertex   -2.691259e+001 4.618759e+001 0.000000e+000
    endloop
  endfacet
  facet normal 1.000000e+000 -0.000000e+000 0.000000e+000
    outer loop
      vertex   -1.791259e+001 3.718759e+001 8.000000e+000
      vertex   -1.791259e+001 3.718759e+001 0.000000e+000
      vertex   -1.791259e+001 4.618759e+001 8.000000e+000
    endloop
  endfacet
  facet normal 1.000000e+000 -0.000000e+000 0.000000e+000
    outer loop
      vertex   -1.791259e+001 4.618759e+001 8.000000e+000
      vertex   -1.791259e+001 3.718759e+001 0.000000e+000
      vertex   -1.791259e+001 4.618759e+001 0.000000e+000
    endloop
  endfacet
endsolid
