  0
SECTION
  2
HEADER
  9
$ACADVER
  1
AC1009
  9
$FILLMODE
 70
0
  9
$EXTMIN
 10
-0.018000
 20
-0.237005
 30
0.000000
  9
$EXTMAX
 10
4.060066
 20
2.815951
 30
0.000000
  0
ENDSEC
  0
SECTION
  2
TABLES
  0
TABLE
  2
LTYPE
 70
1
  0
LTYPE
  2
CONTINUOUS
 70
64
  3
Solid line
 72
65
 73
0
 40
0
  0
ENDTAB
  0
TABLE
  2
LAYER
 70
255
  0
LAYER
  2
20
 70
64
 62
178
  6
CONTINUOUS
  0
LAYER
  2
31
 70
64
 62
251
  6
CONTINUOUS
  0
ENDTAB
  0
ENDSEC
  0
SECTION
  2
BLOCKS
  0
BLOCK
  8
0
  2
RECT
 70
64
 10
0.000000
 20
0.000000
 30
0.000000
  3
RECT
  0
SOLID
  8
0
 10
-0.500000
 20
-0.500000
 30
0.000000
 11
0.500000
 21
-0.500000
 31
0.000000
 12
-0.500000
 22
0.500000
 32
0.000000
 13
0.500000
 23
0.500000
 33
0.000000
  0
ENDBLK
  8
0
  0
BLOCK
  8
0
  2
PIE
 70
64
 10
0.000000
 20
0.000000
 30
0.000000
  3
PIE
  0
CIRCLE
  8
0
 10
0.000000
 20
0.000000
 30
0.000000
 40
0.500000
  0
ENDBLK
  8
0
  0
BLOCK
  8
0
  2
OCTAGONP
 70
64
 10
0.000000
 20
0.000000
 30
0.000000
  3
OCTAGONP
  0
POLYLINE
  8
0
 66
1
 10
0.000000
 20
0.000000
 30
0.000000
 40
0.000000
 41
0.000000
 70
1
  0
VERTEX
  8
0
 10
-0.500000
 20
-0.207107
 30
0.000000
  0
VERTEX
  8
0
 10
-0.500000
 20
0.207107
 30
0.000000
  0
VERTEX
  8
0
 10
-0.207107
 20
0.500000
 30
0.000000
  0
VERTEX
  8
0
 10
0.207107
 20
0.500000
 30
0.000000
  0
VERTEX
  8
0
 10
0.500000
 20
0.207107
 30
0.000000
  0
VERTEX
  8
0
 10
0.500000
 20
-0.207107
 30
0.000000
  0
VERTEX
  8
0
 10
0.207107
 20
-0.500000
 30
0.000000
  0
VERTEX
  8
0
 10
-0.207107
 20
-0.500000
 30
0.000000
  0
SEQEND
  8
0
  0
ENDBLK
  8
0
  0
BLOCK
  8
0
  2
SQUAREP
 70
64
 10
0.000000
 20
0.000000
 30
0.000000
  3
SQUAREP
  0
SOLID
  8
0
 10
-0.500000
 20
-0.500000
 30
0.000000
 11
0.500000
 21
-0.500000
 31
0.000000
 12
-0.500000
 22
0.500000
 32
0.000000
 13
0.500000
 23
0.500000
 33
0.000000
  0
ENDBLK
  8
0
  0
BLOCK
  8
0
  2
ROUNDP
 70
64
 10
0.000000
 20
0.000000
 30
0.000000
  3
ROUNDP
  0
CIRCLE
  8
0
 10
0.000000
 20
0.000000
 30
0.000000
 40
0.500000
  0
ENDBLK
  8
0
  0
BLOCK
  8
0
  2
ANNULUSP
 70
64
 10
0.000000
 20
0.000000
 30
0.000000
  3
ANNULUSP
  0
CIRCLE
  8
0
 10
0.000000
 20
0.000000
 30
0.000000
 40
0.500000
  0
ENDBLK
  8
0
  0
BLOCK
  8
0
  2
THERMALP
 70
64
 10
0.000000
 20
0.000000
 30
0.000000
  3
THERMALP
  0
LINE
  8
0
 10
-0.237868
 20
0.450000
 30
0.000000
 11
0.237868
 21
0.450000
 31
0.000000
  0
LINE
  8
0
 10
0.450000
 20
0.237868
 30
0.000000
 11
0.450000
 21
-0.237868
 31
0.000000
  0
LINE
  8
0
 10
0.237868
 20
-0.450000
 30
0.000000
 11
-0.237868
 21
-0.450000
 31
0.000000
  0
LINE
  8
0
 10
-0.450000
 20
-0.237868
 30
0.000000
 11
-0.450000
 21
0.237868
 31
0.000000
  0
ENDBLK
  8
0
  0
BLOCK
  8
0
  2
OCTAGONV
 70
64
 10
0.000000
 20
0.000000
 30
0.000000
  3
OCTAGONV
  0
POLYLINE
  8
0
 66
1
 10
0.000000
 20
0.000000
 30
0.000000
 40
0.000000
 41
0.000000
 70
1
  0
VERTEX
  8
0
 10
-0.500000
 20
-0.207107
 30
0.000000
  0
VERTEX
  8
0
 10
-0.500000
 20
0.207107
 30
0.000000
  0
VERTEX
  8
0
 10
-0.207107
 20
0.500000
 30
0.000000
  0
VERTEX
  8
0
 10
0.207107
 20
0.500000
 30
0.000000
  0
VERTEX
  8
0
 10
0.500000
 20
0.207107
 30
0.000000
  0
VERTEX
  8
0
 10
0.500000
 20
-0.207107
 30
0.000000
  0
VERTEX
  8
0
 10
0.207107
 20
-0.500000
 30
0.000000
  0
VERTEX
  8
0
 10
-0.207107
 20
-0.500000
 30
0.000000
  0
SEQEND
  8
0
  0
ENDBLK
  8
0
  0
BLOCK
  8
0
  2
SQUAREV
 70
64
 10
0.000000
 20
0.000000
 30
0.000000
  3
SQUAREV
  0
SOLID
  8
0
 10
-0.500000
 20
-0.500000
 30
0.000000
 11
0.500000
 21
-0.500000
 31
0.000000
 12
-0.500000
 22
0.500000
 32
0.000000
 13
0.500000
 23
0.500000
 33
0.000000
  0
ENDBLK
  8
0
  0
BLOCK
  8
0
  2
ROUNDV
 70
64
 10
0.000000
 20
0.000000
 30
0.000000
  3
ROUNDV
  0
CIRCLE
  8
0
 10
0.000000
 20
0.000000
 30
0.000000
 40
0.500000
  0
ENDBLK
  8
0
  0
BLOCK
  8
0
  2
ANNULUSV
 70
64
 10
0.000000
 20
0.000000
 30
0.000000
  3
ANNULUSV
  0
CIRCLE
  8
0
 10
0.000000
 20
0.000000
 30
0.000000
 40
0.500000
  0
ENDBLK
  8
0
  0
BLOCK
  8
0
  2
THERMALV
 70
64
 10
0.000000
 20
0.000000
 30
0.000000
  3
THERMALV
  0
LINE
  8
0
 10
-0.237868
 20
0.450000
 30
0.000000
 11
0.237868
 21
0.450000
 31
0.000000
  0
LINE
  8
0
 10
0.450000
 20
0.237868
 30
0.000000
 11
0.450000
 21
-0.237868
 31
0.000000
  0
LINE
  8
0
 10
0.237868
 20
-0.450000
 30
0.000000
 11
-0.237868
 21
-0.450000
 31
0.000000
  0
LINE
  8
0
 10
-0.450000
 20
-0.237868
 30
0.000000
 11
-0.450000
 21
0.237868
 31
0.000000
  0
ENDBLK
  8
0
  0
BLOCK
  8
0
  2
RECT103616X135616R100
 70
64
 10
0.000000
 20
0.000000
 30
0.000000
  3
RECT103616X135616R100
  0
POLYLINE
  8
0
 66
1
 10
0.000000
 20
0.000000
 30
0.000000
 40
0.000000
 41
0.000000
 70
1
  0
VERTEX
  8
0
 10
0.012748
 20
-0.003937
 30
0.000000
  0
VERTEX
  8
0
 10
0.012748
 20
0.003937
 30
0.000000
 42
0.414214
  0
VERTEX
  8
0
 10
0.000000
 20
0.016685
 30
0.000000
  0
VERTEX
  8
0
 10
0.000000
 20
0.016685
 30
0.000000
 42
0.414214
  0
VERTEX
  8
0
 10
-0.012748
 20
0.003937
 30
0.000000
  0
VERTEX
  8
0
 10
-0.012748
 20
-0.003937
 30
0.000000
 42
0.414214
  0
VERTEX
  8
0
 10
0.000000
 20
-0.016685
 30
0.000000
  0
VERTEX
  8
0
 10
0.000000
 20
-0.016685
 30
0.000000
 42
0.414214
  0
SEQEND
  8
0
  0
ENDBLK
  8
0
  0
BLOCK
  8
0
  2
RECT47616X280416R100
 70
64
 10
0.000000
 20
0.000000
 30
0.000000
  3
RECT47616X280416R100
  0
POLYLINE
  8
0
 66
1
 10
0.000000
 20
0.000000
 30
0.000000
 40
0.000000
 41
0.000000
 70
1
  0
VERTEX
  8
0
 10
0.005858
 20
-0.028642
 30
0.000000
  0
VERTEX
  8
0
 10
0.005858
 20
0.028642
 30
0.000000
 42
0.414214
  0
VERTEX
  8
0
 10
0.000000
 20
0.034500
 30
0.000000
  0
VERTEX
  8
0
 10
0.000000
 20
0.034500
 30
0.000000
 42
0.414214
  0
VERTEX
  8
0
 10
-0.005858
 20
0.028642
 30
0.000000
  0
VERTEX
  8
0
 10
-0.005858
 20
-0.028642
 30
0.000000
 42
0.414214
  0
VERTEX
  8
0
 10
0.000000
 20
-0.034500
 30
0.000000
  0
VERTEX
  8
0
 10
0.000000
 20
-0.034500
 30
0.000000
 42
0.414214
  0
SEQEND
  8
0
  0
ENDBLK
  8
0
  0
ENDSEC
  0
SECTION
  2
ENTITIES
  0
LINE
  8
20
 10
0.000000
 20
0.000000
 30
0.000000
 11
3.037008
 21
0.000000
 31
0.000000
  0
LINE
  8
20
 10
3.037008
 20
0.000000
 30
0.000000
 11
3.037008
 21
2.399606
 31
0.000000
  0
LINE
  8
20
 10
3.037008
 20
2.399606
 30
0.000000
 11
0.000000
 21
2.399606
 31
0.000000
  0
LINE
  8
20
 10
0.000000
 20
2.399606
 30
0.000000
 11
0.000000
 21
0.000000
 31
0.000000
  0
INSERT
  8
31
  2
RECT
 10
2.138000
 20
1.734000
 30
0.000000
 41
0.052000
 42
0.008000
 43
1.000000
 50
0.000000
  0
INSERT
  8
31
  2
RECT
 10
2.138000
 20
1.708000
 30
0.000000
 41
0.052000
 42
0.008000
 43
1.000000
 50
0.000000
  0
INSERT
  8
31
  2
RECT
 10
2.138000
 20
1.683000
 30
0.000000
 41
0.052000
 42
0.008000
 43
1.000000
 50
0.000000
  0
INSERT
  8
31
  2
RECT
 10
2.138000
 20
1.657000
 30
0.000000
 41
0.052000
 42
0.008000
 43
1.000000
 50
0.000000
  0
INSERT
  8
31
  2
RECT
 10
2.138000
 20
1.631000
 30
0.000000
 41
0.052000
 42
0.008000
 43
1.000000
 50
0.000000
  0
INSERT
  8
31
  2
RECT
 10
2.138000
 20
1.606000
 30
0.000000
 41
0.052000
 42
0.008000
 43
1.000000
 50
0.000000
  0
INSERT
  8
31
  2
RECT
 10
2.138000
 20
1.580000
 30
0.000000
 41
0.052000
 42
0.008000
 43
1.000000
 50
0.000000
  0
INSERT
  8
31
  2
RECT
 10
2.368000
 20
1.580000
 30
0.000000
 41
0.052000
 42
0.008000
 43
1.000000
 50
0.000000
  0
INSERT
  8
31
  2
RECT
 10
2.368000
 20
1.606000
 30
0.000000
 41
0.052000
 42
0.008000
 43
1.000000
 50
0.000000
  0
INSERT
  8
31
  2
RECT
 10
2.368000
 20
1.631000
 30
0.000000
 41
0.052000
 42
0.008000
 43
1.000000
 50
0.000000
  0
INSERT
  8
31
  2
RECT
 10
2.368000
 20
1.657000
 30
0.000000
 41
0.052000
 42
0.008000
 43
1.000000
 50
0.000000
  0
INSERT
  8
31
  2
RECT
 10
2.368000
 20
1.683000
 30
0.000000
 41
0.052000
 42
0.008000
 43
1.000000
 50
0.000000
  0
INSERT
  8
31
  2
RECT
 10
2.368000
 20
1.708000
 30
0.000000
 41
0.052000
 42
0.008000
 43
1.000000
 50
0.000000
  0
INSERT
  8
31
  2
RECT
 10
2.368000
 20
1.734000
 30
0.000000
 41
0.052000
 42
0.008000
 43
1.000000
 50
0.000000
  0
INSERT
  8
31
  2
RECT
 10
1.480567
 20
1.168000
 30
0.000000
 41
0.025496
 42
0.041244
 43
1.000000
 50
0.000000
  0
INSERT
  8
31
  2
RECT
 10
1.551433
 20
1.168000
 30
0.000000
 41
0.025496
 42
0.041244
 43
1.000000
 50
0.000000
  0
INSERT
  8
31
  2
RECT
 10
0.550000
 20
0.589370
 30
0.000000
 41
0.037307
 42
0.049118
 43
1.000000
 50
270.000000
  0
INSERT
  8
31
  2
RECT
 10
0.550000
 20
0.510630
 30
0.000000
 41
0.037307
 42
0.049118
 43
1.000000
 50
270.000000
  0
INSERT
  8
31
  2
RECT
 10
2.310370
 20
0.585000
 30
0.000000
 41
0.037307
 42
0.049118
 43
1.000000
 50
180.000000
  0
INSERT
  8
31
  2
RECT
 10
2.231630
 20
0.585000
 30
0.000000
 41
0.037307
 42
0.049118
 43
1.000000
 50
180.000000
  0
INSERT
  8
31
  2
RECT
 10
2.627630
 20
0.803000
 30
0.000000
 41
0.045181
 42
0.056992
 43
1.000000
 50
0.000000
  0
INSERT
  8
31
  2
RECT
 10
2.706370
 20
0.803000
 30
0.000000
 41
0.045181
 42
0.056992
 43
1.000000
 50
0.000000
  0
INSERT
  8
31
  2
RECT
 10
0.600000
 20
1.089370
 30
0.000000
 41
0.037307
 42
0.049118
 43
1.000000
 50
270.000000
  0
INSERT
  8
31
  2
RECT
 10
0.600000
 20
1.010630
 30
0.000000
 41
0.037307
 42
0.049118
 43
1.000000
 50
270.000000
  0
INSERT
  8
31
  2
RECT
 10
2.576000
 20
1.401567
 30
0.000000
 41
0.025496
 42
0.041244
 43
1.000000
 50
90.000000
  0
INSERT
  8
31
  2
RECT
 10
2.576000
 20
1.472433
 30
0.000000
 41
0.025496
 42
0.041244
 43
1.000000
 50
90.000000
  0
INSERT
  8
31
  2
RECT
 10
2.647000
 20
1.627433
 30
0.000000
 41
0.025496
 42
0.041244
 43
1.000000
 50
270.000000
  0
INSERT
  8
31
  2
RECT
 10
2.647000
 20
1.556567
 30
0.000000
 41
0.025496
 42
0.041244
 43
1.000000
 50
270.000000
  0
INSERT
  8
31
  2
RECT
 10
2.721630
 20
0.985000
 30
0.000000
 41
0.037307
 42
0.049118
 43
1.000000
 50
0.000000
  0
INSERT
  8
31
  2
RECT
 10
2.800370
 20
0.985000
 30
0.000000
 41
0.037307
 42
0.049118
 43
1.000000
 50
0.000000
  0
INSERT
  8
31
  2
RECT
 10
1.979000
 20
1.282661
 30
0.000000
 41
0.041244
 42
0.041244
 43
1.000000
 50
0.000000
  0
INSERT
  8
31
  2
RECT
 10
1.979000
 20
1.365339
 30
0.000000
 41
0.041244
 42
0.041244
 43
1.000000
 50
0.000000
  0
INSERT
  8
31
  2
RECT
 10
0.450000
 20
0.689370
 30
0.000000
 41
0.037307
 42
0.049118
 43
1.000000
 50
270.000000
  0
INSERT
  8
31
  2
RECT
 10
0.450000
 20
0.610630
 30
0.000000
 41
0.037307
 42
0.049118
 43
1.000000
 50
270.000000
  0
INSERT
  8
31
  2
RECT
 10
0.739370
 20
0.500000
 30
0.000000
 41
0.037307
 42
0.049118
 43
1.000000
 50
180.000000
  0
INSERT
  8
31
  2
RECT
 10
0.660630
 20
0.500000
 30
0.000000
 41
0.037307
 42
0.049118
 43
1.000000
 50
180.000000
  0
INSERT
  8
31
  2
RECT
 10
0.500000
 20
1.010630
 30
0.000000
 41
0.037307
 42
0.049118
 43
1.000000
 50
90.000000
  0
INSERT
  8
31
  2
RECT
 10
0.500000
 20
1.089370
 30
0.000000
 41
0.037307
 42
0.049118
 43
1.000000
 50
90.000000
  0
INSERT
  8
31
  2
RECT
 10
0.700000
 20
1.010630
 30
0.000000
 41
0.037307
 42
0.049118
 43
1.000000
 50
90.000000
  0
INSERT
  8
31
  2
RECT
 10
0.700000
 20
1.089370
 30
0.000000
 41
0.037307
 42
0.049118
 43
1.000000
 50
90.000000
  0
INSERT
  8
31
  2
RECT
 10
2.808000
 20
0.390835
 30
0.000000
 41
0.041244
 42
0.021559
 43
1.000000
 50
90.000000
  0
INSERT
  8
31
  2
RECT
 10
2.808000
 20
0.245165
 30
0.000000
 41
0.041244
 42
0.021559
 43
1.000000
 50
90.000000
  0
INSERT
  8
31
  2
RECT
 10
1.823000
 20
1.280661
 30
0.000000
 41
0.041244
 42
0.041244
 43
1.000000
 50
0.000000
  0
INSERT
  8
31
  2
RECT
 10
1.823000
 20
1.363339
 30
0.000000
 41
0.041244
 42
0.041244
 43
1.000000
 50
0.000000
  0
INSERT
  8
31
  2
RECT
 10
2.387504
 20
0.811496
 30
0.000000
 41
0.031496
 42
0.031496
 43
1.000000
 50
0.000000
  0
INSERT
  8
31
  2
RECT
 10
2.450496
 20
0.811496
 30
0.000000
 41
0.031496
 42
0.031496
 43
1.000000
 50
0.000000
  0
INSERT
  8
31
  2
RECT
 10
2.450496
 20
0.748504
 30
0.000000
 41
0.031496
 42
0.031496
 43
1.000000
 50
0.000000
  0
INSERT
  8
31
  2
RECT
 10
2.387504
 20
0.748504
 30
0.000000
 41
0.031496
 42
0.031496
 43
1.000000
 50
0.000000
  0
INSERT
  8
31
  2
RECT
 10
2.340260
 20
0.819370
 30
0.000000
 41
0.023528
 42
0.005811
 43
1.000000
 50
0.000000
  0
INSERT
  8
31
  2
RECT
 10
2.340260
 20
0.799685
 30
0.000000
 41
0.023528
 42
0.005811
 43
1.000000
 50
0.000000
  0
INSERT
  8
31
  2
RECT
 10
2.340260
 20
0.780000
 30
0.000000
 41
0.023528
 42
0.005811
 43
1.000000
 50
0.000000
  0
INSERT
  8
31
  2
RECT
 10
2.340260
 20
0.760315
 30
0.000000
 41
0.023528
 42
0.005811
 43
1.000000
 50
0.000000
  0
INSERT
  8
31
  2
RECT
 10
2.340260
 20
0.740630
 30
0.000000
 41
0.023528
 42
0.005811
 43
1.000000
 50
0.000000
  0
INSERT
  8
31
  2
RECT
 10
2.379630
 20
0.701260
 30
0.000000
 41
0.023528
 42
0.005811
 43
1.000000
 50
90.000000
  0
INSERT
  8
31
  2
RECT
 10
2.399315
 20
0.701260
 30
0.000000
 41
0.023528
 42
0.005811
 43
1.000000
 50
90.000000
  0
INSERT
  8
31
  2
RECT
 10
2.419000
 20
0.701260
 30
0.000000
 41
0.023528
 42
0.005811
 43
1.000000
 50
90.000000
  0
INSERT
  8
31
  2
RECT
 10
2.438685
 20
0.701260
 30
0.000000
 41
0.023528
 42
0.005811
 43
1.000000
 50
90.000000
  0
INSERT
  8
31
  2
RECT
 10
2.458370
 20
0.701260
 30
0.000000
 41
0.023528
 42
0.005811
 43
1.000000
 50
90.000000
  0
INSERT
  8
31
  2
RECT
 10
2.497740
 20
0.740630
 30
0.000000
 41
0.023528
 42
0.005811
 43
1.000000
 50
180.000000
  0
INSERT
  8
31
  2
RECT
 10
2.497740
 20
0.760315
 30
0.000000
 41
0.023528
 42
0.005811
 43
1.000000
 50
180.000000
  0
INSERT
  8
31
  2
RECT
 10
2.497740
 20
0.780000
 30
0.000000
 41
0.023528
 42
0.005811
 43
1.000000
 50
180.000000
  0
INSERT
  8
31
  2
RECT
 10
2.497740
 20
0.799685
 30
0.000000
 41
0.023528
 42
0.005811
 43
1.000000
 50
180.000000
  0
INSERT
  8
31
  2
RECT
 10
2.497740
 20
0.819370
 30
0.000000
 41
0.023528
 42
0.005811
 43
1.000000
 50
180.000000
  0
INSERT
  8
31
  2
RECT
 10
2.458370
 20
0.858740
 30
0.000000
 41
0.023528
 42
0.005811
 43
1.000000
 50
270.000000
  0
INSERT
  8
31
  2
RECT
 10
2.438685
 20
0.858740
 30
0.000000
 41
0.023528
 42
0.005811
 43
1.000000
 50
270.000000
  0
INSERT
  8
31
  2
RECT
 10
2.419000
 20
0.858740
 30
0.000000
 41
0.023528
 42
0.005811
 43
1.000000
 50
270.000000
  0
INSERT
  8
31
  2
RECT
 10
2.399315
 20
0.858740
 30
0.000000
 41
0.023528
 42
0.005811
 43
1.000000
 50
270.000000
  0
INSERT
  8
31
  2
RECT
 10
2.379630
 20
0.858740
 30
0.000000
 41
0.023528
 42
0.005811
 43
1.000000
 50
270.000000
  0
INSERT
  8
31
  2
RECT
 10
2.875134
 20
0.886370
 30
0.000000
 41
0.033370
 42
0.210535
 43
1.000000
 50
270.000000
  0
INSERT
  8
31
  2
RECT
 10
2.875134
 20
0.807630
 30
0.000000
 41
0.033370
 42
0.210535
 43
1.000000
 50
270.000000
  0
INSERT
  8
31
  2
RECT
 10
2.946000
 20
0.980858
 30
0.000000
 41
0.127858
 42
0.056992
 43
1.000000
 50
0.000000
  0
INSERT
  8
31
  2
RECT
 10
2.946000
 20
0.713142
 30
0.000000
 41
0.127858
 42
0.056992
 43
1.000000
 50
0.000000
  0
INSERT
  8
31
  2
RECT
 10
2.876134
 20
0.541370
 30
0.000000
 41
0.033370
 42
0.210535
 43
1.000000
 50
270.000000
  0
INSERT
  8
31
  2
RECT
 10
2.876134
 20
0.462630
 30
0.000000
 41
0.033370
 42
0.210535
 43
1.000000
 50
270.000000
  0
INSERT
  8
31
  2
RECT
 10
2.947000
 20
0.635858
 30
0.000000
 41
0.127858
 42
0.056992
 43
1.000000
 50
0.000000
  0
INSERT
  8
31
  2
RECT
 10
2.947000
 20
0.368142
 30
0.000000
 41
0.127858
 42
0.056992
 43
1.000000
 50
0.000000
  0
INSERT
  8
31
  2
RECT
 10
0.525000
 20
0.697000
 30
0.000000
 41
0.018000
 42
0.081000
 43
1.000000
 50
0.000000
  0
INSERT
  8
31
  2
RECT
 10
0.575000
 20
0.697000
 30
0.000000
 41
0.018000
 42
0.081000
 43
1.000000
 50
0.000000
  0
INSERT
  8
31
  2
RECT
 10
0.625000
 20
0.697000
 30
0.000000
 41
0.018000
 42
0.081000
 43
1.000000
 50
0.000000
  0
INSERT
  8
31
  2
RECT
 10
0.675000
 20
0.697000
 30
0.000000
 41
0.018000
 42
0.081000
 43
1.000000
 50
0.000000
  0
INSERT
  8
31
  2
RECT
 10
0.675000
 20
0.903000
 30
0.000000
 41
0.018000
 42
0.081000
 43
1.000000
 50
0.000000
  0
INSERT
  8
31
  2
RECT
 10
0.625000
 20
0.903000
 30
0.000000
 41
0.018000
 42
0.081000
 43
1.000000
 50
0.000000
  0
INSERT
  8
31
  2
RECT
 10
0.575000
 20
0.903000
 30
0.000000
 41
0.018000
 42
0.081000
 43
1.000000
 50
0.000000
  0
INSERT
  8
31
  2
RECT
 10
0.525000
 20
0.903000
 30
0.000000
 41
0.018000
 42
0.081000
 43
1.000000
 50
0.000000
  0
INSERT
  8
31
  2
RECT
 10
0.639370
 20
0.170866
 30
0.000000
 41
0.033370
 42
0.210535
 43
1.000000
 50
180.000000
  0
INSERT
  8
31
  2
RECT
 10
0.560630
 20
0.170866
 30
0.000000
 41
0.033370
 42
0.210535
 43
1.000000
 50
180.000000
  0
INSERT
  8
31
  2
RECT
 10
0.733858
 20
0.100000
 30
0.000000
 41
0.127858
 42
0.056992
 43
1.000000
 50
270.000000
  0
INSERT
  8
31
  2
RECT
 10
0.466142
 20
0.100000
 30
0.000000
 41
0.127858
 42
0.056992
 43
1.000000
 50
270.000000
  0
INSERT
  8
31
  2
RECT
 10
0.291370
 20
0.169866
 30
0.000000
 41
0.033370
 42
0.210535
 43
1.000000
 50
180.000000
  0
INSERT
  8
31
  2
RECT
 10
0.212630
 20
0.169866
 30
0.000000
 41
0.033370
 42
0.210535
 43
1.000000
 50
180.000000
  0
INSERT
  8
31
  2
RECT
 10
0.385858
 20
0.099000
 30
0.000000
 41
0.127858
 42
0.056992
 43
1.000000
 50
270.000000
  0
INSERT
  8
31
  2
RECT
 10
0.118142
 20
0.099000
 30
0.000000
 41
0.127858
 42
0.056992
 43
1.000000
 50
270.000000
  0
INSERT
  8
31
  2
RECT
 10
2.131000
 20
1.499000
 30
0.000000
 41
0.020000
 42
0.002000
 43
1.000000
 50
180.000000
  0
INSERT
  8
31
  2
RECT
 10
2.131000
 20
1.513000
 30
0.000000
 41
0.020000
 42
0.002000
 43
1.000000
 50
180.000000
  0
INSERT
  8
31
  2
RECT
 10
2.131000
 20
1.527000
 30
0.000000
 41
0.020000
 42
0.002000
 43
1.000000
 50
180.000000
  0
INSERT
  8
31
  2
RECT
 10
2.131000
 20
1.541000
 30
0.000000
 41
0.020000
 42
0.002000
 43
1.000000
 50
180.000000
  0
INSERT
  8
31
  2
RECT
 10
2.091000
 20
1.541000
 30
0.000000
 41
0.020000
 42
0.002000
 43
1.000000
 50
180.000000
  0
INSERT
  8
31
  2
RECT
 10
2.091000
 20
1.527000
 30
0.000000
 41
0.020000
 42
0.002000
 43
1.000000
 50
180.000000
  0
INSERT
  8
31
  2
RECT
 10
2.091000
 20
1.513000
 30
0.000000
 41
0.020000
 42
0.002000
 43
1.000000
 50
180.000000
  0
INSERT
  8
31
  2
RECT
 10
2.091000
 20
1.499000
 30
0.000000
 41
0.020000
 42
0.002000
 43
1.000000
 50
180.000000
  0
INSERT
  8
31
  2
RECT
 10
2.094000
 20
1.285661
 30
0.000000
 41
0.041244
 42
0.041244
 43
1.000000
 50
0.000000
  0
INSERT
  8
31
  2
RECT
 10
2.094000
 20
1.368339
 30
0.000000
 41
0.041244
 42
0.041244
 43
1.000000
 50
0.000000
  0
INSERT
  8
31
  2
RECT
 10
2.053402
 20
0.768370
 30
0.000000
 41
0.025496
 42
0.029433
 43
1.000000
 50
180.000000
  0
INSERT
  8
31
  2
RECT
 10
1.978598
 20
0.768370
 30
0.000000
 41
0.025496
 42
0.029433
 43
1.000000
 50
180.000000
  0
INSERT
  8
31
  2
RECT
 10
2.016000
 20
0.685693
 30
0.000000
 41
0.025496
 42
0.029433
 43
1.000000
 50
180.000000
  0
INSERT
  8
31
  2
RECT
 10
0.349000
 20
2.038433
 30
0.000000
 41
0.025496
 42
0.041244
 43
1.000000
 50
270.000000
  0
INSERT
  8
31
  2
RECT
 10
0.349000
 20
1.967567
 30
0.000000
 41
0.025496
 42
0.041244
 43
1.000000
 50
270.000000
  0
INSERT
  8
31
  2
RECT
 10
0.114567
 20
2.150000
 30
0.000000
 41
0.025496
 42
0.041244
 43
1.000000
 50
0.000000
  0
INSERT
  8
31
  2
RECT
 10
0.185433
 20
2.150000
 30
0.000000
 41
0.025496
 42
0.041244
 43
1.000000
 50
0.000000
  0
INSERT
  8
31
  2
RECT
 10
2.239567
 20
0.672000
 30
0.000000
 41
0.025496
 42
0.041244
 43
1.000000
 50
0.000000
  0
INSERT
  8
31
  2
RECT
 10
2.310433
 20
0.672000
 30
0.000000
 41
0.025496
 42
0.041244
 43
1.000000
 50
0.000000
  0
INSERT
  8
31
  2
RECT
 10
2.171567
 20
0.746000
 30
0.000000
 41
0.025496
 42
0.041244
 43
1.000000
 50
0.000000
  0
INSERT
  8
31
  2
RECT
 10
2.242433
 20
0.746000
 30
0.000000
 41
0.025496
 42
0.041244
 43
1.000000
 50
0.000000
  0
INSERT
  8
31
  2
RECT
 10
1.823000
 20
1.436567
 30
0.000000
 41
0.025496
 42
0.041244
 43
1.000000
 50
90.000000
  0
INSERT
  8
31
  2
RECT
 10
1.823000
 20
1.507433
 30
0.000000
 41
0.025496
 42
0.041244
 43
1.000000
 50
90.000000
  0
INSERT
  8
31
  2
RECT
 10
2.097567
 20
1.437000
 30
0.000000
 41
0.025496
 42
0.041244
 43
1.000000
 50
0.000000
  0
INSERT
  8
31
  2
RECT
 10
2.168433
 20
1.437000
 30
0.000000
 41
0.025496
 42
0.041244
 43
1.000000
 50
0.000000
  0
INSERT
  8
31
  2
RECT
 10
2.700433
 20
0.737000
 30
0.000000
 41
0.025496
 42
0.041244
 43
1.000000
 50
180.000000
  0
INSERT
  8
31
  2
RECT
 10
2.629567
 20
0.737000
 30
0.000000
 41
0.025496
 42
0.041244
 43
1.000000
 50
180.000000
  0
INSERT
  8
31
  2
RECT
 10
2.423433
 20
1.122000
 30
0.000000
 41
0.025496
 42
0.041244
 43
1.000000
 50
180.000000
  0
INSERT
  8
31
  2
RECT
 10
2.352567
 20
1.122000
 30
0.000000
 41
0.025496
 42
0.041244
 43
1.000000
 50
180.000000
  0
INSERT
  8
31
  2
RECT
 10
2.606000
 20
1.007567
 30
0.000000
 41
0.025496
 42
0.041244
 43
1.000000
 50
90.000000
  0
INSERT
  8
31
  2
RECT
 10
2.606000
 20
1.078433
 30
0.000000
 41
0.025496
 42
0.041244
 43
1.000000
 50
90.000000
  0
INSERT
  8
31
  2
RECT
 10
0.114567
 20
1.650000
 30
0.000000
 41
0.025496
 42
0.041244
 43
1.000000
 50
0.000000
  0
INSERT
  8
31
  2
RECT
 10
0.185433
 20
1.650000
 30
0.000000
 41
0.025496
 42
0.041244
 43
1.000000
 50
0.000000
  0
INSERT
  8
31
  2
RECT
 10
2.699433
 20
0.673000
 30
0.000000
 41
0.025496
 42
0.041244
 43
1.000000
 50
180.000000
  0
INSERT
  8
31
  2
RECT
 10
2.628567
 20
0.673000
 30
0.000000
 41
0.025496
 42
0.041244
 43
1.000000
 50
180.000000
  0
INSERT
  8
31
  2
RECT
 10
1.535433
 20
1.500000
 30
0.000000
 41
0.025496
 42
0.041244
 43
1.000000
 50
180.000000
  0
INSERT
  8
31
  2
RECT
 10
1.464567
 20
1.500000
 30
0.000000
 41
0.025496
 42
0.041244
 43
1.000000
 50
180.000000
  0
INSERT
  8
31
  2
RECT
 10
1.922000
 20
1.225433
 30
0.000000
 41
0.025496
 42
0.041244
 43
1.000000
 50
270.000000
  0
INSERT
  8
31
  2
RECT
 10
1.922000
 20
1.154567
 30
0.000000
 41
0.025496
 42
0.041244
 43
1.000000
 50
270.000000
  0
INSERT
  8
31
  2
RECT
 10
2.250000
 20
2.089567
 30
0.000000
 41
0.025496
 42
0.041244
 43
1.000000
 50
90.000000
  0
INSERT
  8
31
  2
RECT
 10
2.250000
 20
2.160433
 30
0.000000
 41
0.025496
 42
0.041244
 43
1.000000
 50
90.000000
  0
INSERT
  8
31
  2
RECT
 10
2.450000
 20
2.089567
 30
0.000000
 41
0.025496
 42
0.041244
 43
1.000000
 50
90.000000
  0
INSERT
  8
31
  2
RECT
 10
2.450000
 20
2.160433
 30
0.000000
 41
0.025496
 42
0.041244
 43
1.000000
 50
90.000000
  0
INSERT
  8
31
  2
RECT
 10
0.114567
 20
1.400000
 30
0.000000
 41
0.025496
 42
0.041244
 43
1.000000
 50
0.000000
  0
INSERT
  8
31
  2
RECT
 10
0.185433
 20
1.400000
 30
0.000000
 41
0.025496
 42
0.041244
 43
1.000000
 50
0.000000
  0
INSERT
  8
31
  2
RECT
 10
0.114567
 20
1.150000
 30
0.000000
 41
0.025496
 42
0.041244
 43
1.000000
 50
0.000000
  0
INSERT
  8
31
  2
RECT
 10
0.185433
 20
1.150000
 30
0.000000
 41
0.025496
 42
0.041244
 43
1.000000
 50
0.000000
  0
INSERT
  8
31
  2
RECT
 10
1.455000
 20
2.225433
 30
0.000000
 41
0.025496
 42
0.041244
 43
1.000000
 50
270.000000
  0
INSERT
  8
31
  2
RECT
 10
1.455000
 20
2.154567
 30
0.000000
 41
0.025496
 42
0.041244
 43
1.000000
 50
270.000000
  0
INSERT
  8
31
  2
RECT
 10
1.201000
 20
2.232433
 30
0.000000
 41
0.025496
 42
0.041244
 43
1.000000
 50
270.000000
  0
INSERT
  8
31
  2
RECT
 10
1.201000
 20
2.161567
 30
0.000000
 41
0.025496
 42
0.041244
 43
1.000000
 50
270.000000
  0
INSERT
  8
31
  2
RECT
 10
0.953000
 20
2.232433
 30
0.000000
 41
0.025496
 42
0.041244
 43
1.000000
 50
270.000000
  0
INSERT
  8
31
  2
RECT
 10
0.953000
 20
2.161567
 30
0.000000
 41
0.025496
 42
0.041244
 43
1.000000
 50
270.000000
  0
INSERT
  8
31
  2
RECT
 10
0.679000
 20
2.234433
 30
0.000000
 41
0.025496
 42
0.041244
 43
1.000000
 50
270.000000
  0
INSERT
  8
31
  2
RECT
 10
0.679000
 20
2.163567
 30
0.000000
 41
0.025496
 42
0.041244
 43
1.000000
 50
270.000000
  0
INSERT
  8
31
  2
RECT
 10
0.114567
 20
1.900000
 30
0.000000
 41
0.025496
 42
0.041244
 43
1.000000
 50
0.000000
  0
INSERT
  8
31
  2
RECT
 10
0.185433
 20
1.900000
 30
0.000000
 41
0.025496
 42
0.041244
 43
1.000000
 50
0.000000
  0
INSERT
  8
31
  2
RECT
 10
0.743000
 20
2.232433
 30
0.000000
 41
0.025496
 42
0.041244
 43
1.000000
 50
270.000000
  0
INSERT
  8
31
  2
RECT
 10
0.743000
 20
2.161567
 30
0.000000
 41
0.025496
 42
0.041244
 43
1.000000
 50
270.000000
  0
INSERT
  8
31
  2
RECT
 10
2.650000
 20
2.089567
 30
0.000000
 41
0.025496
 42
0.041244
 43
1.000000
 50
90.000000
  0
INSERT
  8
31
  2
RECT
 10
2.650000
 20
2.160433
 30
0.000000
 41
0.025496
 42
0.041244
 43
1.000000
 50
90.000000
  0
INSERT
  8
31
  2
RECT
 10
1.693567
 20
1.749000
 30
0.000000
 41
0.025496
 42
0.041244
 43
1.000000
 50
0.000000
  0
INSERT
  8
31
  2
RECT
 10
1.764433
 20
1.749000
 30
0.000000
 41
0.025496
 42
0.041244
 43
1.000000
 50
0.000000
  0
INSERT
  8
31
  2
RECT
 10
1.979000
 20
1.224433
 30
0.000000
 41
0.025496
 42
0.041244
 43
1.000000
 50
270.000000
  0
INSERT
  8
31
  2
RECT
 10
1.979000
 20
1.153567
 30
0.000000
 41
0.025496
 42
0.041244
 43
1.000000
 50
270.000000
  0
INSERT
  8
31
  2
RECT
 10
1.823000
 20
1.226433
 30
0.000000
 41
0.025496
 42
0.041244
 43
1.000000
 50
270.000000
  0
INSERT
  8
31
  2
RECT
 10
1.823000
 20
1.155567
 30
0.000000
 41
0.025496
 42
0.041244
 43
1.000000
 50
270.000000
  0
INSERT
  8
31
  2
RECT
 10
2.096000
 20
1.227433
 30
0.000000
 41
0.025496
 42
0.041244
 43
1.000000
 50
270.000000
  0
INSERT
  8
31
  2
RECT
 10
2.096000
 20
1.156567
 30
0.000000
 41
0.025496
 42
0.041244
 43
1.000000
 50
270.000000
  0
INSERT
  8
31
  2
RECT
 10
1.762000
 20
1.612567
 30
0.000000
 41
0.025496
 42
0.041244
 43
1.000000
 50
90.000000
  0
INSERT
  8
31
  2
RECT
 10
1.762000
 20
1.683433
 30
0.000000
 41
0.025496
 42
0.041244
 43
1.000000
 50
90.000000
  0
INSERT
  8
31
  2
RECT
 10
0.414567
 20
0.900000
 30
0.000000
 41
0.025496
 42
0.041244
 43
1.000000
 50
0.000000
  0
INSERT
  8
31
  2
RECT
 10
0.485433
 20
0.900000
 30
0.000000
 41
0.025496
 42
0.041244
 43
1.000000
 50
0.000000
  0
INSERT
  8
31
  2
RECT
 10
0.750000
 20
0.835433
 30
0.000000
 41
0.025496
 42
0.041244
 43
1.000000
 50
270.000000
  0
INSERT
  8
31
  2
RECT
 10
0.750000
 20
0.764567
 30
0.000000
 41
0.025496
 42
0.041244
 43
1.000000
 50
270.000000
  0
INSERT
  8
31
  2
RECT
 10
0.450000
 20
0.764567
 30
0.000000
 41
0.025496
 42
0.041244
 43
1.000000
 50
90.000000
  0
INSERT
  8
31
  2
RECT
 10
0.450000
 20
0.835433
 30
0.000000
 41
0.025496
 42
0.041244
 43
1.000000
 50
90.000000
  0
INSERT
  8
31
  2
RECT
 10
0.735433
 20
0.600000
 30
0.000000
 41
0.025496
 42
0.041244
 43
1.000000
 50
180.000000
  0
INSERT
  8
31
  2
RECT
 10
0.664567
 20
0.600000
 30
0.000000
 41
0.025496
 42
0.041244
 43
1.000000
 50
180.000000
  0
INSERT
  8
31
  2
RECT
 10
2.219000
 20
0.812567
 30
0.000000
 41
0.025496
 42
0.041244
 43
1.000000
 50
90.000000
  0
INSERT
  8
31
  2
RECT
 10
2.219000
 20
0.883433
 30
0.000000
 41
0.025496
 42
0.041244
 43
1.000000
 50
90.000000
  0
INSERT
  8
31
  2
RECT
 10
2.278000
 20
0.955433
 30
0.000000
 41
0.025496
 42
0.041244
 43
1.000000
 50
270.000000
  0
INSERT
  8
31
  2
RECT
 10
2.278000
 20
0.884567
 30
0.000000
 41
0.025496
 42
0.041244
 43
1.000000
 50
270.000000
  0
INSERT
  8
31
  2
RECT
 10
0.170866
 20
0.460630
 30
0.000000
 41
0.033370
 42
0.210535
 43
1.000000
 50
90.000000
  0
INSERT
  8
31
  2
RECT
 10
0.170866
 20
0.539370
 30
0.000000
 41
0.033370
 42
0.210535
 43
1.000000
 50
90.000000
  0
INSERT
  8
31
  2
RECT
 10
0.100000
 20
0.366142
 30
0.000000
 41
0.127858
 42
0.056992
 43
1.000000
 50
180.000000
  0
INSERT
  8
31
  2
RECT
 10
0.100000
 20
0.633858
 30
0.000000
 41
0.127858
 42
0.056992
 43
1.000000
 50
180.000000
  0
INSERT
  8
31
  2
RECT
 10
0.170866
 20
0.860630
 30
0.000000
 41
0.033370
 42
0.210535
 43
1.000000
 50
90.000000
  0
INSERT
  8
31
  2
RECT
 10
0.170866
 20
0.939370
 30
0.000000
 41
0.033370
 42
0.210535
 43
1.000000
 50
90.000000
  0
INSERT
  8
31
  2
RECT
 10
0.100000
 20
0.766142
 30
0.000000
 41
0.127858
 42
0.056992
 43
1.000000
 50
180.000000
  0
INSERT
  8
31
  2
RECT
 10
0.100000
 20
1.033858
 30
0.000000
 41
0.127858
 42
0.056992
 43
1.000000
 50
180.000000
  0
INSERT
  8
31
  2
RECT
 10
0.412000
 20
1.812000
 30
0.000000
 41
0.075000
 42
0.018000
 43
1.000000
 50
90.000000
  0
INSERT
  8
31
  2
RECT
 10
0.462000
 20
1.812000
 30
0.000000
 41
0.075000
 42
0.018000
 43
1.000000
 50
90.000000
  0
INSERT
  8
31
  2
RECT
 10
0.512000
 20
1.812000
 30
0.000000
 41
0.075000
 42
0.018000
 43
1.000000
 50
90.000000
  0
INSERT
  8
31
  2
RECT
 10
0.562000
 20
1.812000
 30
0.000000
 41
0.075000
 42
0.018000
 43
1.000000
 50
90.000000
  0
INSERT
  8
31
  2
RECT
 10
0.612000
 20
1.812000
 30
0.000000
 41
0.075000
 42
0.018000
 43
1.000000
 50
90.000000
  0
INSERT
  8
31
  2
RECT
 10
0.662000
 20
1.812000
 30
0.000000
 41
0.075000
 42
0.018000
 43
1.000000
 50
90.000000
  0
INSERT
  8
31
  2
RECT
 10
0.712000
 20
1.812000
 30
0.000000
 41
0.075000
 42
0.018000
 43
1.000000
 50
90.000000
  0
INSERT
  8
31
  2
RECT
 10
0.762000
 20
1.812000
 30
0.000000
 41
0.075000
 42
0.018000
 43
1.000000
 50
90.000000
  0
INSERT
  8
31
  2
RECT
 10
0.762000
 20
2.001000
 30
0.000000
 41
0.075000
 42
0.018000
 43
1.000000
 50
90.000000
  0
INSERT
  8
31
  2
RECT
 10
0.712000
 20
2.001000
 30
0.000000
 41
0.075000
 42
0.018000
 43
1.000000
 50
90.000000
  0
INSERT
  8
31
  2
RECT
 10
0.662000
 20
2.001000
 30
0.000000
 41
0.075000
 42
0.018000
 43
1.000000
 50
90.000000
  0
INSERT
  8
31
  2
RECT
 10
0.612000
 20
2.001000
 30
0.000000
 41
0.075000
 42
0.018000
 43
1.000000
 50
90.000000
  0
INSERT
  8
31
  2
RECT
 10
0.562000
 20
2.001000
 30
0.000000
 41
0.075000
 42
0.018000
 43
1.000000
 50
90.000000
  0
INSERT
  8
31
  2
RECT
 10
0.512000
 20
2.001000
 30
0.000000
 41
0.075000
 42
0.018000
 43
1.000000
 50
90.000000
  0
INSERT
  8
31
  2
RECT
 10
0.462000
 20
2.001000
 30
0.000000
 41
0.075000
 42
0.018000
 43
1.000000
 50
90.000000
  0
INSERT
  8
31
  2
RECT
 10
0.412000
 20
2.001000
 30
0.000000
 41
0.075000
 42
0.018000
 43
1.000000
 50
90.000000
  0
INSERT
  8
31
  2
RECT
 10
2.472000
 20
1.209000
 30
0.000000
 41
0.042000
 42
0.082000
 43
1.000000
 50
90.000000
  0
INSERT
  8
31
  2
RECT
 10
2.472000
 20
1.300000
 30
0.000000
 41
0.042000
 42
0.082000
 43
1.000000
 50
90.000000
  0
INSERT
  8
31
  2
RECT
 10
2.472000
 20
1.391000
 30
0.000000
 41
0.042000
 42
0.082000
 43
1.000000
 50
90.000000
  0
INSERT
  8
31
  2
RECT
 10
2.227992
 20
1.300000
 30
0.000000
 41
0.135732
 42
0.080614
 43
1.000000
 50
90.000000
  0
INSERT
  8
31
  2
RECT
 10
2.774000
 20
0.163315
 30
0.000000
 41
0.047150
 42
0.009748
 43
1.000000
 50
90.000000
  0
INSERT
  8
31
  2
RECT
 10
2.748409
 20
0.163315
 30
0.000000
 41
0.047150
 42
0.009748
 43
1.000000
 50
90.000000
  0
INSERT
  8
31
  2
RECT
 10
2.825181
 20
0.163315
 30
0.000000
 41
0.047150
 42
0.009748
 43
1.000000
 50
90.000000
  0
INSERT
  8
31
  2
RECT
 10
2.799591
 20
0.163315
 30
0.000000
 41
0.047150
 42
0.009748
 43
1.000000
 50
90.000000
  0
INSERT
  8
31
  2
RECT
 10
2.648016
 20
0.154457
 30
0.000000
 41
0.056992
 42
0.049118
 43
1.000000
 50
90.000000
  0
INSERT
  8
31
  2
RECT
 10
2.899984
 20
0.154457
 30
0.000000
 41
0.056992
 42
0.049118
 43
1.000000
 50
90.000000
  0
INSERT
  8
31
  2
RECT
 10
2.821244
 20
0.058000
 30
0.000000
 41
0.068803
 42
0.068803
 43
1.000000
 50
90.000000
  0
INSERT
  8
31
  2
RECT
 10
2.726756
 20
0.058000
 30
0.000000
 41
0.068803
 42
0.068803
 43
1.000000
 50
90.000000
  0
INSERT
  8
31
  2
RECT
 10
2.722819
 20
0.163315
 30
0.000000
 41
0.047150
 42
0.009748
 43
1.000000
 50
90.000000
  0
INSERT
  8
31
  2
RECT
 10
1.154504
 20
0.272575
 30
0.000000
 41
0.056992
 42
0.025496
 43
1.000000
 50
180.000000
  0
INSERT
  8
31
  2
RECT
 10
1.686000
 20
0.178087
 30
0.000000
 41
0.056992
 42
0.025496
 43
1.000000
 50
180.000000
  0
INSERT
  8
31
  2
RECT
 10
1.686000
 20
0.036354
 30
0.000000
 41
0.056992
 42
0.025496
 43
1.000000
 50
180.000000
  0
INSERT
  8
31
  2
RECT
 10
1.652535
 20
0.871000
 30
0.000000
 41
0.056992
 42
0.025496
 43
1.000000
 50
270.000000
  0
INSERT
  8
31
  2
RECT
 10
1.187969
 20
0.871000
 30
0.000000
 41
0.056992
 42
0.025496
 43
1.000000
 50
270.000000
  0
INSERT
  8
31
  2
RECT
 10
1.154504
 20
0.036354
 30
0.000000
 41
0.056992
 42
0.025496
 43
1.000000
 50
180.000000
  0
INSERT
  8
31
  2
RECT103616X135616R100
 10
1.558047
 20
0.056039
 30
0.000000
 41
1.000000
 42
1.000000
 43
1.000000
 50
180.000000
  0
INSERT
  8
31
  2
RECT103616X135616R100
 10
1.502929
 20
0.056039
 30
0.000000
 41
1.000000
 42
1.000000
 43
1.000000
 50
180.000000
  0
INSERT
  8
31
  2
RECT103616X135616R100
 10
1.447811
 20
0.056039
 30
0.000000
 41
1.000000
 42
1.000000
 43
1.000000
 50
180.000000
  0
INSERT
  8
31
  2
RECT103616X135616R100
 10
1.392693
 20
0.056039
 30
0.000000
 41
1.000000
 42
1.000000
 43
1.000000
 50
180.000000
  0
INSERT
  8
31
  2
RECT103616X135616R100
 10
1.337575
 20
0.056039
 30
0.000000
 41
1.000000
 42
1.000000
 43
1.000000
 50
180.000000
  0
INSERT
  8
31
  2
RECT103616X135616R100
 10
1.282457
 20
0.056039
 30
0.000000
 41
1.000000
 42
1.000000
 43
1.000000
 50
180.000000
  0
INSERT
  8
31
  2
RECT
 10
1.686000
 20
0.130843
 30
0.000000
 41
0.056992
 42
0.025496
 43
1.000000
 50
180.000000
  0
INSERT
  8
31
  2
RECT
 10
1.686000
 20
0.083598
 30
0.000000
 41
0.056992
 42
0.025496
 43
1.000000
 50
180.000000
  0
INSERT
  8
31
  2
RECT
 10
1.686000
 20
0.225331
 30
0.000000
 41
0.056992
 42
0.025496
 43
1.000000
 50
180.000000
  0
INSERT
  8
31
  2
RECT
 10
1.686000
 20
0.272575
 30
0.000000
 41
0.056992
 42
0.025496
 43
1.000000
 50
180.000000
  0
INSERT
  8
31
  2
RECT
 10
1.538362
 20
0.871000
 30
0.000000
 41
0.056992
 42
0.025496
 43
1.000000
 50
270.000000
  0
INSERT
  8
31
  2
RECT
 10
1.585606
 20
0.871000
 30
0.000000
 41
0.056992
 42
0.025496
 43
1.000000
 50
270.000000
  0
INSERT
  8
31
  2
RECT
 10
1.686000
 20
0.508795
 30
0.000000
 41
0.056992
 42
0.025496
 43
1.000000
 50
180.000000
  0
INSERT
  8
31
  2
RECT
 10
1.686000
 20
0.461551
 30
0.000000
 41
0.056992
 42
0.025496
 43
1.000000
 50
180.000000
  0
INSERT
  8
31
  2
RECT
 10
1.686000
 20
0.414307
 30
0.000000
 41
0.056992
 42
0.025496
 43
1.000000
 50
180.000000
  0
INSERT
  8
31
  2
RECT
 10
1.686000
 20
0.319819
 30
0.000000
 41
0.056992
 42
0.025496
 43
1.000000
 50
180.000000
  0
INSERT
  8
31
  2
RECT
 10
1.686000
 20
0.367063
 30
0.000000
 41
0.056992
 42
0.025496
 43
1.000000
 50
180.000000
  0
INSERT
  8
31
  2
RECT
 10
1.154504
 20
0.556039
 30
0.000000
 41
0.056992
 42
0.025496
 43
1.000000
 50
180.000000
  0
INSERT
  8
31
  2
RECT
 10
1.154504
 20
0.603283
 30
0.000000
 41
0.056992
 42
0.025496
 43
1.000000
 50
180.000000
  0
INSERT
  8
31
  2
RECT
 10
1.154504
 20
0.508795
 30
0.000000
 41
0.056992
 42
0.025496
 43
1.000000
 50
180.000000
  0
INSERT
  8
31
  2
RECT
 10
1.154504
 20
0.461551
 30
0.000000
 41
0.056992
 42
0.025496
 43
1.000000
 50
180.000000
  0
INSERT
  8
31
  2
RECT
 10
1.154504
 20
0.367063
 30
0.000000
 41
0.056992
 42
0.025496
 43
1.000000
 50
180.000000
  0
INSERT
  8
31
  2
RECT
 10
1.154504
 20
0.414307
 30
0.000000
 41
0.056992
 42
0.025496
 43
1.000000
 50
180.000000
  0
INSERT
  8
31
  2
RECT
 10
1.154504
 20
0.319819
 30
0.000000
 41
0.056992
 42
0.025496
 43
1.000000
 50
180.000000
  0
INSERT
  8
31
  2
RECT
 10
1.254898
 20
0.871000
 30
0.000000
 41
0.056992
 42
0.025496
 43
1.000000
 50
270.000000
  0
INSERT
  8
31
  2
RECT
 10
1.396630
 20
0.871000
 30
0.000000
 41
0.056992
 42
0.025496
 43
1.000000
 50
270.000000
  0
INSERT
  8
31
  2
RECT
 10
1.349386
 20
0.871000
 30
0.000000
 41
0.056992
 42
0.025496
 43
1.000000
 50
270.000000
  0
INSERT
  8
31
  2
RECT
 10
1.302142
 20
0.871000
 30
0.000000
 41
0.056992
 42
0.025496
 43
1.000000
 50
270.000000
  0
INSERT
  8
31
  2
RECT
 10
1.491118
 20
0.871000
 30
0.000000
 41
0.056992
 42
0.025496
 43
1.000000
 50
270.000000
  0
INSERT
  8
31
  2
RECT
 10
1.154504
 20
0.745016
 30
0.000000
 41
0.056992
 42
0.025496
 43
1.000000
 50
180.000000
  0
INSERT
  8
31
  2
RECT
 10
1.154504
 20
0.650528
 30
0.000000
 41
0.056992
 42
0.025496
 43
1.000000
 50
180.000000
  0
INSERT
  8
31
  2
RECT
 10
1.154504
 20
0.697772
 30
0.000000
 41
0.056992
 42
0.025496
 43
1.000000
 50
180.000000
  0
INSERT
  8
31
  2
RECT
 10
1.154504
 20
0.792260
 30
0.000000
 41
0.056992
 42
0.025496
 43
1.000000
 50
180.000000
  0
INSERT
  8
31
  2
RECT
 10
1.154504
 20
0.083598
 30
0.000000
 41
0.056992
 42
0.025496
 43
1.000000
 50
180.000000
  0
INSERT
  8
31
  2
RECT
 10
1.154504
 20
0.178087
 30
0.000000
 41
0.056992
 42
0.025496
 43
1.000000
 50
180.000000
  0
INSERT
  8
31
  2
RECT
 10
1.154504
 20
0.130843
 30
0.000000
 41
0.056992
 42
0.025496
 43
1.000000
 50
180.000000
  0
INSERT
  8
31
  2
RECT
 10
1.154504
 20
0.225331
 30
0.000000
 41
0.056992
 42
0.025496
 43
1.000000
 50
180.000000
  0
INSERT
  8
31
  2
RECT
 10
1.686000
 20
0.697772
 30
0.000000
 41
0.056992
 42
0.025496
 43
1.000000
 50
180.000000
  0
INSERT
  8
31
  2
RECT
 10
1.686000
 20
0.650528
 30
0.000000
 41
0.056992
 42
0.025496
 43
1.000000
 50
180.000000
  0
INSERT
  8
31
  2
RECT
 10
1.686000
 20
0.792260
 30
0.000000
 41
0.056992
 42
0.025496
 43
1.000000
 50
180.000000
  0
INSERT
  8
31
  2
RECT
 10
1.686000
 20
0.745016
 30
0.000000
 41
0.056992
 42
0.025496
 43
1.000000
 50
180.000000
  0
INSERT
  8
31
  2
RECT
 10
1.686000
 20
0.603283
 30
0.000000
 41
0.056992
 42
0.025496
 43
1.000000
 50
180.000000
  0
INSERT
  8
31
  2
RECT
 10
1.686000
 20
0.556039
 30
0.000000
 41
0.056992
 42
0.025496
 43
1.000000
 50
180.000000
  0
INSERT
  8
31
  2
RECT
 10
1.443874
 20
0.871000
 30
0.000000
 41
0.056992
 42
0.025496
 43
1.000000
 50
270.000000
  0
INSERT
  8
31
  2
RECT
 10
1.474409
 20
1.423622
 30
0.000000
 41
0.037307
 42
0.025496
 43
1.000000
 50
270.000000
  0
INSERT
  8
31
  2
RECT
 10
1.500394
 20
1.276772
 30
0.000000
 41
0.037307
 42
0.033370
 43
1.000000
 50
270.000000
  0
INSERT
  8
31
  2
RECT
 10
1.525591
 20
1.423622
 30
0.000000
 41
0.037307
 42
0.025496
 43
1.000000
 50
270.000000
  0
INSERT
  8
31
  2
RECT
 10
1.019000
 20
1.289764
 30
0.000000
 41
0.044000
 42
0.016000
 43
1.000000
 50
180.000000
  0
INSERT
  8
31
  2
RECT
 10
1.019000
 20
1.321260
 30
0.000000
 41
0.044000
 42
0.016000
 43
1.000000
 50
180.000000
  0
INSERT
  8
31
  2
RECT
 10
1.019000
 20
1.352756
 30
0.000000
 41
0.044000
 42
0.016000
 43
1.000000
 50
180.000000
  0
INSERT
  8
31
  2
RECT
 10
1.019000
 20
1.384252
 30
0.000000
 41
0.044000
 42
0.016000
 43
1.000000
 50
180.000000
  0
INSERT
  8
31
  2
RECT
 10
1.019000
 20
1.415748
 30
0.000000
 41
0.044000
 42
0.016000
 43
1.000000
 50
180.000000
  0
INSERT
  8
31
  2
RECT
 10
1.019000
 20
1.447244
 30
0.000000
 41
0.044000
 42
0.016000
 43
1.000000
 50
180.000000
  0
INSERT
  8
31
  2
RECT
 10
1.019000
 20
1.478740
 30
0.000000
 41
0.044000
 42
0.016000
 43
1.000000
 50
180.000000
  0
INSERT
  8
31
  2
RECT
 10
1.019000
 20
1.510236
 30
0.000000
 41
0.044000
 42
0.016000
 43
1.000000
 50
180.000000
  0
INSERT
  8
31
  2
RECT
 10
0.960236
 20
1.569000
 30
0.000000
 41
0.016000
 42
0.044000
 43
1.000000
 50
180.000000
  0
INSERT
  8
31
  2
RECT
 10
0.928740
 20
1.569000
 30
0.000000
 41
0.016000
 42
0.044000
 43
1.000000
 50
180.000000
  0
INSERT
  8
31
  2
RECT
 10
0.897244
 20
1.569000
 30
0.000000
 41
0.016000
 42
0.044000
 43
1.000000
 50
180.000000
  0
INSERT
  8
31
  2
RECT
 10
0.865748
 20
1.569000
 30
0.000000
 41
0.016000
 42
0.044000
 43
1.000000
 50
180.000000
  0
INSERT
  8
31
  2
RECT
 10
0.834252
 20
1.569000
 30
0.000000
 41
0.016000
 42
0.044000
 43
1.000000
 50
180.000000
  0
INSERT
  8
31
  2
RECT
 10
0.802756
 20
1.569000
 30
0.000000
 41
0.016000
 42
0.044000
 43
1.000000
 50
180.000000
  0
INSERT
  8
31
  2
RECT
 10
0.771260
 20
1.569000
 30
0.000000
 41
0.016000
 42
0.044000
 43
1.000000
 50
180.000000
  0
INSERT
  8
31
  2
RECT
 10
0.739764
 20
1.569000
 30
0.000000
 41
0.016000
 42
0.044000
 43
1.000000
 50
180.000000
  0
INSERT
  8
31
  2
RECT
 10
0.681000
 20
1.510236
 30
0.000000
 41
0.044000
 42
0.016000
 43
1.000000
 50
180.000000
  0
INSERT
  8
31
  2
RECT
 10
0.681000
 20
1.478740
 30
0.000000
 41
0.044000
 42
0.016000
 43
1.000000
 50
180.000000
  0
INSERT
  8
31
  2
RECT
 10
0.681000
 20
1.447244
 30
0.000000
 41
0.044000
 42
0.016000
 43
1.000000
 50
180.000000
  0
INSERT
  8
31
  2
RECT
 10
0.681000
 20
1.415748
 30
0.000000
 41
0.044000
 42
0.016000
 43
1.000000
 50
180.000000
  0
INSERT
  8
31
  2
RECT
 10
0.681000
 20
1.384252
 30
0.000000
 41
0.044000
 42
0.016000
 43
1.000000
 50
180.000000
  0
INSERT
  8
31
  2
RECT
 10
0.681000
 20
1.352756
 30
0.000000
 41
0.044000
 42
0.016000
 43
1.000000
 50
180.000000
  0
INSERT
  8
31
  2
RECT
 10
0.681000
 20
1.321260
 30
0.000000
 41
0.044000
 42
0.016000
 43
1.000000
 50
180.000000
  0
INSERT
  8
31
  2
RECT
 10
0.681000
 20
1.289764
 30
0.000000
 41
0.044000
 42
0.016000
 43
1.000000
 50
180.000000
  0
INSERT
  8
31
  2
RECT
 10
0.739764
 20
1.231000
 30
0.000000
 41
0.016000
 42
0.044000
 43
1.000000
 50
180.000000
  0
INSERT
  8
31
  2
RECT
 10
0.771260
 20
1.231000
 30
0.000000
 41
0.016000
 42
0.044000
 43
1.000000
 50
180.000000
  0
INSERT
  8
31
  2
RECT
 10
0.802756
 20
1.231000
 30
0.000000
 41
0.016000
 42
0.044000
 43
1.000000
 50
180.000000
  0
INSERT
  8
31
  2
RECT
 10
0.834252
 20
1.231000
 30
0.000000
 41
0.016000
 42
0.044000
 43
1.000000
 50
180.000000
  0
INSERT
  8
31
  2
RECT
 10
0.865748
 20
1.231000
 30
0.000000
 41
0.016000
 42
0.044000
 43
1.000000
 50
180.000000
  0
INSERT
  8
31
  2
RECT
 10
0.897244
 20
1.231000
 30
0.000000
 41
0.016000
 42
0.044000
 43
1.000000
 50
180.000000
  0
INSERT
  8
31
  2
RECT
 10
0.928740
 20
1.231000
 30
0.000000
 41
0.016000
 42
0.044000
 43
1.000000
 50
180.000000
  0
INSERT
  8
31
  2
RECT
 10
0.960236
 20
1.231000
 30
0.000000
 41
0.016000
 42
0.044000
 43
1.000000
 50
180.000000
  0
INSERT
  8
31
  2
RECT47616X280416R100
 10
1.155000
 20
1.446756
 30
0.000000
 41
1.000000
 42
1.000000
 43
1.000000
 50
90.000000
  0
INSERT
  8
31
  2
RECT47616X280416R100
 10
1.155000
 20
1.494000
 30
0.000000
 41
1.000000
 42
1.000000
 43
1.000000
 50
90.000000
  0
INSERT
  8
31
  2
RECT47616X280416R100
 10
1.155000
 20
1.541244
 30
0.000000
 41
1.000000
 42
1.000000
 43
1.000000
 50
90.000000
  0
ENDSEC
  0
EOF
