G75*
%MOIN*%
%OFA0B0*%
%FSLAX24Y24*%
%IPPOS*%
%LPD*%
%AMOC8*
5,1,8,0,0,1.08239X$1,22.5*
%
%ADD10C,0.1060*%
%ADD11OC8,0.1060*%
%ADD12C,0.0800*%
%ADD13C,0.0769*%
%ADD14R,0.0800X0.0800*%
%ADD15OC8,0.0800*%
%ADD16C,0.0710*%
%ADD17R,0.0710X0.0710*%
%ADD18OC8,0.0436*%
%ADD19OC8,0.0330*%
%ADD20C,0.0340*%
%ADD21C,0.0360*%
%ADD22C,0.0400*%
%ADD23OC8,0.0591*%
%ADD24OC8,0.0828*%
%ADD25OC8,0.0769*%
%ADD26C,0.0397*%
D10*
X022250Y003700D03*
D11*
X024250Y003700D03*
D12*
X025800Y006230D03*
X025800Y007230D03*
X023480Y007170D03*
X022480Y007170D03*
X021280Y008470D03*
X020280Y008470D03*
X019080Y009470D03*
X018980Y010470D03*
X019080Y011470D03*
X020590Y012470D03*
X021590Y012470D03*
X016880Y013470D03*
X016780Y012470D03*
X014780Y012920D03*
X013780Y013020D03*
X012780Y012920D03*
X016780Y014470D03*
X016880Y015470D03*
X016780Y016470D03*
X016880Y017470D03*
X016340Y018960D03*
X016340Y019960D03*
X014170Y019930D03*
X014170Y018930D03*
X012170Y018950D03*
X012170Y019950D03*
X012780Y021470D03*
X012780Y022470D03*
X014780Y022470D03*
X014780Y021470D03*
X015780Y024470D03*
X015780Y025470D03*
X013280Y025470D03*
X013280Y024470D03*
X010780Y024470D03*
X010780Y025470D03*
X008720Y025460D03*
X008720Y024460D03*
X006160Y024440D03*
X006160Y025440D03*
X002280Y024970D03*
X001280Y024970D03*
X001280Y022470D03*
X002280Y022470D03*
X002280Y019970D03*
X001280Y019970D03*
X001280Y017470D03*
X002280Y017470D03*
X002280Y014970D03*
X001280Y014970D03*
X018780Y006970D03*
X019780Y006970D03*
X019780Y005870D03*
X018780Y005870D03*
X018780Y004720D03*
X019780Y004720D03*
X019800Y003540D03*
X018800Y003540D03*
X029670Y013420D03*
X029570Y014420D03*
X029670Y015420D03*
X027730Y015470D03*
X027830Y014470D03*
X027830Y016470D03*
X027760Y018020D03*
X027760Y019020D03*
X026780Y021470D03*
X026780Y022470D03*
X024780Y022470D03*
X024780Y021470D03*
X022780Y021470D03*
X022780Y022470D03*
X022280Y024920D03*
X023280Y025020D03*
X024280Y024920D03*
X025280Y025020D03*
X026280Y024920D03*
X021280Y025020D03*
X020280Y024920D03*
D13*
X026721Y003050D03*
X029319Y003050D03*
D14*
X018980Y008470D03*
X011780Y013020D03*
X019280Y025020D03*
X027730Y013470D03*
D15*
X010280Y020470D03*
X009280Y020470D03*
X009280Y021470D03*
X010280Y021470D03*
X010280Y022470D03*
X009280Y022470D03*
X005600Y018310D03*
X004600Y018310D03*
X004600Y017310D03*
X005600Y017310D03*
X005600Y016310D03*
X004600Y016310D03*
X004600Y015310D03*
X005600Y015310D03*
D16*
X009600Y011030D03*
X019430Y020930D03*
X017650Y022530D03*
X029260Y023500D03*
X004200Y024020D03*
D17*
X004200Y025020D03*
X017650Y023530D03*
X020430Y020930D03*
X028260Y023500D03*
X009600Y012030D03*
D18*
X000780Y004970D03*
X001780Y004970D03*
X001780Y009470D03*
X000780Y009470D03*
X010300Y004490D03*
X010280Y002970D03*
X013040Y003990D03*
X013070Y004980D03*
X013650Y005000D03*
X014490Y004010D03*
X017520Y013160D03*
X018010Y013310D03*
X014430Y017440D03*
X012620Y017410D03*
X017920Y020850D03*
X024780Y018300D03*
D19*
X023470Y019550D03*
X022580Y018780D03*
X022580Y018270D03*
X022470Y017600D03*
X021930Y017950D03*
X021140Y018650D03*
X020920Y018360D03*
X020750Y017600D03*
X020980Y019200D03*
X022190Y019810D03*
X023160Y017490D03*
X019370Y015350D03*
X014410Y016790D03*
X014700Y017920D03*
X013620Y020590D03*
X008240Y015680D03*
X006480Y015470D03*
X006440Y016020D03*
X009540Y013430D03*
X009110Y013150D03*
X011640Y014530D03*
X011890Y014880D03*
X011600Y015130D03*
X017990Y007070D03*
X017920Y006120D03*
X023210Y009710D03*
X023210Y010040D03*
X023680Y009600D03*
X023760Y009230D03*
X024040Y009020D03*
X024400Y009030D03*
X022980Y010610D03*
X024510Y011520D03*
X024880Y011520D03*
D20*
X023660Y012100D03*
X024500Y012630D03*
X026970Y012870D03*
X028732Y012798D03*
X021990Y022630D03*
X021210Y022950D03*
X011720Y024060D03*
X011160Y023630D03*
X007200Y023230D03*
X006760Y023600D03*
X006860Y021790D03*
X005890Y021320D03*
X003940Y021250D03*
X003900Y020810D03*
X003870Y020350D03*
X007970Y016960D03*
X005770Y012200D03*
X006010Y010380D03*
X004800Y007960D03*
X004040Y006530D03*
X004040Y005710D03*
X005880Y005560D03*
X006660Y005790D03*
X007240Y004980D03*
X007500Y004580D03*
X006380Y006930D03*
X008220Y007090D03*
X011210Y006120D03*
D21*
X014450Y007570D03*
X013840Y010390D03*
X012590Y010380D03*
X011060Y012700D03*
X010340Y014220D03*
X009580Y016460D03*
X009900Y016940D03*
X009230Y017330D03*
X008620Y018650D03*
X011000Y018210D03*
X011600Y019380D03*
X015440Y018210D03*
X020210Y017860D03*
X020620Y016860D03*
X020710Y016310D03*
X022360Y016560D03*
X021710Y014630D03*
X007590Y015680D03*
X004400Y021390D03*
X005880Y023270D03*
D22*
X011080Y016370D03*
X011480Y016370D03*
D23*
X010990Y011140D03*
X010120Y008810D03*
X010080Y008070D03*
X008980Y008070D03*
X008980Y008770D03*
X015310Y009130D03*
X015310Y009760D03*
X016390Y009830D03*
X016380Y009170D03*
X019860Y010760D03*
D24*
X024680Y008170D03*
X028280Y009370D03*
X029370Y005070D03*
X025680Y004670D03*
X025680Y003770D03*
X012780Y016510D03*
D25*
X022010Y013820D03*
D26*
X022490Y012290D03*
X022300Y011900D03*
M02*
