%
M48
M72
T01C0.0130
T02C0.0140
T03C0.0160
T04C0.0197
T05C0.0200
T06C0.0236
T07C0.0276
T08C0.0354
T09C0.0400
T10C0.0472
T11C0.0512
%
T01
X9110Y13150
X9540Y13430
X11640Y14530
X11890Y14880
X11600Y15130
X14410Y16790
X14700Y17920
X13620Y20590
X8240Y15680
X6480Y15470
X6440Y16020
X17990Y7070
X17920Y6120
X23210Y9710
X23210Y10040
X23680Y9600
X23760Y9230
X24040Y9020
X24400Y9030
X22980Y10610
X24510Y11520
X24880Y11520
X19370Y15350
X20750Y17600
X20920Y18360
X21140Y18650
X20980Y19200
X22190Y19810
X22580Y18780
X22580Y18270
X22470Y17600
X21930Y17950
X23160Y17490
X23470Y19550
T02
X21990Y22630
X21210Y22950
X11720Y24060
X11160Y23630
X7200Y23230
X6760Y23600
X6860Y21790
X5890Y21320
X3940Y21250
X3900Y20810
X3870Y20350
X7970Y16960
X5770Y12200
X6010Y10380
X4800Y7960
X4040Y6530
X4040Y5710
X5880Y5560
X6660Y5790
X7240Y4980
X7500Y4580
X6380Y6930
X8220Y7090
X11210Y6120
X23660Y12100
X24500Y12630
X26970Y12870
X28732Y12798
T03
X22360Y16560
X20710Y16310
X20620Y16860
X20210Y17860
X21710Y14630
X15440Y18210
X11600Y19380
X11000Y18210
X9900Y16940
X9580Y16460
X9230Y17330
X8620Y18650
X7590Y15680
X10340Y14220
X11060Y12700
X12590Y10380
X13840Y10390
X14450Y7570
X4400Y21390
X5880Y23270
T04
X22490Y12290
X22300Y11900
T05
X11480Y16370
X11080Y16370
T06
X780Y4970
X1780Y4970
X1780Y9470
X780Y9470
X10300Y4490
X10280Y2970
X13040Y3990
X13070Y4980
X13650Y5000
X14490Y4010
X17520Y13160
X18010Y13310
X14430Y17440
X12620Y17410
X17920Y20850
X24780Y18300
T07
X20430Y20930
X19430Y20930
X17650Y22530
X17650Y23530
X28260Y23500
X29260Y23500
X9600Y12030
X9600Y11030
X4200Y24020
X4200Y25020
T08
X10990Y11140
X10120Y8810
X10080Y8070
X8980Y8070
X8980Y8770
X15310Y9130
X15310Y9760
X16390Y9830
X16380Y9170
X19860Y10760
T09
X18980Y10470
X19080Y11470
X20590Y12470
X21590Y12470
X19080Y9470
X18980Y8470
X20280Y8470
X21280Y8470
X22480Y7170
X23480Y7170
X25800Y7230
X25800Y6230
X24250Y3700
X22250Y3700
X19800Y3540
X18800Y3540
X18780Y4720
X19780Y4720
X19780Y5870
X18780Y5870
X18780Y6970
X19780Y6970
X16780Y12470
X16880Y13470
X16780Y14470
X16880Y15470
X16780Y16470
X16880Y17470
X16340Y18960
X16340Y19960
X14170Y19930
X14170Y18930
X12170Y18950
X12170Y19950
X10280Y20470
X9280Y20470
X9280Y21470
X10280Y21470
X10280Y22470
X9280Y22470
X8720Y24460
X8720Y25460
X10780Y25470
X10780Y24470
X13280Y24470
X13280Y25470
X15780Y25470
X15780Y24470
X14780Y22470
X14780Y21470
X12780Y21470
X12780Y22470
X6160Y24440
X6160Y25440
X2280Y24970
X1280Y24970
X1280Y22470
X2280Y22470
X2280Y19970
X1280Y19970
X1280Y17470
X2280Y17470
X4600Y17310
X5600Y17310
X5600Y16310
X4600Y16310
X4600Y15310
X5600Y15310
X2280Y14970
X1280Y14970
X4600Y18310
X5600Y18310
X11780Y13020
X12780Y12920
X13780Y13020
X14780Y12920
X22780Y21470
X22780Y22470
X24780Y22470
X24780Y21470
X26780Y21470
X26780Y22470
X26280Y24920
X25280Y25020
X24280Y24920
X23280Y25020
X22280Y24920
X21280Y25020
X20280Y24920
X19280Y25020
X27760Y19020
X27760Y18020
X27830Y16470
X27730Y15470
X27830Y14470
X27730Y13470
X29670Y13420
X29570Y14420
X29670Y15420
T10
X22010Y13820
X26721Y3050
X29319Y3050
T11
X29370Y5070
X25680Y4670
X25680Y3770
X24680Y8170
X28280Y9370
X12780Y16510
M30
